<svg width="19" height="15" viewBox="0 0 19 15" fill="none" xmlns="http://www.w3.org/2000/svg">
<path d="M17.7285 0H1.27158C0.934345 0 0.610926 0.133997 0.372467 0.372455C0.134009 0.610914 4.33955e-05 0.934334 4.33955e-05 1.27156V13.7055C-0.00134561 13.8728 0.0306234 14.0388 0.0940319 14.1937C0.15744 14.3486 0.251031 14.4893 0.369382 14.6077C0.487732 14.726 0.628448 14.8196 0.783345 14.883C0.938242 14.9464 1.10421 14.9784 1.27158 14.977H17.7285C17.8955 14.977 18.0609 14.9441 18.2152 14.8802C18.3694 14.8163 18.5096 14.7227 18.6277 14.6046C18.7457 14.4865 18.8394 14.3463 18.9033 14.192C18.9672 14.0378 19.0001 13.8725 19.0001 13.7055V1.27156C19.0001 1.10458 18.9672 0.939193 18.9033 0.784924C18.8394 0.630654 18.7457 0.490528 18.6277 0.372455C18.5096 0.254383 18.3694 0.16072 18.2152 0.0968193C18.0609 0.0329189 17.8955 0 17.7285 0ZM5.3259 11.9024H2.19918C2.09108 11.915 1.98155 11.9046 1.87775 11.8719C1.77395 11.8392 1.67823 11.7848 1.59693 11.7125C1.51562 11.6401 1.45058 11.5514 1.40602 11.4521C1.36147 11.3528 1.33843 11.2452 1.33843 11.1363C1.33843 11.0275 1.36147 10.9199 1.40602 10.8206C1.45058 10.7213 1.51562 10.6325 1.59693 10.5602C1.67823 10.4878 1.77395 10.4335 1.87775 10.4008C1.98155 10.368 2.09108 10.3577 2.19918 10.3703H5.3259C5.51368 10.3922 5.68686 10.4824 5.81254 10.6236C5.93823 10.7648 6.00765 10.9473 6.00765 11.1363C6.00765 11.3254 5.93823 11.5079 5.81254 11.6491C5.68686 11.7903 5.51368 11.8805 5.3259 11.9024ZM7.41038 8.31711H2.19918C2.09108 8.32974 1.98155 8.31931 1.87775 8.28658C1.77395 8.25385 1.67823 8.19952 1.59693 8.12716C1.51562 8.05481 1.45058 7.96609 1.40602 7.86679C1.36147 7.7675 1.33843 7.65985 1.33843 7.55102C1.33843 7.44218 1.36147 7.3346 1.40602 7.23531C1.45058 7.13601 1.51562 7.04723 1.59693 6.97487C1.67823 6.90252 1.77395 6.84819 1.87775 6.81546C1.98155 6.78273 2.09108 6.77236 2.19918 6.78499H7.41038C7.59815 6.80693 7.77134 6.89707 7.89702 7.0383C8.0227 7.17952 8.09212 7.36197 8.09212 7.55102C8.09212 7.74007 8.0227 7.92258 7.89702 8.0638C7.77134 8.20503 7.59815 8.29517 7.41038 8.31711ZM7.41038 4.73181H2.19918C2.09108 4.74444 1.98155 4.734 1.87775 4.70127C1.77395 4.66854 1.67823 4.61421 1.59693 4.54186C1.51562 4.4695 1.45058 4.38079 1.40602 4.28149C1.36147 4.18219 1.33843 4.07455 1.33843 3.96571C1.33843 3.85688 1.36147 3.7493 1.40602 3.65C1.45058 3.5507 1.51562 3.46199 1.59693 3.38963C1.67823 3.31728 1.77395 3.26288 1.87775 3.23015C1.98155 3.19742 2.09108 3.18705 2.19918 3.19968H7.41038C7.59815 3.22162 7.77134 3.31177 7.89702 3.45299C8.0227 3.59421 8.09212 3.77666 8.09212 3.96571C8.09212 4.15476 8.0227 4.33728 7.89702 4.4785C7.77134 4.61972 7.59815 4.70987 7.41038 4.73181ZM17.1657 12.5903C16.9353 12.5875 16.7154 12.4941 16.5534 12.3302C16.3915 12.1663 16.3007 11.9452 16.3007 11.7148C16.1678 10.9963 15.7876 10.3471 15.2259 9.87977C14.6643 9.41245 13.9567 9.15655 13.2261 9.15655C12.4954 9.15655 11.7879 9.41245 11.2262 9.87977C10.6646 10.3471 10.2843 10.9963 10.1515 11.7148C10.1515 11.9442 10.0603 12.1642 9.8981 12.3265C9.73587 12.4887 9.51583 12.5798 9.2864 12.5798C9.05697 12.5798 8.83696 12.4887 8.67473 12.3265C8.5125 12.1642 8.42135 11.9442 8.42135 11.7148C8.42626 10.5541 8.85113 9.43444 9.61747 8.56272C10.3838 7.691 11.4398 7.12615 12.5903 6.97258C12.0331 6.82805 11.5478 6.48533 11.2251 6.00865C10.9025 5.53197 10.7647 4.95406 10.8375 4.38308C10.9104 3.8121 11.1889 3.28726 11.6209 2.90687C12.0529 2.52648 12.6088 2.3166 13.1844 2.3166C13.76 2.3166 14.3158 2.52648 14.7478 2.90687C15.1799 3.28726 15.4584 3.8121 15.5312 4.38308C15.6041 4.95406 15.4663 5.53197 15.1437 6.00865C14.821 6.48533 14.3356 6.82805 13.7784 6.97258C14.9289 7.12615 15.9849 7.691 16.7513 8.56272C17.5176 9.43444 17.9425 10.5541 17.9474 11.7148C17.9487 11.9316 17.8694 12.1412 17.725 12.3029C17.5806 12.4647 17.3813 12.567 17.1657 12.5903Z" fill="#808994"/>
</svg>
