<svg width="45" height="16" viewBox="0 0 45 16" fill="none" xmlns="http://www.w3.org/2000/svg">
<path d="M38.2637 0.204113C38.6569 0.187231 39.038 0.337821 39.3306 0.617119L43.9756 5.05022L43.9839 5.05779L43.9912 5.06739L44.4003 5.5604L44.4876 5.67562C44.868 6.22503 44.9005 6.97408 44.5688 7.55421L44.4917 7.67555L44.1268 8.203L44.1202 8.2122L44.1127 8.22145L39.8675 13.0388C39.6001 13.3422 39.2333 13.5242 38.8401 13.5413L2.22735 15.1237C1.37028 15.1606 0.676254 14.428 0.637423 13.5325L0.204248 3.51003C0.165537 2.61435 0.793778 1.82379 1.65091 1.78653L38.2637 0.204113Z" stroke="white" stroke-width="0.4"/>
</svg>
