<svg width="30" height="31" viewBox="0 0 30 31" fill="none" xmlns="http://www.w3.org/2000/svg">
<ellipse cx="15" cy="15.2214" rx="15" ry="15.2214" fill="#7889A6"/>
<path d="M15 6.58789C19.6875 6.58789 23.5 10.446 23.5 15.2207C23.5 19.9954 19.6875 23.8535 15 23.8535H6.5V15.2207C6.5 10.446 10.3125 6.58789 15 6.58789Z" fill="#7889A6" stroke="#191E24"/>
<g clip-path="url(#clip0_1_38663)">
<path d="M17.1671 15.363C17.6541 15.3658 18.1202 15.5744 18.4637 15.9433C18.8071 16.3122 18.9999 16.8113 18.9999 17.3316V17.3634C18.9826 17.8651 18.788 18.3411 18.4553 18.6957C18.1225 19.0502 17.6764 19.2568 17.2067 19.2738H16.7757C15.3426 19.1507 13.9845 18.5384 12.9021 17.5274C11.7551 16.3828 11.0784 14.8 11.0197 13.1244C11.0164 12.8708 11.0604 12.6191 11.1491 12.3839C11.2378 12.1487 11.3695 11.9348 11.5364 11.7545C11.7033 11.5742 11.9021 11.4312 12.1213 11.3339C12.3404 11.2365 12.5755 11.1868 12.8129 11.1875C13.054 11.1875 13.2927 11.2383 13.5154 11.3371C13.7381 11.4358 13.9404 11.5805 14.1106 11.7629C14.2809 11.9453 14.4158 12.1618 14.5076 12.3999C14.5994 12.6381 14.6464 12.8933 14.6457 13.1509C14.6477 13.5133 14.5489 13.8681 14.362 14.1705C14.175 14.4729 13.9083 14.7093 13.5956 14.8496C13.8124 15.2184 14.0702 15.5578 14.3634 15.8604C14.693 16.1961 15.071 16.473 15.4829 16.6807C15.5976 16.3056 15.8203 15.9788 16.1192 15.747C16.4181 15.5151 16.7779 15.39 17.1473 15.3894L17.1671 15.363Z" fill="#1E2024"/>
</g>
<defs>
<clipPath id="clip0_1_38663">
<rect width="8" height="8.11806" fill="white" transform="translate(11 11.1621)"/>
</clipPath>
</defs>
</svg>
