<svg width="233" height="65" viewBox="0 0 233 65" fill="none" xmlns="http://www.w3.org/2000/svg">
<mask id="path-1-inside-1_1_18089" fill="white">
<path d="M200.849 10H8C3.58173 10 0 13.5817 0 18V57C0 61.4183 3.58173 65 8 65H225C229.418 65 233 61.4183 233 57V18C233 13.5817 229.418 10 225 10H217.151L209 0L200.849 10Z"/>
</mask>
<path d="M200.849 10H8C3.58173 10 0 13.5817 0 18V57C0 61.4183 3.58173 65 8 65H225C229.418 65 233 61.4183 233 57V18C233 13.5817 229.418 10 225 10H217.151L209 0L200.849 10Z" fill="#1B1D20"/>
<path d="M200.849 10L201.624 10.6318L201.324 11H200.849V10ZM8 10V9V10ZM8 65V66V65ZM225 65L225 66H225V65ZM217.151 10V11H216.676L216.376 10.6318L217.151 10ZM209 0L208.225 -0.631823L209 -1.58272L209.775 -0.631823L209 0ZM200.849 10V11H8V10V9H200.849V10ZM8 10V11C4.134 11 1 14.134 1 18H0H-1C-1 13.0294 3.02943 9 8 9V10ZM0 18H1V57H0H-1V18H0ZM0 57H1C1 60.866 4.134 64 8 64V65V66C3.02943 66 -1 61.9706 -1 57H0ZM8 65V64H225V65V66H8V65ZM225 65V64C228.866 64 232 60.866 232 57H233H234C234 61.9706 229.971 66 225 66L225 65ZM233 57H232V18H233H234V57H233ZM233 18H232C232 14.134 228.866 11 225 11V10V9C229.971 9 234 13.0294 234 18H233ZM225 10V11H217.151V10V9H225V10ZM217.151 10L216.376 10.6318L208.225 0.631823L209 0L209.775 -0.631823L217.926 9.36818L217.151 10ZM209 0L209.775 0.631823L201.624 10.6318L200.849 10L200.074 9.36818L208.225 -0.631823L209 0Z" fill="#478A03" mask="url(#path-1-inside-1_1_18089)"/>
</svg>
