<svg width="25" height="26" viewBox="0 0 25 26" fill="none" xmlns="http://www.w3.org/2000/svg">
<path d="M0 6C0 2.68629 2.68629 0 6 0H25L0 26V6Z" fill="#FF2E2E"/>
<path d="M15.2137 7.53477L11.8494 4.17049L10.6479 5.37202L9.96289 4.68701L13.1808 1.46912L13.8658 2.15413L12.667 3.3529L16.0313 6.71718L15.2137 7.53477Z" fill="white"/>
<path d="M7.73379 11.015C7.32131 10.6026 7.03681 10.1947 6.88029 9.79142C6.76612 9.49311 6.70628 9.18283 6.70075 8.86058C6.69707 8.53649 6.75047 8.24002 6.86096 7.97117C7.00643 7.61209 7.24397 7.26774 7.57359 6.93813C8.17021 6.34151 8.8322 6.04964 9.55956 6.06253C10.2888 6.07358 10.983 6.40872 11.6422 7.06795C12.2959 7.72166 12.6301 8.41127 12.6449 9.13679C12.6578 9.86047 12.3668 10.5197 11.772 11.1145C11.1699 11.7166 10.5079 12.0122 9.78606 12.0011C9.06238 11.9882 8.37829 11.6595 7.73379 11.015ZM8.54862 10.145C9.00714 10.6035 9.46105 10.8456 9.91036 10.8714C10.3578 10.8954 10.7445 10.7444 11.0705 10.4184C11.3964 10.0925 11.5465 9.70855 11.5207 9.26661C11.4949 8.82099 11.2472 8.36339 10.7777 7.89383C10.3136 7.42979 9.86524 7.1858 9.43251 7.16186C9.00161 7.13608 8.61768 7.29168 8.2807 7.62866C7.94371 7.96564 7.78811 8.35326 7.81389 8.79152C7.83783 9.22794 8.08274 9.67909 8.54862 10.145Z" fill="white"/>
<path d="M5.81418 16.9341L1.76489 12.8848L2.58248 12.0672L4.17624 13.6609L5.77828 12.0589L4.18452 10.4651L5.00212 9.64754L9.05141 13.6968L8.23381 14.5144L6.46329 12.7439L4.86125 14.3459L6.63178 16.1165L5.81418 16.9341Z" fill="white"/>
</svg>
