<svg width="14" height="15" viewBox="0 0 14 15" fill="none" xmlns="http://www.w3.org/2000/svg">
<path d="M12.8332 3.9125C13.4775 3.9125 14 4.43499 14 5.07933C13.9998 5.58965 13.6721 6.02343 13.2156 6.18161C13.2204 6.24384 13.2224 6.30654 13.2224 6.36939V10.4186C13.2213 11.3735 12.8395 12.2888 12.1612 12.9645C11.4828 13.6403 10.5626 14.0216 9.60263 14.0237H4.39737C3.43742 14.0216 2.51718 13.6403 1.83876 12.9645C1.16059 12.2888 0.778718 11.3735 0.77756 10.4186V6.36939C0.777571 6.30654 0.780587 6.24384 0.785385 6.18161C0.328606 6.02355 0.000191909 5.58981 0 5.07933C0 4.43499 0.52249 3.9125 1.16683 3.9125H12.8332ZM7 6.24616C6.57056 6.24621 6.22256 6.5943 6.22244 7.02372V11.691C6.22264 12.1204 6.57061 12.4685 7 12.4686C7.42943 12.4686 7.77736 12.1204 7.77756 11.691V7.02372C7.77744 6.59426 7.42948 6.24616 7 6.24616ZM7.90666 1.10643C10.4879 -2.26136 13.2224 3.13393 8.16683 3.13396H5.60137C1.16673 3.13391 3.50822 -2.24157 6.08551 1.10643L6.99609 2.25859L7.90666 1.10643Z" fill="white"/>
</svg>
