<svg width="15" height="18" viewBox="0 0 15 18" fill="none" xmlns="http://www.w3.org/2000/svg">
<path d="M13.5362 7.43978H4.1642V5.01152C4.17006 4.98428 4.17006 4.95611 4.1642 4.92887C4.16283 4.49969 4.24636 4.07448 4.40997 3.6777C4.57358 3.28093 4.81404 2.92045 5.11752 2.61697C5.421 2.31349 5.78149 2.07302 6.17826 1.90941C6.57504 1.7458 7.00025 1.66228 7.42943 1.66364C8.28654 1.66353 9.10933 2.00046 9.72021 2.60168C10.3311 3.20289 10.6811 4.02018 10.6947 4.87719V5.40418C10.6946 5.51361 10.7164 5.62195 10.7585 5.72292C10.8007 5.8239 10.8626 5.91548 10.9404 5.99238C11.0183 6.06928 11.1106 6.12996 11.2121 6.17089C11.3136 6.21182 11.4222 6.23217 11.5316 6.23081C11.7509 6.23081 11.9611 6.14372 12.1161 5.98869C12.2712 5.83367 12.3583 5.62342 12.3583 5.40418V4.90818C12.3569 4.26228 12.2283 3.62297 11.9799 3.02675C11.7315 2.43053 11.368 1.88908 10.9104 1.43332C10.4527 0.977551 9.9097 0.616394 9.31244 0.37047C8.71518 0.124546 8.07533 -0.0013475 7.42943 1.08763e-05C6.78265 9.44898e-06 6.14222 0.127597 5.54481 0.375421C4.94739 0.623245 4.40472 0.986438 3.94786 1.44426C3.491 1.90208 3.12892 2.44553 2.88235 3.04346C2.63578 3.6414 2.50956 4.28209 2.51092 4.92887V7.43978H1.37429C1.00981 7.43978 0.66025 7.58458 0.402521 7.84231C0.144792 8.10004 0 8.44957 0 8.81406V16.7911C0.0311814 17.0926 0.16187 17.3751 0.371433 17.594C0.580996 17.8129 0.857497 17.9558 1.15729 18.0001H13.7739C14.0346 17.9391 14.2716 17.8028 14.4554 17.608C14.6391 17.4132 14.7615 17.1687 14.8072 16.9048V8.70041C14.783 8.37234 14.641 8.06407 14.4074 7.83241C14.1739 7.60075 13.8645 7.46132 13.5362 7.43978ZM8.09074 13.9496H6.74745C6.52821 13.9496 6.31795 13.8625 6.16293 13.7074C6.0079 13.5524 5.92081 13.3422 5.92081 13.1229C5.91944 13.0135 5.93981 12.9049 5.98074 12.8034C6.02167 12.7019 6.08234 12.6096 6.15924 12.5317C6.23614 12.4538 6.32773 12.392 6.4287 12.3498C6.52967 12.3077 6.63802 12.286 6.74745 12.286H8.09074C8.20017 12.286 8.30851 12.3077 8.40948 12.3498C8.51046 12.392 8.60205 12.4538 8.67894 12.5317C8.75584 12.6096 8.81651 12.7019 8.85744 12.8034C8.89837 12.9049 8.91875 13.0135 8.91738 13.1229C8.91738 13.3422 8.83028 13.5524 8.67526 13.7074C8.52023 13.8625 8.30998 13.9496 8.09074 13.9496Z" fill="#808994"/>
</svg>
