<svg width="17" height="15" viewBox="0 0 17 15" fill="none" xmlns="http://www.w3.org/2000/svg">
<g clip-path="url(#clip0_1_14197)">
<path d="M16.8594 6.69875L13.7773 2.83575C13.7005 2.73561 13.6018 2.65449 13.4887 2.59866C13.3755 2.54282 13.251 2.51378 13.1249 2.51378C12.9987 2.51378 12.8743 2.54282 12.7611 2.59866C12.648 2.65449 12.5492 2.73561 12.4725 2.83575L9.39032 6.69875C9.33878 6.76505 9.30672 6.84439 9.29775 6.92788C9.28877 7.01137 9.30322 7.09573 9.33949 7.17147C9.37576 7.2472 9.43241 7.31132 9.50309 7.35667C9.57376 7.40202 9.65567 7.42678 9.73963 7.42819H10.9417C10.9417 9.68845 10.9417 12.5652 6.96568 14.8357C6.86294 14.9076 6.91431 15.0617 7.02732 15.0412C14.5889 13.8699 15.2464 8.80491 15.2464 7.44876H16.5101C16.5951 7.44462 16.6774 7.41709 16.7477 7.36921C16.8181 7.32134 16.8739 7.25495 16.909 7.17739C16.944 7.09984 16.957 7.01413 16.9464 6.92967C16.9359 6.84521 16.9022 6.7653 16.8492 6.69875H16.8594ZM7.19171 7.6645H6.02048C6.02048 5.41451 6.02048 2.52756 10.0068 0.257023C10.1095 0.185106 10.0068 0.030985 9.94511 0.0515328C2.38352 1.22276 1.72599 6.30833 1.72599 7.65422H0.472572C0.38861 7.65562 0.306702 7.68038 0.236025 7.72573C0.165349 7.77108 0.1087 7.83523 0.0724309 7.91097C0.0361623 7.98671 0.0217061 8.07106 0.0306838 8.15455C0.0396615 8.23805 0.0717177 8.31739 0.123259 8.38368L3.20543 12.2467C3.28334 12.345 3.3825 12.4245 3.49548 12.4792C3.60845 12.5338 3.73233 12.5622 3.85783 12.5622C3.98332 12.5622 4.1072 12.5338 4.22017 12.4792C4.33315 12.4245 4.4323 12.345 4.51022 12.2467L7.59239 8.38368C7.64104 8.31736 7.67067 8.23901 7.6781 8.15709C7.68552 8.07518 7.67045 7.99276 7.63451 7.91878C7.59857 7.84479 7.54313 7.78202 7.47416 7.73721C7.40518 7.6924 7.32528 7.66726 7.24307 7.6645H7.19171Z" fill="#85D420"/>
</g>
<defs>
<clipPath id="clip0_1_14197">
<rect width="16.51" height="14.6" fill="white" transform="scale(1.02739)"/>
</clipPath>
</defs>
</svg>
