<svg width="14" height="14" viewBox="0 0 14 14" fill="none" xmlns="http://www.w3.org/2000/svg">
<path opacity="0.5" d="M6.9822 2.2643e-05C5.59865 0.00354153 4.24717 0.416992 3.09845 1.18814C1.94972 1.95929 1.05528 3.05354 0.528092 4.33272C0.000902509 5.6119 -0.135395 7.01862 0.136421 8.37521C0.408236 9.7318 1.07597 10.9774 2.05529 11.9548C3.03461 12.9321 4.28158 13.5973 5.63872 13.8664C6.99587 14.1354 8.40231 13.9963 9.68041 13.4665C10.9585 12.9367 12.051 12.04 12.8198 10.8897C13.5886 9.73946 13.9993 8.38713 14 7.00357C14.0005 6.08252 13.8192 5.17045 13.4665 4.31959C13.1138 3.46874 12.5967 2.69586 11.9447 2.04524C11.2928 1.39462 10.5188 0.879038 9.66728 0.528082C8.81571 0.177125 7.90325 -0.00231993 6.9822 2.2643e-05ZM7.08901 12.6043C6.87749 12.6043 6.67463 12.5203 6.52506 12.3707C6.37549 12.2211 6.29146 12.0183 6.29146 11.8067C6.29146 11.5952 6.37549 11.3923 6.52506 11.2428C6.67463 11.0932 6.87749 11.0092 7.08901 11.0092C7.30054 11.0092 7.5034 11.0932 7.65297 11.2428C7.80254 11.3923 7.88658 11.5952 7.88658 11.8067C7.88658 12.0183 7.80254 12.2211 7.65297 12.3707C7.5034 12.5203 7.30054 12.6043 7.08901 12.6043ZM8.17498 8.12158C8.06321 8.16585 7.96704 8.24222 7.89861 8.34107C7.83017 8.43992 7.79253 8.55682 7.79044 8.67702V9.1755C7.79044 9.38703 7.70641 9.58989 7.55684 9.73946C7.40727 9.88903 7.20441 9.97306 6.99288 9.97306C6.78136 9.97306 6.57849 9.88903 6.42892 9.73946C6.27935 9.58989 6.19533 9.38703 6.19533 9.1755V8.67702C6.19589 8.24814 6.32239 7.82888 6.55912 7.47126C6.79585 7.11363 7.13238 6.8334 7.52696 6.66534C7.74895 6.56906 7.94079 6.41457 8.08219 6.21821C8.22358 6.02185 8.30926 5.79091 8.33018 5.54985C8.35109 5.30879 8.30645 5.06656 8.20099 4.84878C8.09553 4.63101 7.93316 4.44579 7.73107 4.31273C7.52897 4.17966 7.29467 4.10369 7.05295 4.09287C6.81122 4.08204 6.57106 4.13676 6.35788 4.25123C6.1447 4.36569 5.96643 4.53565 5.84191 4.74312C5.7174 4.9506 5.65129 5.18786 5.65057 5.42982C5.65057 5.64135 5.56653 5.84421 5.41696 5.99378C5.26739 6.14335 5.06453 6.22738 4.853 6.22738C4.64148 6.22738 4.43862 6.14335 4.28905 5.99378C4.13948 5.84421 4.05545 5.64135 4.05545 5.42982C4.05468 4.9468 4.17319 4.47107 4.40045 4.04484C4.62771 3.61861 4.95668 3.25507 5.35818 2.98653C5.75967 2.71798 6.22125 2.55272 6.70196 2.50541C7.18266 2.4581 7.66762 2.53021 8.11376 2.71534C8.55991 2.90046 8.95344 3.19287 9.25943 3.56661C9.56542 3.94036 9.77439 4.38387 9.86781 4.85778C9.96122 5.33169 9.93618 5.82134 9.79491 6.28325C9.65364 6.74516 9.4005 7.16503 9.05798 7.50562C8.80832 7.76853 8.50794 7.97807 8.17498 8.12158Z" fill="white"/>
</svg>
