<svg width="17" height="17" viewBox="0 0 17 17" fill="none" xmlns="http://www.w3.org/2000/svg">
<path d="M2.03127 0.539794L2.74932 1.25784L2.03127 1.97588L1.31323 1.25784C1.26473 1.21099 1.22604 1.15496 1.19943 1.093C1.17282 1.03105 1.15881 0.964414 1.15822 0.896987C1.15764 0.829561 1.17048 0.762693 1.19602 0.700285C1.22155 0.637877 1.25926 0.581179 1.30694 0.5335C1.35462 0.48582 1.41131 0.448113 1.47372 0.42258C1.53613 0.397047 1.603 0.384199 1.67042 0.384785C1.73785 0.385371 1.80449 0.399379 1.86644 0.425993C1.9284 0.452607 1.98443 0.491293 2.03127 0.539794ZM14.2928 0.539794C14.3881 0.444508 14.5172 0.39095 14.6519 0.390903C14.7866 0.390855 14.9158 0.444322 15.0111 0.53954C15.1064 0.634758 15.16 0.763928 15.16 0.898635C15.1601 1.03334 15.1066 1.16255 15.0114 1.25784L14.2928 1.97588L13.5748 1.25784L14.2928 0.539794Z" fill="#F6365C"/>
<path d="M1.74115 0.717672C2.52622 0.0590441 4.06438 -0.463492 4.99163 0.641501C5.91889 1.74649 5.42683 2.92817 4.3523 3.82953C3.27829 4.73089 2.02908 5.01069 1.10182 3.9057C0.174558 2.80071 0.956076 1.3763 1.74115 0.717672ZM14.5085 0.717672C15.2936 1.3763 16.0751 2.80071 15.1483 3.9057C14.2206 5.01069 12.9713 4.73089 11.8973 3.82953C10.8228 2.92817 10.3307 1.74649 11.2575 0.641501C12.1853 -0.463492 13.7234 0.0590441 14.5085 0.717672Z" fill="#FFE768"/>
<path d="M4.54852 0.255957L4.5861 0.278808C4.73032 0.372753 4.86692 0.492088 4.99235 0.641384C5.9191 1.74638 5.42703 2.92805 4.35251 3.82941C3.27849 4.73077 2.02928 5.01057 1.10202 3.90558C0.817709 3.57689 0.667593 3.1532 0.681558 2.71883C0.87351 2.24504 1.18683 1.76872 1.61085 1.34521C2.52998 0.426073 3.69845 0.0249035 4.54852 0.255957ZM14.6392 1.34521C15.0627 1.76821 15.376 2.24403 15.5685 2.71781C15.5827 3.15252 15.4325 3.57661 15.148 3.90558C14.2208 5.01057 12.9716 4.73077 11.8975 3.82941C10.823 2.92805 10.3309 1.74638 11.2577 0.641384C11.3943 0.478885 11.5436 0.351933 11.7015 0.255449C12.5511 0.0243957 13.7201 0.425565 14.6392 1.34521Z" fill="#FFC32A"/>
<path d="M4.84716 0.486302L4.91572 0.555872C4.94111 0.583294 4.9665 0.611731 4.99189 0.6422C5.29759 1.0063 5.44892 1.37852 5.47634 1.74719C5.26814 2.29563 4.78724 2.938 4.11693 3.50015C3.39889 4.10292 2.62905 4.47514 2.03339 4.55385C1.7023 4.45432 1.38695 4.24561 1.10207 3.90589C1.07089 3.86874 1.04108 3.83046 1.0127 3.79112C1.05078 3.17058 1.60429 2.2941 2.48483 1.55524C3.3212 0.853448 4.22865 0.463451 4.84716 0.486302ZM13.7653 1.55524C14.6458 2.2941 15.1988 3.17007 15.238 3.79112C15.2094 3.83049 15.1795 3.86877 15.1481 3.90589C14.8637 4.24561 14.5478 4.45432 14.2162 4.55436C13.6216 4.47514 12.8512 4.10241 12.1332 3.50015C11.4629 2.938 10.9825 2.29563 10.7738 1.74719C10.8012 1.37903 10.9525 1.00579 11.2583 0.641692C11.305 0.585833 11.3537 0.534036 11.4035 0.486302C12.022 0.463959 12.9289 0.853448 13.7653 1.55524Z" fill="#FFA825"/>
<path d="M0 8.36713C-2.2485e-08 9.43412 0.210158 10.4907 0.618475 11.4764C1.02679 12.4622 1.62527 13.3579 2.37974 14.1123C3.13421 14.8668 4.0299 15.4653 5.01566 15.8736C6.00143 16.2819 7.05796 16.4921 8.12495 16.4921C9.19193 16.4921 10.2485 16.2819 11.2342 15.8736C12.22 15.4653 13.1157 14.8668 13.8702 14.1123C14.6246 13.3579 15.2231 12.4622 15.6314 11.4764C16.0397 10.4907 16.2499 9.43412 16.2499 8.36713C16.2499 7.30015 16.0397 6.24362 15.6314 5.25785C15.2231 4.27209 14.6246 3.3764 13.8702 2.62193C13.1157 1.86746 12.22 1.26898 11.2342 0.860662C10.2485 0.452345 9.19193 0.242188 8.12495 0.242188C7.05796 0.242188 6.00143 0.452345 5.01566 0.860662C4.0299 1.26898 3.13421 1.86746 2.37974 2.62193C1.62527 3.3764 1.02679 4.27209 0.618475 5.25785C0.210158 6.24362 -1.58993e-08 7.30015 0 8.36713Z" fill="#FFC42D"/>
<path d="M8.1251 0.242188C11.9377 0.242188 15.1369 2.86807 16.0129 6.41004L8.1251 8.87494L0.237305 6.41004C1.11328 2.86807 4.31247 0.242188 8.1251 0.242188Z" fill="#FFB468"/>
<path d="M11.6793 8.36719L15.3665 12.0549C14.0229 14.6884 11.2843 16.4921 8.12468 16.4921C4.96509 16.4921 2.22648 14.6884 0.882812 12.0549L4.57001 8.36719H11.6793Z" fill="#FFAF13"/>
<path d="M8.63314 8.36719L11.8039 15.6136C10.6643 16.193 9.4037 16.494 8.12533 16.4921C6.80147 16.4921 5.55124 16.1753 4.44727 15.6136L7.61752 8.36719H8.63314Z" fill="#FF9D2B"/>
<path d="M0.507812 7.85932C0.507812 9.87951 1.31033 11.817 2.73882 13.2455C4.16731 14.6739 6.10476 15.4765 8.12495 15.4765C10.1451 15.4765 12.0826 14.6739 13.5111 13.2455C14.9396 11.817 15.7421 9.87951 15.7421 7.85932C15.7421 5.83913 14.9396 3.90168 13.5111 2.47319C12.0826 1.0447 10.1451 0.242188 8.12495 0.242188C6.10476 0.242188 4.16731 1.0447 2.73882 2.47319C1.31033 3.90168 0.507813 5.83913 0.507812 7.85932Z" fill="#FFDF39"/>
<path d="M8.12495 0.115234C3.84818 0.115234 0.380859 3.58255 0.380859 7.85932C0.380859 12.1361 3.84818 15.6034 8.12495 15.6034C12.4017 15.6034 15.869 12.1361 15.869 7.85932C15.869 3.58255 12.4017 0.115234 8.12495 0.115234ZM8.12495 0.369139C12.2616 0.369139 15.6151 3.72271 15.6151 7.85932C15.6151 11.9959 12.2616 15.3495 8.12495 15.3495C3.98833 15.3495 0.634764 11.9959 0.634764 7.85932C0.634764 3.72271 3.98833 0.369139 8.12495 0.369139Z" fill="#FFE686"/>
<path d="M2.03125 7.85933C2.03125 9.47548 2.67326 11.0254 3.81606 12.1682C4.95885 13.311 6.50881 13.953 8.12496 13.953C9.74111 13.953 11.2911 13.311 12.4339 12.1682C13.5767 11.0254 14.2187 9.47548 14.2187 7.85933C14.2187 6.24318 13.5767 4.69322 12.4339 3.55043C11.2911 2.40764 9.74111 1.76563 8.12496 1.76562C6.50881 1.76563 4.95885 2.40764 3.81606 3.55043C2.67326 4.69322 2.03125 6.24318 2.03125 7.85933Z" fill="#FA7800"/>
<path d="M8.12496 1.51172C4.61904 1.51172 1.77734 4.35342 1.77734 7.85933C1.77734 11.3652 4.61904 14.2069 8.12496 14.2069C11.6309 14.2069 14.4726 11.3652 14.4726 7.85933C14.4726 4.35342 11.6309 1.51172 8.12496 1.51172ZM8.12496 1.76562C11.4902 1.76562 14.2187 4.49408 14.2187 7.85933C14.2187 11.2246 11.4902 13.953 8.12496 13.953C4.75971 13.953 2.03125 11.2246 2.03125 7.85933C2.03125 4.49408 4.75971 1.76562 8.12496 1.76562Z" fill="#FFD671"/>
<path d="M2.53906 8.36715C2.53906 9.1007 2.68355 9.82707 2.96426 10.5048C3.24498 11.1825 3.65644 11.7983 4.17513 12.317C4.69383 12.8357 5.30962 13.2471 5.98733 13.5278C6.66504 13.8086 7.39141 13.953 8.12496 13.953C8.85851 13.953 9.58488 13.8086 10.2626 13.5278C10.9403 13.2471 11.5561 12.8357 12.0748 12.317C12.5935 11.7983 13.0049 11.1825 13.2857 10.5048C13.5664 9.82707 13.7109 9.1007 13.7109 8.36715C13.7109 6.88568 13.1223 5.46488 12.0748 4.41732C11.0272 3.36976 9.60643 2.78125 8.12496 2.78125C6.64349 2.78125 5.22269 3.36976 4.17513 4.41732C3.12758 5.46488 2.53906 6.88568 2.53906 8.36715Z" fill="#FFEC8B"/>
<path d="M13.688 7.85938C13.7032 8.02695 13.7109 8.19605 13.7109 8.36718C13.7109 11.4521 11.2099 13.9531 8.12496 13.9531C5.04002 13.9531 2.53906 11.4521 2.53906 8.36718C2.53906 8.19605 2.54668 8.02695 2.56191 7.85938C2.81836 10.7067 5.21115 12.9375 8.12496 12.9375C11.0144 12.9375 13.3909 10.7437 13.6809 7.93148L13.688 7.85938Z" fill="#FFB801"/>
<path d="M8.12516 2.78125C10.8099 2.78125 13.0519 4.67538 13.5892 7.1997C12.9844 6.30732 12.1701 5.5768 11.2175 5.0721C10.2649 4.5674 9.20317 4.3039 8.12516 4.30468C5.85322 4.30468 3.84941 5.45233 2.66113 7.1997C3.1989 4.67538 5.44088 2.78125 8.12516 2.78125Z" fill="#FFB801"/>
<path d="M8.12497 8.36649C8.12498 8.39947 8.11838 8.43211 8.10557 8.46249C8.09276 8.49287 8.07398 8.52037 8.05036 8.54338C8.02674 8.56639 7.99875 8.58442 7.96804 8.59643C7.93733 8.60844 7.90453 8.61417 7.87157 8.61329L3.30078 8.49446C3.26711 8.49446 3.23482 8.48109 3.21101 8.45728C3.1872 8.43347 3.17383 8.40118 3.17383 8.36751C3.17383 8.33384 3.1872 8.30155 3.21101 8.27774C3.23482 8.25393 3.26711 8.24056 3.30078 8.24056L7.87157 8.12021C7.90453 8.11932 7.93733 8.12506 7.96804 8.13706C7.99875 8.14907 8.02674 8.16711 8.05036 8.19011C8.07398 8.21312 8.09276 8.24063 8.10557 8.27101C8.11838 8.30139 8.12498 8.33403 8.12497 8.367V8.36649Z" fill="#FF9B25"/>
<path d="M8.125 5.32031C8.46354 5.32031 8.63281 5.48958 8.63281 5.82812V8.36717C8.63281 8.70571 8.46354 8.87498 8.125 8.87498C7.78646 8.87498 7.61719 8.70571 7.61719 8.36717V5.82812C7.61719 5.48958 7.78646 5.32031 8.125 5.32031Z" fill="#FF8A00"/>
<path d="M12.0829 10.658C12.0154 10.7745 11.9045 10.8595 11.7744 10.8943C11.6443 10.929 11.5058 10.9107 11.3892 10.8433L7.87111 8.8121C7.75543 8.74428 7.67126 8.63346 7.63699 8.50382C7.60271 8.37418 7.62111 8.23624 7.68816 8.12011C7.7552 8.00398 7.86547 7.91909 7.99488 7.88395C8.12429 7.84882 8.26235 7.8663 8.37892 7.93258L11.897 9.96381C12.0136 10.0312 12.0988 10.1421 12.1336 10.2722C12.1685 10.4022 12.1502 10.5408 12.0829 10.6575V10.658Z" fill="#F87700"/>
<path d="M12.2466 6.5751C12.2979 6.73963 12.3396 6.90721 12.3705 7.07783C12.3827 7.1441 12.368 7.21246 12.3297 7.26789C12.2914 7.32331 12.2327 7.36126 12.1664 7.37338C12.1001 7.3855 12.0318 7.3708 11.9764 7.33252C11.9209 7.29424 11.883 7.2355 11.8709 7.16924C11.8436 7.01958 11.8073 6.87171 11.7622 6.72643C11.751 6.69428 11.7463 6.66021 11.7486 6.62624C11.7508 6.59227 11.7598 6.55909 11.7751 6.52867C11.7904 6.49826 11.8117 6.47124 11.8376 6.44921C11.8636 6.42718 11.8937 6.4106 11.9262 6.40045C11.9587 6.3903 11.9929 6.38678 12.0268 6.39012C12.0607 6.39346 12.0936 6.40357 12.1234 6.41987C12.1533 6.43616 12.1796 6.4583 12.2008 6.48497C12.222 6.51164 12.2376 6.54229 12.2466 6.5751ZM8.12475 3.54298C8.15809 3.54298 8.19111 3.54954 8.22191 3.5623C8.25272 3.57506 8.28071 3.59377 8.30429 3.61734C8.32786 3.64092 8.34657 3.66891 8.35933 3.69972C8.37209 3.73052 8.37865 3.76354 8.37865 3.79688C8.37865 3.83022 8.37209 3.86324 8.35933 3.89405C8.34657 3.92485 8.32786 3.95284 8.30429 3.97642C8.28071 4 8.25272 4.0187 8.22191 4.03146C8.19111 4.04422 8.15809 4.05078 8.12475 4.05078C7.88641 4.05083 7.64859 4.07293 7.41432 4.1168C6.93438 4.20723 6.47652 4.38986 6.06609 4.65457C5.42227 5.06948 4.91762 5.66788 4.61731 6.37249C4.6052 6.40444 4.58677 6.43362 4.56311 6.45828C4.53946 6.48294 4.51107 6.50257 4.47965 6.516C4.44823 6.52943 4.41442 6.53637 4.38025 6.53642C4.34607 6.53647 4.31225 6.52962 4.28078 6.51629C4.24932 6.50295 4.22088 6.4834 4.19715 6.45881C4.17343 6.43422 4.15491 6.40509 4.14271 6.37317C4.13051 6.34125 4.12488 6.3072 4.12615 6.27305C4.12743 6.2389 4.13558 6.20536 4.15013 6.17444C4.38178 5.63106 4.72197 5.14071 5.14984 4.73345C5.57771 4.32619 6.08424 4.0106 6.63839 3.80602C7.11438 3.6311 7.61764 3.54203 8.12475 3.54298ZM11.1097 4.74141C11.4008 5.02012 11.6517 5.33801 11.8551 5.68593C11.8891 5.74411 11.8986 5.81342 11.8815 5.87861C11.8644 5.94379 11.8221 5.99952 11.764 6.03353C11.7058 6.06753 11.6365 6.07703 11.5713 6.05994C11.5061 6.04284 11.4504 6.00056 11.4164 5.94237C11.2371 5.63497 11.0158 5.35414 10.7588 5.10804C10.7129 5.06091 10.687 4.9978 10.6867 4.932C10.6865 4.86621 10.7117 4.80287 10.7572 4.75534C10.8027 4.7078 10.8649 4.67979 10.9306 4.67719C10.9964 4.67459 11.0605 4.69761 11.1097 4.74141ZM9.12513 3.66333L9.17033 3.67044C9.58462 3.77342 9.9812 3.93773 10.3469 4.15793C10.4046 4.19268 10.4462 4.24893 10.4624 4.31431C10.4786 4.37968 10.4683 4.44883 10.4335 4.50654C10.3988 4.56425 10.3425 4.6058 10.2771 4.62203C10.2118 4.63827 10.1426 4.62787 10.0849 4.59312C9.76241 4.3994 9.41295 4.25462 9.04795 4.16352C8.98987 4.14943 8.93862 4.11531 8.90322 4.06716C8.86783 4.019 8.85055 3.95991 8.85443 3.90027C8.85831 3.84064 8.88311 3.78428 8.92445 3.74113C8.96579 3.69797 9.02103 3.67078 9.08045 3.66434L9.12513 3.66333Z" fill="#FFE3B6"/>
<path d="M3.04733 13.9531C3.24436 14.1293 3.47694 14.3071 3.74608 14.4863C4.01522 14.6656 4.28994 14.8266 4.57076 14.9687L2.71929 16.8202C2.66236 16.8772 2.59476 16.9224 2.52034 16.9533C2.44593 16.9841 2.36617 17 2.28562 17C2.25662 17 2.22803 16.9932 2.20221 16.98C2.17638 16.9668 2.15407 16.9476 2.1371 16.9241C2.12013 16.9006 2.109 16.8734 2.10463 16.8447C2.10026 16.8161 2.10276 16.7868 2.11195 16.7593L3.04733 13.9531ZM13.2035 13.9531L14.1389 16.7593C14.1481 16.7868 14.1506 16.8161 14.1462 16.8447C14.1418 16.8734 14.1307 16.9006 14.1137 16.9241C14.0968 16.9476 14.0745 16.9668 14.0486 16.98C14.0228 16.9932 13.9942 17 13.9652 17C13.8027 17 13.6468 16.9355 13.5316 16.8202L11.6801 14.9687C12.224 14.6878 12.735 14.3472 13.2035 13.9531Z" fill="#F87700"/>
<path d="M3.74515 14.4861C4.01429 14.6653 4.28901 14.8263 4.56983 14.9685L2.71836 16.8199C2.6559 16.8824 2.58125 16.9301 2.5 16.9606L3.63241 14.4099L3.74515 14.4861ZM12.6135 14.4043L13.7495 16.9606C13.6892 16.9381 13.6328 16.9062 13.5824 16.8662L13.5306 16.8205L11.6792 14.9685C11.9528 14.8272 12.2183 14.6707 12.4744 14.4998L12.6135 14.4043Z" fill="#F34F08"/>
<path d="M8.125 8.11328C8.09165 8.11328 8.05864 8.11985 8.02783 8.13261C7.99703 8.14537 7.96904 8.16407 7.94546 8.18765C7.92188 8.21122 7.90318 8.23922 7.89042 8.27002C7.87766 8.30083 7.87109 8.33384 7.87109 8.36719C7.87109 8.40053 7.87766 8.43355 7.89042 8.46435C7.90318 8.49516 7.92188 8.52315 7.94546 8.54672C7.96904 8.5703 7.99703 8.589 8.02783 8.60176C8.05864 8.61452 8.09165 8.62109 8.125 8.62109C8.19234 8.62109 8.25692 8.59434 8.30454 8.54672C8.35215 8.49911 8.3789 8.43453 8.3789 8.36719C8.3789 8.29985 8.35215 8.23526 8.30454 8.18765C8.25692 8.14003 8.19234 8.11328 8.125 8.11328Z" fill="#FFC32A"/>
</svg>
