<svg width="20" height="20" viewBox="0 0 20 20" fill="none" xmlns="http://www.w3.org/2000/svg">
<path d="M5.08789 3.77148C5.54653 3.77148 5.95508 4.17675 5.95508 4.68262C5.955 5.18788 5.59737 5.59277 5.08789 5.59277H5.03711C3.40565 5.69353 2.08045 6.30128 2.33496 9.08301V13.4834C2.33496 15.4553 2.28434 17.0234 5.90332 17.0234H13.04C16.5572 17.0234 16.6094 15.5566 16.6094 13.6855V12.623C16.6094 12.1172 16.9657 11.713 17.4746 11.7129C17.9338 11.7129 18.3418 12.1172 18.3418 12.623V15.2529C18.3418 17.2254 16.7617 18.7939 14.7734 18.7939H4.06836C2.08059 18.7939 0.5 17.226 0.5 15.2529V7.3125C0.500015 5.33944 2.0806 3.77148 4.06836 3.77148H5.08789ZM14.5156 2C14.6361 2 14.7368 2.04054 14.8271 2.13086L18.3799 5.68359C18.4598 5.77374 18.4999 5.88381 18.5 6.00391C18.5 6.12434 18.4595 6.22511 18.3691 6.31543L14.8164 9.86816C14.7262 9.95831 14.6261 9.99899 14.5059 9.99902C14.3854 9.99902 14.2847 9.95849 14.1943 9.86816C14.1041 9.77787 14.0645 9.67702 14.0645 9.55664V7.78027H12.5088C12.0572 7.78027 11.6452 7.80122 11.2939 7.82129C10.9328 7.85139 10.5818 7.90148 10.2207 7.97168C9.86945 8.04193 9.55781 8.14226 9.29688 8.2627C9.03604 8.39314 8.7952 8.55353 8.56445 8.74414C8.34377 8.94476 8.15318 9.17549 8.0127 9.44629C7.87219 9.71726 7.76122 10.0388 7.6709 10.4102C7.59063 10.7815 7.55078 11.2034 7.55078 11.665C7.55079 11.9158 7.561 12.2067 7.58105 12.5176C7.58105 12.5477 7.59055 12.5984 7.60059 12.6787C7.61056 12.7585 7.62101 12.8183 7.62109 12.8584C7.62109 12.9286 7.60069 12.9892 7.56055 13.0293C7.52043 13.0794 7.47056 13.0996 7.40039 13.0996C7.33023 13.0996 7.26013 13.0596 7.20996 12.9795C7.17989 12.9394 7.14921 12.8892 7.11914 12.8291C7.08906 12.7689 7.05937 12.6983 7.0293 12.6182C6.99919 12.5379 6.96902 12.4874 6.95898 12.4473C6.36692 11.1327 6.07525 10.0892 6.0752 9.31641C6.0752 8.3931 6.19637 7.62 6.44727 7.00781C7.20004 5.1413 9.22693 4.20801 12.5186 4.20801H14.0742V2.44141C14.0743 2.32105 14.1148 2.22114 14.2051 2.13086C14.2954 2.04059 14.3953 2.00002 14.5156 2Z" fill="#808994"/>
</svg>
