<svg width="356" height="13" viewBox="0 0 356 13" fill="none" xmlns="http://www.w3.org/2000/svg">
<mask id="mask0_1_4192" style="mask-type:luminance" maskUnits="userSpaceOnUse" x="0" y="0" width="356" height="13">
<path fill-rule="evenodd" clip-rule="evenodd" d="M0 0H356V13H0V0Z" fill="white"/>
</mask>
<g mask="url(#mask0_1_4192)">
<path fill-rule="evenodd" clip-rule="evenodd" d="M352.22 11.22C352.72 10.72 353 10.04 353 9.33V2.67C353 1.96 352.72 1.28 352.22 0.78C351.72 0.28 351.04 0 350.33 0H332.67C331.96 0 331.28 0.28 330.78 0.78C330.28 1.28 330 1.96 330 2.67V9.33C330 10.04 330.28 10.72 330.78 11.22C331.28 11.72 331.96 12 332.67 12H350.33C351.04 12 351.72 11.72 352.22 11.22Z" stroke="white" stroke-width="0.8"/>
<path opacity="0.4" fill-rule="evenodd" clip-rule="evenodd" d="M355 7C355.61 6.75 356 6.15 356 5.5C356 4.85 355.61 4.25 355 4V7Z" fill="white"/>
<path fill-rule="evenodd" clip-rule="evenodd" d="M343.67 10C344.4 10 345 9.4 345 8.67V3.33C345 2.6 344.4 2 343.67 2H333.33C332.6 2 332 2.6 332 3.33V8.67C332 9.4 332.6 10 333.33 10H343.67Z" fill="white"/>
<path d="M312.411 9.89068C313.751 8.7609 315.711 8.76104 317.041 9.89068C317.111 9.95068 317.151 10.0311 317.151 10.1211C317.161 10.2111 317.122 10.3014 317.052 10.3614L314.961 12.4708C314.901 12.5407 314.811 12.5713 314.731 12.5713C314.641 12.5713 314.561 12.5408 314.491 12.4708L312.401 10.3614C312.331 10.3014 312.302 10.2111 312.302 10.1211C312.302 10.0311 312.341 9.95068 312.411 9.89068ZM309.61 7.07622C312.5 4.39622 316.961 4.39622 319.841 7.07622C319.911 7.13611 319.951 7.21579 319.951 7.31548C319.951 7.40545 319.911 7.48573 319.851 7.55572L318.641 8.77642C318.511 8.8961 318.311 8.89615 318.181 8.77642C317.241 7.92642 316 7.44634 314.73 7.44634C313.451 7.4464 312.22 7.92647 311.271 8.77642C311.15 8.89607 310.94 8.89628 310.82 8.77642L309.61 7.55572C309.541 7.48579 309.511 7.40535 309.511 7.31548C309.511 7.21588 309.551 7.13609 309.61 7.07622ZM306.816 4.26372C311.236 0.0337803 318.217 0.0338935 322.637 4.26372C322.697 4.32371 322.736 4.41397 322.736 4.50396C322.736 4.59396 322.707 4.67419 322.637 4.74419L321.427 5.96392C321.307 6.08392 321.097 6.08392 320.977 5.96392C319.287 4.36402 317.056 3.47368 314.727 3.47368C312.407 3.47374 310.166 4.36397 308.486 5.96392C308.356 6.08372 308.156 6.08385 308.026 5.96392L306.816 4.74419C306.746 4.67422 306.717 4.59392 306.717 4.50396C306.717 4.414 306.756 4.32371 306.816 4.26372Z" fill="white"/>
<path d="M289.67 5.96094C290.25 5.96094 290.71 6.43098 290.71 7.00098V11.1709C290.71 11.7509 290.25 12.2207 289.67 12.2207H288.62C288.05 12.2206 287.58 11.7509 287.58 11.1709V7.00098C287.58 6.43101 288.05 5.961 288.62 5.96094H289.67ZM294.546 3.52734C295.126 3.52734 295.586 3.99738 295.586 4.56738V11.1777C295.586 11.7475 295.126 12.2178 294.546 12.2178H293.496C292.926 12.2176 292.456 11.7475 292.456 11.1777V4.56738C292.456 3.99747 292.926 3.52749 293.496 3.52734H294.546ZM284.794 8.04688C285.374 8.04688 285.834 8.51691 285.834 9.08691V11.1768C285.834 11.7468 285.374 12.2168 284.794 12.2168H283.744C283.174 12.2168 282.704 11.7468 282.704 11.1768V9.08691C282.704 8.51691 283.174 8.04688 283.744 8.04688H284.794ZM299.423 1.09375C300.003 1.09394 300.463 1.5639 300.463 2.13379V11.1738C300.463 11.7537 300.003 12.2137 299.423 12.2139H298.372C297.802 12.2136 297.332 11.7536 297.332 11.1738V2.13379C297.332 1.56393 297.802 1.09399 298.372 1.09375H299.423Z" fill="white"/>
<path d="M12.2695 0C14.1795 0 15.0801 1.20996 15.0801 1.20996C15.9742 2.4022 16.0093 4.89745 16.0098 4.92969V6.86035C16.0097 9.47011 15.1104 10.7305 15.1104 10.7305C14.2126 11.997 12.3 12 12.29 12C10.4 12 9.49023 10.7598 9.49023 10.7598C8.58026 9.51975 8.5498 7.05957 8.5498 7.05957V5.08008C8.5498 2.50008 9.4502 1.25 9.4502 1.25C10.3421 0.0113971 12.2354 0.000101317 12.2695 0ZM4.53027 11.8398H3.03027V1.9502L0 3.0498V1.7002L4.2998 0.0996094H4.53027V11.8398ZM27.71 7.91992H29.3496V9.12988H27.71V11.8398H26.2002V9.12988H20.8301V8.25L26.1104 0.160156H27.71V7.91992ZM38 0.990234L33.1104 11.8398H31.5303L36.4102 1.37988H30.0195V0.160156H38V0.990234ZM12.2695 1.21973C11.1199 1.21996 10.5996 2.08008 10.5996 2.08008C10.0735 2.93403 10.0501 4.69464 10.0498 4.71973V7.08984C10.0498 8.96843 10.6037 9.87873 10.6104 9.88965C11.1604 10.7896 12.29 10.79 12.29 10.79C13.3927 10.79 13.9334 9.95147 13.9404 9.94043C14.4804 9.09043 14.5098 7.25977 14.5098 7.25977V4.83008C14.5098 2.94008 13.9697 2.08008 13.9697 2.08008C13.4297 1.22015 12.2695 1.21973 12.2695 1.21973ZM26.0303 2.50977L22.5303 7.91992H26.2002V2.19043L26.0303 2.50977Z" fill="white"/>
<path d="M17.9902 8.59961C18.4756 8.59968 18.7355 8.80576 18.7402 8.80957C18.9848 9.00519 18.9901 9.29691 18.9902 9.30957C18.9902 9.60415 18.7489 9.79309 18.7402 9.7998C18.4835 9.99727 18.0024 9.99997 17.9902 10C17.4902 10 17.25 9.7998 17.25 9.7998C17.0001 9.6098 17 9.30957 17 9.30957C17.0002 9.00981 17.25 8.80957 17.25 8.80957C17.4901 8.59976 17.9902 8.59961 17.9902 8.59961ZM18 3C18.49 3 18.7402 3.2002 18.7402 3.2002C18.9983 3.4088 19 3.70605 19 3.70996C19 3.99758 18.7444 4.19695 18.7402 4.2002C18.4902 4.4002 18 4.40039 18 4.40039C17.5 4.40039 17.2598 4.2002 17.2598 4.2002C17.0098 4.0002 17.0098 3.70996 17.0098 3.70996C17.0098 3.4153 17.2512 3.20747 17.2598 3.2002C17.4997 3.00021 17.9999 3 18 3Z" fill="white"/>
</g>
</svg>
