<svg width="15" height="15" viewBox="0 0 15 15" fill="none" xmlns="http://www.w3.org/2000/svg">
<g clip-path="url(#clip0_1_39893)">
<mask id="mask0_1_39893" style="mask-type:luminance" maskUnits="userSpaceOnUse" x="0" y="-1" width="16" height="17">
<path d="M15.0063 -0.0126953H0V15.0252H15.0063V-0.0126953Z" fill="white"/>
</mask>
<g mask="url(#mask0_1_39893)">
<path d="M4.09171 3.00884C5.06588 3.77914 6.25942 4.22085 7.50074 4.27041C8.75449 4.21569 9.96078 3.77505 10.9542 3.00884C10.9542 3.00884 12.6398 1.52659 11.7559 0.883187C10.8721 0.23979 9.62834 1.08493 9.62834 1.08493C9.0699 0.483267 8.31602 0.0988763 7.50074 0C6.69666 0.0942153 5.95536 0.480307 5.41753 1.08493C5.41753 1.08493 4.15483 0.246097 3.28993 0.883187C2.42503 1.52028 4.09171 3.00884 4.09171 3.00884Z" fill="white"/>
<path d="M14.6092 11.2721C14.6092 11.2721 15.1708 9.63202 13.8829 6.98273C12.5193 4.2136 10.6761 4.17578 10.6761 4.17578C9.70974 4.71238 8.62505 5.00056 7.51956 5.01462C6.41243 5.01269 5.32476 4.72371 4.36299 4.17578C4.36299 4.17578 2.4688 4.17579 1.11148 7.02062C-0.151146 9.5879 0.392006 11.3161 0.392006 11.3161C0.392006 11.3161 -2.5436 15.0063 7.49428 15.0063C17.5322 15.0063 14.6027 11.2721 14.6027 11.2721H14.6092ZM7.46253 12.6535C6.91327 12.6472 6.3783 12.4789 5.92463 12.1694C5.47096 11.86 5.11881 11.4233 4.91292 10.9145C4.70703 10.4057 4.65646 9.84748 4.76743 9.30997C4.87839 8.77246 5.14594 8.27968 5.53653 7.89379C5.92712 7.50791 6.42335 7.24615 6.96253 7.14135C7.50171 7.03655 8.05982 7.09346 8.56671 7.3049C9.0736 7.51634 9.5066 7.87286 9.81115 8.32961C10.1157 8.78636 10.2781 9.32294 10.2782 9.87176C10.2682 10.6119 9.96741 11.3184 9.44062 11.8388C8.91384 12.3592 8.20335 12.6519 7.46253 12.6535Z" fill="white"/>
</g>
</g>
<defs>
<clipPath id="clip0_1_39893">
<rect width="15" height="15" fill="white"/>
</clipPath>
</defs>
</svg>
