<svg width="34" height="34" viewBox="0 0 34 34" fill="none" xmlns="http://www.w3.org/2000/svg">
<rect width="34" height="34" rx="8" fill="#3C5A9B"/>
<path fill-rule="evenodd" clip-rule="evenodd" d="M19.35 9.26096L19.3429 9.26103H19.3356C18.7422 9.26103 18.2459 9.75552 18.2459 10.3507V28.7787H14.9342V10.3507C14.9342 7.92198 16.9165 5.95277 19.3293 5.94937L19.3383 5.94932L19.3768 5.94922C19.4089 5.9492 19.4539 5.94932 19.5089 5.94984C19.6181 5.95089 19.7698 5.95356 19.9399 5.96019C20.2368 5.97177 20.7387 5.99959 21.1465 6.09426L21.1636 6.09822L21.1805 6.10254C21.5265 6.1906 22.1575 6.42527 22.5928 6.59034C22.8347 6.68207 23.0607 6.76966 23.2259 6.83417C23.3086 6.86648 23.3765 6.89315 23.4239 6.91182L23.4989 6.94146L22.2777 10.0197L22.2097 9.99287C22.1651 9.97528 22.1005 9.94989 22.0213 9.91898C21.8627 9.85705 21.6473 9.77358 21.4185 9.68681C21.1885 9.59959 20.9511 9.51135 20.7468 9.43896C20.6447 9.40275 20.5561 9.37237 20.484 9.34889C20.4482 9.33722 20.4193 9.32817 20.397 9.32146C20.3914 9.3198 20.3866 9.31839 20.3826 9.31719" fill="white"/>
<path fill-rule="evenodd" clip-rule="evenodd" d="M21.8968 13.8631H11.0508V17.1696H21.4293L21.8968 13.8631Z" fill="white"/>
</svg>
