<svg width="28" height="32" viewBox="0 0 28 32" fill="none" xmlns="http://www.w3.org/2000/svg">
<path d="M26.1945 18.967C21.9355 11.1796 24.6833 8.68477 24.7118 8.65626C24.7582 8.61705 24.7653 8.5529 24.7297 8.503C24.6905 8.45667 24.6156 8.43529 24.5515 8.46023C24.4909 8.48162 18.5639 10.5666 19.3088 15.1855C17.68 13.9524 10.0886 7.62269 14.7361 0.181006C14.7646 0.134674 14.7575 0.0776495 14.7148 0.0420093C14.6755 0.00280499 14.6078 -0.0114512 14.5544 0.00993299C14.451 0.0455732 12.0845 0.900939 10.1956 3.06074C8.45276 5.04946 6.83113 8.56715 9.01587 14.013C9.81065 16.5755 8.31376 18.6533 7.50829 19.5337C7.70788 18.9242 7.9538 17.8942 7.91103 16.7145C7.84688 14.986 7.10912 12.5945 3.9514 11.0477C3.9015 11.0228 3.84091 11.0263 3.79458 11.0548C3.74468 11.0869 3.7233 11.1333 3.74112 11.1831C3.75181 11.2295 4.9315 15.7772 2.8608 17.8835C1.07166 19.7012 -0.681837 22.8625 0.266194 25.7885C1.06097 28.237 3.5451 30.1046 7.65085 31.3413C8.70224 31.6157 9.71086 31.8224 10.8228 31.9971C10.8941 32.0113 10.9654 31.9721 10.9903 31.9151C11.0117 31.8509 10.9761 31.7868 10.9084 31.7618C8.79491 30.992 6.62441 29.3846 8.23892 26.12C9.77858 23.308 9.50415 21.8574 9.19408 21.2337C9.98886 21.6115 11.5677 22.5952 11.1757 24.3201C11.165 24.37 11.1935 24.4235 11.2434 24.4484C11.2969 24.477 11.361 24.4734 11.4109 24.4378C11.4608 24.4057 16.2116 21.1054 14.0518 17.0638C15.1139 17.5841 17.9366 19.3947 16.2722 23.5503C15.7162 25.3395 17.2274 26.6225 17.2915 26.6795C17.3414 26.7187 17.4163 26.7294 17.4769 26.6938C17.5339 26.6653 17.5553 26.6011 17.5303 26.5477C17.4804 26.4372 16.3578 23.8782 18.7956 22.4633C18.6673 23.1191 18.4605 24.7443 19.3337 25.6317C20.1178 26.43 20.8769 27.738 20.6453 29.014C20.4849 29.9121 19.8541 30.6677 18.7706 31.2629C18.71 31.2985 18.6851 31.3627 18.7171 31.4197C18.7457 31.4767 18.8241 31.5017 18.8954 31.4838C21.5755 30.7354 25.0896 29.2492 26.6222 26.4158C27.752 24.3237 27.6094 21.8182 26.1945 18.967Z" fill="#FF1F00"/>
</svg>
