<svg width="50" height="50" viewBox="0 0 50 50" fill="none" xmlns="http://www.w3.org/2000/svg">
<g filter="url(#filter0_f_1_27924)">
<circle cx="25" cy="25" r="25" fill="#232B32"/>
</g>
<circle cx="25" cy="25" r="25" fill="#85D420"/>
<path d="M35.1561 29.4314H34.5366C34.2063 29.3661 33.9101 29.1907 33.6996 28.9357C33.489 28.6807 33.3774 28.3622 33.3842 28.0357L33.1681 21.0576C33.1926 19.0322 32.4324 17.0714 31.0376 15.5625C29.6427 14.0536 27.7146 13.1061 25.6339 12.9071V12.6141C25.6339 12.4512 25.5671 12.295 25.4482 12.1799C25.3293 12.0647 25.1681 12 25 12C24.8319 12 24.6707 12.0647 24.5518 12.1799C24.4329 12.295 24.3661 12.4512 24.3661 12.6141V12.9071C22.2854 13.1061 20.3573 14.0536 18.9624 15.5625C17.5676 17.0714 16.8074 19.0322 16.8319 21.0576L16.4574 28.0357C16.4864 28.3671 16.383 28.6967 16.1686 28.9564C15.9541 29.216 15.645 29.3861 15.3049 29.4314H14.8439C14.6292 29.3707 14.4029 29.3593 14.1829 29.3981C13.9628 29.4368 13.7551 29.5247 13.5762 29.6547C13.3973 29.7847 13.2521 29.9532 13.1521 30.147C13.0521 30.3408 13 30.5545 13 30.7712C13 30.9878 13.0521 31.2015 13.1521 31.3953C13.2521 31.5891 13.3973 31.7577 13.5762 31.8877C13.7551 32.0177 13.9628 32.1055 14.1829 32.1443C14.4029 32.1831 14.6292 32.1717 14.8439 32.111H35.1561C35.3708 32.1717 35.5971 32.1831 35.8171 32.1443C36.0372 32.1055 36.2449 32.0177 36.4238 31.8877C36.6027 31.7577 36.7479 31.5891 36.8479 31.3953C36.9479 31.2015 37 30.9878 37 30.7712C37 30.5545 36.9479 30.3408 36.8479 30.147C36.7479 29.9532 36.6027 29.7847 36.4238 29.6547C36.2449 29.5247 36.0372 29.4368 35.8171 29.3981C35.5971 29.3593 35.3708 29.3707 35.1561 29.4314Z" fill="white"/>
<path d="M22.5799 32.6554C22.5799 33.2772 22.8349 33.8736 23.2887 34.3133C23.7426 34.753 24.3582 35 25 35C25.6419 35 26.2575 34.753 26.7113 34.3133C27.1652 33.8736 27.4202 33.2772 27.4202 32.6554H22.5799Z" fill="white"/>
<circle cx="9" cy="9" r="9" fill="#F33636"/>
<defs>
<filter id="filter0_f_1_27924" x="-8" y="-8" width="66" height="66" filterUnits="userSpaceOnUse" color-interpolation-filters="sRGB">
<feFlood flood-opacity="0" result="BackgroundImageFix"/>
<feBlend mode="normal" in="SourceGraphic" in2="BackgroundImageFix" result="shape"/>
<feGaussianBlur stdDeviation="4" result="effect1_foregroundBlur_1_27924"/>
</filter>
</defs>
</svg>
