<svg width="24" height="25" viewBox="0 0 24 25" fill="none" xmlns="http://www.w3.org/2000/svg">
<path d="M12 0C5.38315 0 0 5.38315 0 12C0 18.6199 5.38315 24.003 12 24.003C18.6169 24.003 24 18.6199 24 12C24 5.38616 18.6169 0 12 0ZM10.3872 18.8275C10.2578 19.0321 9.95687 19.0291 9.83651 18.8185C9.0662 17.4764 6.64092 13.7151 3.05416 12.5838L4.63691 11.5547C6.15045 10.5707 8.19057 11.007 9.13541 12.5446C9.81845 13.655 10.1013 14.7593 10.1013 14.7593C10.1013 14.7593 13.7362 6.57472 18.7884 5.04012C18.7884 5.04012 17.2116 8.64192 19.5135 11.2417C19.5075 11.2417 14.2658 12.7011 10.3872 18.8275Z" fill="#85D420"/>
</svg>
