<svg width="21" height="22" viewBox="0 0 21 22" fill="none" xmlns="http://www.w3.org/2000/svg">
<g clip-path="url(#clip0_1_8180)">
<path d="M16.5788 1.01849C16.5716 0.743567 16.4563 0.482584 16.258 0.292017C16.0598 0.10145 15.7944 -0.00334401 15.5194 0.000369255C15.3827 -0.00328777 15.2467 0.0202499 15.1192 0.0696073C14.9917 0.118965 14.8753 0.193175 14.7767 0.287903C14.6782 0.38263 14.5994 0.495988 14.545 0.621412C14.4907 0.746837 14.4617 0.881797 14.46 1.01849V3.06855C14.4617 3.20525 14.4907 3.34021 14.545 3.46563C14.5994 3.59106 14.6782 3.70441 14.7767 3.79914C14.8753 3.89387 14.9917 3.96808 15.1192 4.01744C15.2467 4.06679 15.3827 4.09033 15.5194 4.08668C15.7944 4.09039 16.0598 3.98564 16.258 3.79507C16.4563 3.6045 16.5716 3.34348 16.5788 3.06855V1.01849Z" fill="#808994"/>
<path d="M11.2819 1.01849C11.2801 0.881797 11.2512 0.746837 11.1968 0.621412C11.1425 0.495988 11.0637 0.38263 10.9651 0.287903C10.8666 0.193175 10.7502 0.118965 10.6227 0.0696073C10.4952 0.0202499 10.3592 -0.00328777 10.2225 0.000369255C9.9475 -0.00334401 9.68212 0.10145 9.48382 0.292017C9.28553 0.482584 9.1703 0.743567 9.16309 1.01849V3.06855C9.1703 3.34348 9.28553 3.6045 9.48382 3.79507C9.68212 3.98564 9.9475 4.09039 10.2225 4.08668C10.3592 4.09033 10.4952 4.06679 10.6227 4.01744C10.7502 3.96808 10.8666 3.89387 10.9651 3.79914C11.0637 3.70441 11.1425 3.59106 11.1968 3.46563C11.2512 3.34021 11.2801 3.20525 11.2819 3.06855V1.01849Z" fill="#808994"/>
<path d="M5.99871 1.01849C5.9915 0.743567 5.87626 0.482584 5.67797 0.292017C5.47968 0.10145 5.21429 -0.00334401 4.9393 0.000369255C4.80264 -0.00328777 4.66662 0.0202499 4.53913 0.0696073C4.41164 0.118965 4.29524 0.193175 4.19667 0.287903C4.0981 0.38263 4.01934 0.495988 3.96496 0.621412C3.91057 0.746837 3.88166 0.881797 3.87988 1.01849V3.06855C3.88166 3.20525 3.91057 3.34021 3.96496 3.46563C4.01934 3.59106 4.0981 3.70441 4.19667 3.79914C4.29524 3.89387 4.41164 3.96808 4.53913 4.01744C4.66662 4.06679 4.80264 4.09033 4.9393 4.08668C5.21429 4.09039 5.47968 3.98564 5.67797 3.79507C5.87626 3.6045 5.9915 3.34348 5.99871 3.06855V1.01849Z" fill="#808994"/>
<path d="M18.4775 21.8215H19.3994C19.6744 21.8253 19.9397 21.7205 20.138 21.5299C20.3363 21.3393 20.4516 21.0783 20.4588 20.8034V19.7715C19.9566 20.5917 19.2802 21.2916 18.4775 21.8215Z" fill="#808994"/>
<path d="M8.59912 17.9827H3.81113C3.62451 17.9829 3.4398 17.9452 3.26822 17.8718C3.09665 17.7984 2.9418 17.6908 2.8131 17.5557C2.6844 17.4205 2.58453 17.2606 2.51958 17.0857C2.45463 16.9107 2.42594 16.7244 2.43527 16.538C2.42594 16.3516 2.45463 16.1653 2.51958 15.9903C2.58453 15.8154 2.6844 15.6555 2.8131 15.5203C2.9418 15.3852 3.09665 15.2776 3.26822 15.2042C3.4398 15.1308 3.62451 15.0931 3.81113 15.0933H8.53033C8.61404 14.6935 8.73377 14.3021 8.88805 13.9239H3.81113C3.44623 13.9239 3.09628 13.7789 2.83825 13.5209C2.58023 13.2629 2.43527 12.9129 2.43527 12.548C2.43527 12.1831 2.58023 11.8332 2.83825 11.5751C3.09628 11.3171 3.44623 11.1721 3.81113 11.1721H11.1857C12.1526 10.4857 13.2909 10.0809 14.474 10.0026H3.81113C3.44623 10.0026 3.09628 9.85771 2.83825 9.59969C2.58023 9.34166 2.43527 8.99168 2.43527 8.62678C2.42594 8.4404 2.45463 8.25408 2.51958 8.07913C2.58453 7.90419 2.6844 7.74426 2.8131 7.60912C2.9418 7.47398 3.09665 7.36644 3.26822 7.29304C3.4398 7.21963 3.62451 7.18191 3.81113 7.18215H15.0657C15.2523 7.18191 15.437 7.21963 15.6086 7.29304C15.7801 7.36644 15.935 7.47398 16.0637 7.60912C16.1924 7.74426 16.2923 7.90419 16.3572 8.07913C16.4222 8.25408 16.4509 8.4404 16.4415 8.62678C16.4415 8.99168 16.2966 9.34166 16.0385 9.59969C15.7805 9.85771 15.4306 10.0026 15.0657 10.0026C16.1382 10.045 17.1837 10.3508 18.11 10.8931C19.0362 11.4354 19.8147 12.1975 20.3765 13.1121V3.20593C20.3693 2.93101 20.254 2.66998 20.0557 2.47942C19.8575 2.28885 19.5921 2.18406 19.3171 2.18777H17.556V3.20593C17.5451 3.75819 17.3162 4.2837 16.9192 4.66778C16.5223 5.05187 15.9895 5.26333 15.4371 5.25595C15.1624 5.24359 14.8928 5.17714 14.6438 5.06046C14.3948 4.94377 14.1712 4.77911 13.9859 4.57591C13.8006 4.37272 13.6572 4.13497 13.5639 3.87627C13.4706 3.61757 13.4292 3.34304 13.4422 3.06834V2.05017H12.3827V3.06834C12.3719 3.6206 12.143 4.14615 11.746 4.53023C11.349 4.91432 10.8162 5.12573 10.2639 5.11836C9.7116 5.12573 9.17879 4.91432 8.78182 4.53023C8.38484 4.14615 8.15594 3.6206 8.14509 3.06834V2.05017H7.08568V3.06834C7.08209 3.34117 7.02479 3.61063 6.91705 3.86132C6.80931 4.11201 6.65325 4.33902 6.45777 4.52939C6.26229 4.71976 6.03123 4.86975 5.77778 4.97081C5.52432 5.07187 5.25344 5.12199 4.98061 5.11836C4.42829 5.12573 3.89549 4.91432 3.49852 4.53023C3.10154 4.14615 2.87264 3.6206 2.86179 3.06834V2.05017H1.05941C0.922755 2.04652 0.786732 2.07005 0.659247 2.11941C0.531761 2.16877 0.415356 2.24298 0.316788 2.33771C0.218221 2.43243 0.139455 2.54579 0.0850727 2.67122C0.0306906 2.79664 0.00177383 2.93164 0 3.06834V20.8032C0.00177383 20.9398 0.0306906 21.0748 0.0850727 21.2003C0.139455 21.3257 0.218221 21.4391 0.316788 21.5338C0.415356 21.6285 0.531761 21.7027 0.659247 21.7521C0.786732 21.8014 0.922755 21.825 1.05941 21.8213H11.3508C9.98715 20.9295 9.00576 19.5605 8.59912 17.9827Z" fill="#808994"/>
<path d="M20.459 15.4506C20.2421 14.144 19.5713 12.9558 18.5646 12.0951C17.5579 11.2344 16.2799 10.7564 14.9555 10.7451C14.2147 10.7458 13.481 10.8907 12.7954 11.1716C11.5227 11.7013 10.4894 12.6808 9.89238 13.9234C9.67721 14.3596 9.51995 14.8222 9.42459 15.2992C9.35782 15.6622 9.32557 16.0308 9.32828 16.3999C9.32642 16.8636 9.38188 17.3257 9.49338 17.7758C9.74094 18.7741 10.2561 19.686 10.9834 20.4133C11.7107 21.1406 12.6226 21.6558 13.621 21.9034C14.0707 22.0184 14.5327 22.0785 14.9968 22.0822C15.461 22.0788 15.923 22.0187 16.3727 21.9034C17.422 21.6235 18.3689 21.0481 19.1006 20.2456C19.8323 19.4432 20.3182 18.4474 20.5003 17.3768C20.5556 17.0726 20.5833 16.7641 20.5828 16.4549C20.5749 16.1169 20.5334 15.7804 20.459 15.4506ZM14.9555 21.1191C13.6978 21.1155 12.4925 20.6142 11.6031 19.7248C10.7137 18.8354 10.2125 17.6302 10.2088 16.3724C10.2131 15.507 10.4559 14.6596 10.9105 13.9234C11.4935 12.9783 12.3893 12.2675 13.4421 11.9146C13.8848 11.7602 14.3492 11.6766 14.818 11.667C16.0745 11.6706 17.2783 12.1723 18.1655 13.0621C19.0527 13.9519 19.5509 15.1571 19.5509 16.4137C19.5405 17.6466 19.0508 18.8271 18.1854 19.7053C17.32 20.5835 16.1469 21.0906 14.9143 21.1191H14.9555Z" fill="#808994"/>
<path d="M12.9877 17.1436C13.074 17.0643 13.1869 17.0203 13.3041 17.0203C13.4213 17.0203 13.5342 17.0643 13.6206 17.1436L14.5699 18.1067V13.3187C14.5699 13.2019 14.6163 13.0899 14.6989 13.0074C14.7814 12.9248 14.8934 12.8784 15.0102 12.8784C15.1269 12.8784 15.2389 12.9248 15.3215 13.0074C15.4041 13.0899 15.4504 13.2019 15.4504 13.3187V18.1067L16.4136 17.1436C16.4976 17.0652 16.6082 17.0217 16.7231 17.0217C16.838 17.0217 16.9486 17.0652 17.0327 17.1436C17.0751 17.1846 17.1089 17.2338 17.1319 17.2882C17.155 17.3426 17.1669 17.401 17.1669 17.46C17.1669 17.5191 17.155 17.5775 17.1319 17.6319C17.1089 17.6863 17.0751 17.7354 17.0327 17.7765L15.3266 19.4826C15.2434 19.5683 15.1297 19.6177 15.0102 19.6201C14.891 19.6163 14.7778 19.5671 14.6937 19.4826L12.9877 17.8315C12.9401 17.7877 12.9022 17.7345 12.8763 17.6753C12.8503 17.6161 12.8369 17.5522 12.8369 17.4876C12.8369 17.4229 12.8503 17.359 12.8763 17.2998C12.9022 17.2406 12.9401 17.1874 12.9877 17.1436Z" fill="#808994"/>
</g>
<defs>
<clipPath id="clip0_1_8180">
<rect width="20.5416" height="22" fill="white"/>
</clipPath>
</defs>
</svg>
