<svg width="356" height="13" viewBox="0 0 356 13" fill="none" xmlns="http://www.w3.org/2000/svg">
<mask id="mask0_1_9780" style="mask-type:luminance" maskUnits="userSpaceOnUse" x="0" y="0" width="356" height="13">
<path fill-rule="evenodd" clip-rule="evenodd" d="M0 0H356V13H0V0Z" fill="white"/>
</mask>
<g mask="url(#mask0_1_9780)">
<path fill-rule="evenodd" clip-rule="evenodd" d="M352.22 11.22C352.72 10.72 353 10.04 353 9.33V2.67C353 1.96 352.72 1.28 352.22 0.78C351.72 0.28 351.04 0 350.33 0H332.67C331.96 0 331.28 0.28 330.78 0.78C330.28 1.28 330 1.96 330 2.67V9.33C330 10.04 330.28 10.72 330.78 11.22C331.28 11.72 331.96 12 332.67 12H350.33C351.04 12 351.72 11.72 352.22 11.22Z" stroke="white" stroke-width="0.8"/>
<path opacity="0.4" fill-rule="evenodd" clip-rule="evenodd" d="M355 7C355.61 6.75 356 6.15 356 5.5C356 4.85 355.61 4.25 355 4V7Z" fill="white"/>
<path fill-rule="evenodd" clip-rule="evenodd" d="M343.67 10C344.4 10 345 9.4 345 8.67V3.33C345 2.6 344.4 2 343.67 2H333.33C332.6 2 332 2.6 332 3.33V8.67C332 9.4 332.6 10 333.33 10H343.67Z" fill="white"/>
<path d="M312.412 9.89019C313.751 8.76041 315.712 8.76056 317.042 9.89019C317.112 9.95019 317.152 10.0307 317.152 10.1207C317.162 10.2106 317.122 10.3009 317.052 10.3609L314.961 12.4703C314.901 12.5402 314.812 12.5708 314.732 12.5709C314.642 12.5709 314.562 12.5403 314.492 12.4703L312.402 10.3609C312.332 10.3009 312.302 10.2107 312.302 10.1207C312.302 10.0307 312.342 9.95019 312.412 9.89019ZM309.611 7.07574C312.501 4.39574 316.961 4.39574 319.841 7.07574C319.911 7.13562 319.952 7.21531 319.952 7.31499C319.952 7.40496 319.911 7.48525 319.851 7.55523L318.641 8.77593C318.511 8.89561 318.311 8.89566 318.181 8.77593C317.241 7.92593 316.001 7.44585 314.731 7.44585C313.451 7.44591 312.221 7.92599 311.271 8.77593C311.151 8.89559 310.941 8.89579 310.821 8.77593L309.611 7.55523C309.541 7.4853 309.511 7.40486 309.511 7.31499C309.511 7.21539 309.551 7.1356 309.611 7.07574ZM306.817 4.26324C311.237 0.0332921 318.217 0.0334052 322.637 4.26324C322.697 4.32323 322.737 4.41348 322.737 4.50347C322.737 4.59347 322.707 4.6737 322.637 4.7437L321.427 5.96343C321.307 6.08343 321.097 6.08343 320.977 5.96343C319.287 4.36353 317.057 3.4732 314.727 3.4732C312.407 3.47326 310.167 4.36348 308.487 5.96343C308.357 6.08323 308.157 6.08336 308.027 5.96343L306.817 4.7437C306.747 4.67373 306.717 4.59343 306.717 4.50347C306.717 4.41351 306.757 4.32323 306.817 4.26324Z" fill="white"/>
<path d="M289.669 5.96094C290.249 5.96094 290.709 6.43098 290.709 7.00098V11.1709C290.709 11.7509 290.249 12.2207 289.669 12.2207H288.62C288.05 12.2206 287.58 11.7509 287.58 11.1709V7.00098C287.58 6.43101 288.05 5.961 288.62 5.96094H289.669ZM294.545 3.52734C295.125 3.52734 295.585 3.99738 295.585 4.56738V11.1777C295.585 11.7475 295.125 12.2178 294.545 12.2178H293.496C292.926 12.2176 292.456 11.7475 292.456 11.1777V4.56738C292.456 3.99747 292.926 3.52749 293.496 3.52734H294.545ZM284.793 8.04688C285.373 8.04688 285.833 8.51691 285.833 9.08691V11.1768C285.833 11.7468 285.373 12.2168 284.793 12.2168H283.744C283.174 12.2168 282.704 11.7468 282.704 11.1768V9.08691C282.704 8.51691 283.174 8.04688 283.744 8.04688H284.793ZM299.422 1.09375C300.002 1.09394 300.462 1.5639 300.462 2.13379V11.1738C300.462 11.7537 300.002 12.2137 299.422 12.2139H298.372C297.802 12.2136 297.332 11.7536 297.332 11.1738V2.13379C297.332 1.56393 297.802 1.09399 298.372 1.09375H299.422Z" fill="white"/>
<path d="M12.2695 0C14.1795 0 15.0801 1.20996 15.0801 1.20996C15.9742 2.4022 16.0093 4.89745 16.0098 4.92969V6.86035C16.0097 9.47011 15.1104 10.7305 15.1104 10.7305C14.2126 11.997 12.3 12 12.29 12C10.4 12 9.49023 10.7598 9.49023 10.7598C8.58026 9.51975 8.5498 7.05957 8.5498 7.05957V5.08008C8.5498 2.50008 9.4502 1.25 9.4502 1.25C10.3421 0.0113971 12.2354 0.000101317 12.2695 0ZM4.53027 11.8398H3.03027V1.9502L0 3.0498V1.7002L4.2998 0.0996094H4.53027V11.8398ZM27.71 7.91992H29.3496V9.12988H27.71V11.8398H26.2002V9.12988H20.8301V8.25L26.1104 0.160156H27.71V7.91992ZM38 0.990234L33.1104 11.8398H31.5303L36.4102 1.37988H30.0195V0.160156H38V0.990234ZM12.2695 1.21973C11.1199 1.21996 10.5996 2.08008 10.5996 2.08008C10.0735 2.93403 10.0501 4.69464 10.0498 4.71973V7.08984C10.0498 8.96843 10.6037 9.87873 10.6104 9.88965C11.1604 10.7896 12.29 10.79 12.29 10.79C13.3927 10.79 13.9334 9.95147 13.9404 9.94043C14.4804 9.09043 14.5098 7.25977 14.5098 7.25977V4.83008C14.5098 2.94008 13.9697 2.08008 13.9697 2.08008C13.4297 1.22015 12.2695 1.21973 12.2695 1.21973ZM26.0303 2.50977L22.5303 7.91992H26.2002V2.19043L26.0303 2.50977Z" fill="white"/>
<path d="M17.9902 8.59961C18.4756 8.59968 18.7355 8.80576 18.7402 8.80957C18.9848 9.00519 18.9901 9.29691 18.9902 9.30957C18.9902 9.60415 18.7489 9.79309 18.7402 9.7998C18.4835 9.99727 18.0024 9.99997 17.9902 10C17.4902 10 17.25 9.7998 17.25 9.7998C17.0001 9.6098 17 9.30957 17 9.30957C17.0002 9.00981 17.25 8.80957 17.25 8.80957C17.4901 8.59976 17.9902 8.59961 17.9902 8.59961ZM18 3C18.49 3 18.7402 3.2002 18.7402 3.2002C18.9983 3.4088 19 3.70605 19 3.70996C19 3.99758 18.7444 4.19695 18.7402 4.2002C18.4902 4.4002 18 4.40039 18 4.40039C17.5 4.40039 17.2598 4.2002 17.2598 4.2002C17.0098 4.0002 17.0098 3.70996 17.0098 3.70996C17.0098 3.4153 17.2512 3.20747 17.2598 3.2002C17.4997 3.00021 17.9999 3 18 3Z" fill="white"/>
</g>
</svg>
