<svg width="21" height="20" viewBox="0 0 21 20" fill="none" xmlns="http://www.w3.org/2000/svg">
<g clip-path="url(#clip0_0_12)">
<path d="M8.73571 3.05162H5.51864C5.33377 3.06389 5.15078 3.00808 5.00424 2.8947C4.88587 2.78933 4.79848 2.65368 4.75142 2.50236C4.70456 2.32899 4.68109 2.15014 4.68166 1.97055C4.68099 1.78042 4.6985 1.59066 4.73397 1.40386C4.74852 1.21301 4.77767 1.02354 4.82116 0.837144C4.86336 0.652982 4.93394 0.476527 5.03039 0.314061C5.06743 0.235899 5.12242 0.167568 5.19085 0.114673C5.25929 0.0617775 5.33924 0.0258022 5.42422 0.00965706C5.50919 -0.00648807 5.59679 -0.00234677 5.67985 0.021763C5.76292 0.0458728 5.8391 0.0892789 5.90223 0.14841L6.71306 0.610484L7.5849 1.10744L8.38698 1.56079L8.94497 1.88336C9.08752 1.98015 9.2091 2.1047 9.30242 2.24955C9.37608 2.36323 9.40981 2.49819 9.39831 2.63316C9.38987 2.69356 9.36834 2.75138 9.3352 2.80259C9.30207 2.85379 9.25815 2.89713 9.20651 2.92958C9.06623 3.01855 8.90155 3.06123 8.73571 3.05162Z" fill="#808994"/>
<path d="M11.3598 3.02549H14.5246C14.708 3.03645 14.8896 2.98414 15.039 2.87729C15.1587 2.76953 15.2462 2.6307 15.2918 2.47623C15.3393 2.30298 15.3628 2.12405 15.3616 1.94442C15.3709 1.75854 15.3709 1.5723 15.3616 1.38643C15.3616 1.21206 15.2918 1.02027 15.2569 0.828464C15.2227 0.647347 15.1578 0.473397 15.0651 0.314082C14.9915 0.175881 14.8661 0.0724344 14.7164 0.0263599C14.6274 0.00424908 14.5347 0.00136199 14.4445 0.017899C14.3543 0.0344361 14.2687 0.0700311 14.1933 0.122276L13.3825 0.58435C13.0861 0.749999 12.7809 0.915637 12.5107 1.09001L11.6998 1.54338C11.5134 1.63683 11.3329 1.74164 11.1593 1.85723C11.005 1.95197 10.874 2.08006 10.7757 2.23211C10.7038 2.34308 10.6729 2.47572 10.6885 2.60702C10.6947 2.66822 10.7144 2.72728 10.746 2.78002C10.7777 2.83276 10.8205 2.87786 10.8716 2.91215C11.0248 3.0003 11.2011 3.03984 11.3773 3.02549H11.3598Z" fill="#808994"/>
<path d="M9.20697 4.01025H1.36041C0.969914 3.96473 0.575194 4.04733 0.23573 4.24563C0.144733 4.34503 0.0753045 4.4622 0.0317917 4.58973C-0.0117211 4.71727 -0.0283572 4.85242 -0.0170843 4.9867V6.93962C-0.0287028 7.08934 -0.0100008 7.23987 0.0379378 7.38219C0.0858763 7.5245 0.162072 7.65569 0.261911 7.76787C0.596217 7.98026 0.992849 8.07249 1.38656 8.02941H9.18954L9.20697 4.01025Z" fill="#808994"/>
<path d="M10.8543 4.01025H18.7008C19.0913 3.96473 19.486 4.04733 19.8255 4.24563C19.9172 4.34635 19.987 4.46499 20.0305 4.59405C20.074 4.7231 20.0903 4.85977 20.0783 4.99543V6.94834C20.0907 7.0975 20.0715 7.24759 20.0219 7.38881C19.9724 7.53003 19.8935 7.6592 19.7906 7.76787C19.4618 7.98602 19.0668 8.08168 18.6747 8.03814H10.8281L10.8543 4.01025Z" fill="#808994"/>
<path d="M9.2066 8.98877H0.793352V17.5764C0.774464 17.9158 0.836545 18.2549 0.974488 18.5657C1.11243 18.8765 1.32229 19.1499 1.58673 19.3636C2.31489 19.8456 3.18357 20.0697 4.05402 20.0001H9.2066V8.98877Z" fill="#808994"/>
<path d="M10.8545 8.98877H19.2154V17.5066C19.223 17.8509 19.156 18.1929 19.019 18.5089C18.8821 18.8249 18.6785 19.1076 18.4221 19.3375C17.7189 19.8401 16.8594 20.0751 15.9983 20.0001H10.8545V8.98877Z" fill="#808994"/>
</g>
<defs>
<clipPath id="clip0_0_12">
<rect width="20.0697" height="20" fill="white"/>
</clipPath>
</defs>
</svg>
