<svg width="14" height="15" viewBox="0 0 14 15" fill="none" xmlns="http://www.w3.org/2000/svg">
<g clip-path="url(#clip0_1_39900)">
<mask id="mask0_1_39900" style="mask-type:luminance" maskUnits="userSpaceOnUse" x="0" y="-1" width="15" height="17">
<path d="M14.0076 -0.0151367H0.0078125V15.0227H14.0076V-0.0151367Z" fill="white"/>
</mask>
<g mask="url(#mask0_1_39900)">
<path d="M0.539776 15.0075C0.397856 15.0036 0.26287 14.9451 0.162482 14.844C0.0620933 14.7429 0.00378653 14.6069 0 14.4639C0.0019392 14.3204 0.0595058 14.1832 0.160286 14.0817C0.261066 13.9802 0.397264 13.9222 0.539776 13.9203H13.4604C13.6035 13.9203 13.7408 13.9776 13.842 14.0795C13.9432 14.1814 14.0001 14.3198 14.0001 14.4639C13.9982 14.6075 13.9406 14.7445 13.8398 14.846C13.7391 14.9475 13.6029 15.0055 13.4604 15.0075H0.539776ZM1.28924 4.61238C1.09047 4.61238 0.899897 4.69178 0.759345 4.83336C0.618793 4.97493 0.539776 5.16707 0.539776 5.36728V11.6028C0.549398 11.7964 0.632631 11.9789 0.772153 12.1124C0.911676 12.2459 1.0968 12.3202 1.28924 12.3199H2.43576C2.62821 12.3202 2.81332 12.2459 2.95285 12.1124C3.09237 11.9789 3.1756 11.7964 3.18522 11.6028V5.36728C3.18254 5.17554 3.10768 4.99187 2.97554 4.85381C2.83848 4.72071 2.65613 4.6453 2.46577 4.6426L1.28924 4.61238ZM6.46047 2.34766C6.2617 2.34766 6.07113 2.42706 5.93058 2.56864C5.79003 2.71021 5.71101 2.90235 5.71101 3.10256V11.6406C5.71101 11.8408 5.79003 12.0328 5.93058 12.1743C6.07113 12.3159 6.2617 12.3955 6.46047 12.3955H7.60736C7.80613 12.3955 7.9967 12.3159 8.13725 12.1743C8.27781 12.0328 8.35682 11.8408 8.35682 11.6406V3.10256C8.35682 2.90235 8.27781 2.71021 8.13725 2.56864C7.9967 2.42706 7.80613 2.34766 7.60736 2.34766H6.46047ZM11.6244 0.0375977C11.4256 0.0375977 11.235 0.117189 11.0945 0.258762C10.9539 0.400334 10.8749 0.592291 10.8749 0.792504V11.6406C10.8845 11.8342 10.9678 12.0165 11.1073 12.15C11.2468 12.2835 11.4319 12.358 11.6244 12.3577H12.7709C12.9634 12.358 13.1485 12.2835 13.288 12.15C13.4275 12.0165 13.5107 11.8342 13.5204 11.6406V0.792504C13.5204 0.592291 13.4414 0.400334 13.3008 0.258762C13.1602 0.117189 12.9697 0.0375977 12.7709 0.0375977H11.6244Z" fill="white"/>
</g>
</g>
<defs>
<clipPath id="clip0_1_39900">
<rect width="14" height="15" fill="white"/>
</clipPath>
</defs>
</svg>
