<svg width="32" height="32" viewBox="0 0 32 32" fill="none" xmlns="http://www.w3.org/2000/svg">
<g clip-path="url(#clip0_1_57989)">
<path d="M16.0021 32.0042C24.8398 32.0042 32.0042 24.8398 32.0042 16.0021C32.0042 7.16437 24.8398 0 16.0021 0C7.16437 0 0 7.16437 0 16.0021C0 24.8398 7.16437 32.0042 16.0021 32.0042Z" fill="#4DC247"/>
<path d="M18.6194 17.1905C18.2704 17.1905 17.6014 18.4911 17.1983 18.4911C17.0932 18.4861 16.9913 18.4531 16.9033 18.3955C16.1638 18.0535 15.4824 17.5978 14.8838 17.0451C14.3331 16.5161 13.8777 15.8962 13.5375 15.2126C13.4964 15.1521 13.4721 15.0819 13.4668 15.009C13.4668 14.7015 14.3935 14.128 14.3935 13.6169C14.3935 13.484 13.712 11.6639 13.6164 11.4354C13.4835 11.0863 13.417 10.9783 13.0555 10.9783C12.8809 10.9783 12.7189 10.9409 12.561 10.9409C12.4308 10.9409 12.3019 10.9669 12.182 11.0176C12.0621 11.0683 11.9536 11.1425 11.8629 11.2359C11.5554 11.4964 11.3078 11.8203 11.1371 12.1853C10.9664 12.5504 10.8766 12.948 10.8739 13.351V13.4549C10.9234 14.397 11.2533 15.3028 11.8213 16.0561C12.9723 17.7556 14.1649 19.2432 16.0764 20.1117C16.6539 20.3776 17.9795 20.9427 18.6236 20.9427C19.384 20.9427 20.6306 20.4649 20.9381 19.6961C21.0741 19.3731 21.1515 19.0283 21.1666 18.6781C21.1704 18.6103 21.1605 18.5425 21.1375 18.4786C20.3561 17.9559 19.5201 17.5198 18.6443 17.178L18.6194 17.1905ZM15.9018 24.2878C14.2592 24.2817 12.6538 23.7981 11.2811 22.8957L8.04417 23.9262L9.09961 20.8056C8.05734 19.3751 7.49444 17.6515 7.49151 15.8816C7.4959 13.6527 8.38353 11.5165 9.95994 9.94089C11.5363 8.36526 13.673 7.47868 15.9018 7.47539C18.1296 7.47868 20.2652 8.36482 21.8408 9.93967C23.4164 11.5145 24.3036 13.6497 24.308 15.8774C24.3047 18.1062 23.4182 20.2429 21.8425 21.8193C20.2669 23.3957 18.1307 24.2834 15.9018 24.2878ZM15.9018 5.78418C13.2253 5.78528 10.6587 6.84903 8.76605 8.74164C6.87344 10.6342 5.80971 13.2009 5.80861 15.8774C5.80495 17.7139 6.3051 19.5162 7.25465 21.0882L5.90418 25.1105C5.86114 25.2412 5.85498 25.3812 5.8864 25.5152C5.91781 25.6492 5.98557 25.7719 6.08222 25.8698C6.17887 25.9678 6.30068 26.0371 6.43422 26.0703C6.56776 26.1035 6.70787 26.0992 6.83912 26.0579L10.9944 24.7157C13.3382 26.0077 16.099 26.3163 18.6702 25.5737C21.2415 24.8312 23.4127 23.0983 24.7069 20.7557C25.5287 19.2629 25.9577 17.5857 25.9535 15.8816C25.9513 13.2054 24.8872 10.6394 22.9948 8.74701C21.1025 6.85463 18.5365 5.79054 15.8603 5.78834L15.9018 5.78418Z" fill="white"/>
</g>
<defs>
<clipPath id="clip0_1_57989">
<rect width="32" height="32" fill="white"/>
</clipPath>
</defs>
</svg>
