<svg width="45" height="16" viewBox="0 0 45 16" fill="none" xmlns="http://www.w3.org/2000/svg">
<path d="M38.2637 0.204606C38.657 0.187724 39.0381 0.338312 39.3307 0.617608L43.9756 5.05066L43.9839 5.05823L43.9913 5.06783L44.4003 5.56083L44.4876 5.67605C44.868 6.22546 44.9005 6.9745 44.5688 7.55462L44.4917 7.67596L44.1268 8.2034L44.1202 8.21261L44.1127 8.22186L39.8676 13.0391C39.6002 13.3425 39.2333 13.5246 38.8402 13.5417L2.22782 15.1241C1.37076 15.1609 0.676742 14.4284 0.637911 13.5328L0.204741 3.51048C0.16603 2.61482 0.794265 1.82426 1.65139 1.78701L38.2637 0.204606Z" stroke="white" stroke-width="0.4"/>
</svg>
