<svg width="48" height="48" viewBox="0 0 48 48" fill="none" xmlns="http://www.w3.org/2000/svg">
<g filter="url(#filter0_f_1_17239)">
<circle cx="24" cy="24" r="24" fill="#232B32"/>
</g>
<circle cx="24" cy="24" r="24" fill="#85D420"/>
<path d="M33.7503 28.2541H33.1556C32.8385 28.1915 32.5542 28.0231 32.3521 27.7783C32.1499 27.5335 32.0428 27.2278 32.0493 26.9143L31.8418 20.2153C31.8654 18.2709 31.1356 16.3886 29.7965 14.94C28.4575 13.4914 26.6065 12.5819 24.609 12.3909V12.1095C24.609 11.9532 24.5449 11.8032 24.4307 11.6927C24.3166 11.5821 24.1619 11.52 24.0005 11.52C23.8391 11.52 23.6843 11.5821 23.5702 11.6927C23.4561 11.8032 23.392 11.9532 23.392 12.1095V12.3909C21.3945 12.5819 19.5435 13.4914 18.2044 14.94C16.8653 16.3886 16.1355 18.2709 16.1591 20.2153L15.7996 26.9143C15.8274 27.2325 15.7282 27.5488 15.5223 27.7981C15.3164 28.0474 15.0196 28.2107 14.6932 28.2541H14.2507C14.0445 28.1959 13.8273 28.185 13.616 28.2222C13.4048 28.2594 13.2054 28.3437 13.0336 28.4685C12.8619 28.5933 12.7225 28.7551 12.6265 28.9412C12.5304 29.1272 12.4805 29.3323 12.4805 29.5403C12.4805 29.7483 12.5304 29.9535 12.6265 30.1395C12.7225 30.3256 12.8619 30.4874 13.0336 30.6122C13.2054 30.737 13.4048 30.8213 13.616 30.8586C13.8273 30.8958 14.0445 30.8848 14.2507 30.8266H33.7503C33.9564 30.8848 34.1737 30.8958 34.3849 30.8586C34.5961 30.8213 34.7955 30.737 34.9673 30.6122C35.1391 30.4874 35.2785 30.3256 35.3745 30.1395C35.4705 29.9535 35.5205 29.7483 35.5205 29.5403C35.5205 29.3323 35.4705 29.1272 35.3745 28.9412C35.2785 28.7551 35.1391 28.5933 34.9673 28.4685C34.7955 28.3437 34.5961 28.2594 34.3849 28.2222C34.1737 28.185 33.9564 28.1959 33.7503 28.2541Z" fill="white"/>
<path d="M21.6772 31.3492C21.6772 31.9461 21.9219 32.5187 22.3577 32.9408C22.7934 33.3629 23.3843 33.6 24.0005 33.6C24.6167 33.6 25.2076 33.3629 25.6434 32.9408C26.0791 32.5187 26.3239 31.9461 26.3239 31.3492H21.6772Z" fill="white"/>
<defs>
<filter id="filter0_f_1_17239" x="-8" y="-8" width="64" height="64" filterUnits="userSpaceOnUse" color-interpolation-filters="sRGB">
<feFlood flood-opacity="0" result="BackgroundImageFix"/>
<feBlend mode="normal" in="SourceGraphic" in2="BackgroundImageFix" result="shape"/>
<feGaussianBlur stdDeviation="4" result="effect1_foregroundBlur_1_17239"/>
</filter>
</defs>
</svg>
