<svg width="16" height="16" viewBox="0 0 16 16" fill="none" xmlns="http://www.w3.org/2000/svg">
<path d="M7.80061 8.55414C10.1628 8.55414 12.0777 6.63923 12.0777 4.27707C12.0777 1.91491 10.1628 0 7.80061 0C5.43845 0 3.52355 1.91491 3.52355 4.27707C3.52355 6.63923 5.43845 8.55414 7.80061 8.55414Z" fill="#808994"/>
<path d="M13.9959 16.0001H1.58481C1.16614 16.0001 0.764498 15.8345 0.467562 15.5393C0.170626 15.2442 0.0025221 14.8435 0 14.4248V14.0907C0.00426104 12.8 0.509191 11.5611 1.40845 10.6352C2.30772 9.70919 3.53118 9.16828 4.82127 9.12626H5.16495C5.29108 9.14061 5.4157 9.16619 5.53729 9.20265C6.2743 9.50513 7.05361 9.69187 7.84766 9.75633C8.5042 9.69232 9.14764 9.53146 9.75706 9.27898L10.0149 9.20265L10.5495 9.12626H10.7022C12.0065 9.14628 13.2507 9.67786 14.1668 10.6064C15.0829 11.535 15.5975 12.7863 15.5999 14.0907V14.4248C15.5986 14.6338 15.5561 14.8404 15.4747 15.0328C15.3933 15.2253 15.2746 15.3997 15.1256 15.5461C14.9765 15.6925 14.8 15.808 14.6061 15.8859C14.4122 15.9638 14.2049 16.0026 13.9959 16.0001Z" fill="#808994"/>
</svg>
