<svg width="14" height="18" viewBox="0 0 14 18" fill="none" xmlns="http://www.w3.org/2000/svg">
<path d="M11.9711 6.15179e-05C12.2008 -0.0018119 12.4286 0.03912 12.642 0.120588C12.8449 0.204384 13.0297 0.323599 13.1871 0.472144C13.3455 0.620303 13.4703 0.798075 13.554 0.994435C13.639 1.19887 13.6817 1.41722 13.6798 1.63728V16.3622C13.686 16.5785 13.6455 16.7936 13.5607 16.9942C13.4759 17.1947 13.3487 17.3762 13.1871 17.5273C13.0294 17.6822 12.84 17.8041 12.6307 17.8853C12.4214 17.9666 12.1968 18.0054 11.9711 17.9994H1.70892C1.48479 18.0053 1.26184 17.9663 1.0543 17.885C0.846749 17.8037 0.659149 17.6819 0.503448 17.5273C0.340443 17.3767 0.211623 17.1955 0.125047 16.9951C0.0384713 16.7946 -0.00399786 16.5791 0.000295953 16.3622V1.61718C0.00463173 1.40543 0.0545938 1.19685 0.147048 1.00449C0.230681 0.808129 0.35556 0.630357 0.513929 0.482198C0.671311 0.333653 0.856147 0.214438 1.05901 0.130642C1.26902 0.0502037 1.49324 0.00928604 1.7194 0.0101156L11.9711 6.15179e-05ZM5.13664 1.63728H8.53292V0.803591H5.13664V1.63728ZM6.8243 17.1758C7.04935 17.1871 7.27437 17.1529 7.48469 17.0753C7.68828 16.9928 7.87336 16.8734 8.02977 16.7238C8.18479 16.573 8.3092 16.3959 8.39665 16.2015C8.48163 16.0005 8.52438 15.7855 8.52244 15.5687C8.5244 15.3486 8.48167 15.1303 8.39665 14.9258C8.31177 14.7331 8.18696 14.5588 8.02977 14.4136C7.87093 14.2668 7.68644 14.1478 7.48469 14.062C7.27197 13.9774 7.04415 13.933 6.81382 13.9315C6.59002 13.928 6.36782 13.9681 6.16063 14.0492C5.95344 14.1304 5.76556 14.2509 5.60835 14.4035C5.44942 14.554 5.32458 14.7342 5.24161 14.933C5.15865 15.1317 5.11935 15.3447 5.12616 15.5586C5.12059 15.7724 5.16046 15.9851 5.24336 16.1837C5.32625 16.3822 5.45043 16.5626 5.60835 16.7138C5.76353 16.8697 5.95079 16.993 6.15829 17.076C6.36579 17.159 6.58901 17.1998 6.81382 17.1959L6.8243 17.1758ZM11.9711 2.44081H1.70892V13.0576H11.9711V2.44081Z" fill="#808994"/>
</svg>
