<svg width="50" height="50" viewBox="0 0 50 50" fill="none" xmlns="http://www.w3.org/2000/svg">
<g filter="url(#filter0_f_1_18550)">
<circle cx="25" cy="25" r="25" fill="#2B333B"/>
</g>
<circle cx="25" cy="25" r="25" fill="#0F32EC"/>
<path d="M19.8433 28.3769C21.1674 29.4279 22.8087 30 24.4998 30C26.1909 30 27.8322 29.4279 29.1563 28.3769L29.722 27.8841C30.4782 27.1501 31.0713 26.2654 31.4628 25.2874C31.8542 24.3094 32.0353 23.2601 31.9943 22.2076C31.9533 21.1551 31.691 20.123 31.2245 19.1784C30.7581 18.2339 30.0979 17.3979 29.2868 16.7249C28.1888 15.8153 26.8539 15.2374 25.4388 15.059C24.0236 14.8805 22.5869 15.109 21.2971 15.7175C20.0073 16.326 18.918 17.2894 18.1569 18.4946C17.3958 19.6998 16.9945 21.0969 17.0001 22.5219C16.9988 23.5228 17.1999 24.5137 17.5913 25.4351C17.9826 26.3565 18.5562 27.1895 19.2775 27.8841C19.4527 28.0631 19.6419 28.2279 19.8433 28.3769Z" fill="white"/>
<path d="M35.9712 18.9074C35.2948 16.3515 33.8077 14.0934 31.7403 12.4831C29.6728 10.8728 27.1403 10 24.5351 10C21.9299 10 19.3974 10.8728 17.3299 12.4831C15.2624 14.0934 13.7753 16.3515 13.099 18.9074C12.4822 19.1152 11.9466 19.517 11.5694 20.0546C11.1923 20.5922 10.9933 21.2377 11.0012 21.8978C10.99 22.2951 11.0559 22.6907 11.1952 23.0621C11.3345 23.4334 11.5445 23.7733 11.8131 24.0622C12.0818 24.3511 12.4038 24.5834 12.7609 24.7457C13.118 24.9081 13.503 24.9974 13.8941 25.0086V22.2244C13.912 19.3573 15.0503 16.6149 17.0586 14.6005C19.0668 12.586 21.7806 11.4646 24.6028 11.4828C27.4249 11.501 30.1243 12.6574 32.1072 14.6977C34.0901 16.7379 35.194 19.4947 35.1761 22.3618V25.0086C35.9554 24.9728 36.6894 24.626 37.2184 24.0435C37.7474 23.461 38.0288 22.6899 38.0012 21.8978C38.0191 21.245 37.832 20.6033 37.467 20.0657C37.1021 19.528 36.5782 19.1224 35.9712 18.9074Z" fill="white"/>
<path d="M31.7249 30.2852C29.7909 32.1695 27.2148 33.2217 24.5351 33.2217C21.8553 33.2217 19.2793 32.1695 17.3452 30.2852C16.1394 31.1406 15.0914 32.2053 14.2493 33.4303C13.4749 34.5944 12.9027 35.885 12.5576 37.2457H36.6479C35.8808 34.4199 34.1627 31.9569 31.7926 30.2852H31.7249Z" fill="white"/>
<defs>
<filter id="filter0_f_1_18550" x="-4" y="-4" width="58" height="58" filterUnits="userSpaceOnUse" color-interpolation-filters="sRGB">
<feFlood flood-opacity="0" result="BackgroundImageFix"/>
<feBlend mode="normal" in="SourceGraphic" in2="BackgroundImageFix" result="shape"/>
<feGaussianBlur stdDeviation="2" result="effect1_foregroundBlur_1_18550"/>
</filter>
</defs>
</svg>
