<svg width="335" height="65" viewBox="0 0 335 65" fill="none" xmlns="http://www.w3.org/2000/svg">
<mask id="path-1-inside-1_1_62240" fill="white">
<path d="M32.1514 10H327C331.418 10 335 13.5817 335 18V57C335 61.4183 331.418 65 327 65H8C3.58172 65 0 61.4183 0 57V18C0 13.5817 3.58172 10 8 10H15.8486L24 0L32.1514 10Z"/>
</mask>
<path d="M32.1514 10H327C331.418 10 335 13.5817 335 18V57C335 61.4183 331.418 65 327 65H8C3.58172 65 0 61.4183 0 57V18C0 13.5817 3.58172 10 8 10H15.8486L24 0L32.1514 10Z" fill="#1B1D20"/>
<path d="M32.1514 10L31.3763 10.6318L31.6764 11H32.1514V10ZM8 65V66V65ZM15.8486 10V11H16.3236L16.6237 10.6318L15.8486 10ZM24 0L24.7751 -0.631823L24 -1.58272L23.2249 -0.631823L24 0ZM32.1514 10V11H327V10V9H32.1514V10ZM327 10V11C330.866 11 334 14.134 334 18H335H336C336 13.0294 331.971 9 327 9V10ZM335 18H334V57H335H336V18H335ZM335 57H334C334 60.866 330.866 64 327 64V65V66C331.971 66 336 61.9706 336 57H335ZM327 65V64H8V65V66H327V65ZM8 65V64C4.13401 64 1 60.866 1 57H0H-1C-1 61.9706 3.02944 66 8 66V65ZM0 57H1V18H0H-1V57H0ZM0 18H1C1 14.134 4.13401 11 8 11V10V9C3.02944 9 -1 13.0294 -1 18H0ZM8 10V11H15.8486V10V9H8V10ZM15.8486 10L16.6237 10.6318L24.7751 0.631823L24 0L23.2249 -0.631823L15.0735 9.36818L15.8486 10ZM24 0L23.2249 0.631823L31.3763 10.6318L32.1514 10L32.9265 9.36818L24.7751 -0.631823L24 0Z" fill="#478A03" mask="url(#path-1-inside-1_1_62240)"/>
</svg>
