<svg width="356" height="13" viewBox="0 0 356 13" fill="none" xmlns="http://www.w3.org/2000/svg">
<mask id="mask0_1_53480" style="mask-type:luminance" maskUnits="userSpaceOnUse" x="0" y="0" width="356" height="13">
<path fill-rule="evenodd" clip-rule="evenodd" d="M0 0H356V13H0V0Z" fill="white"/>
</mask>
<g mask="url(#mask0_1_53480)">
<path fill-rule="evenodd" clip-rule="evenodd" d="M352.22 11.22C352.72 10.72 353 10.04 353 9.33V2.67C353 1.96 352.72 1.28 352.22 0.78C351.72 0.28 351.04 0 350.33 0H332.67C331.96 0 331.28 0.28 330.78 0.78C330.28 1.28 330 1.96 330 2.67V9.33C330 10.04 330.28 10.72 330.78 11.22C331.28 11.72 331.96 12 332.67 12H350.33C351.04 12 351.72 11.72 352.22 11.22Z" stroke="white" stroke-width="0.8"/>
<path opacity="0.4" fill-rule="evenodd" clip-rule="evenodd" d="M355 7C355.61 6.75 356 6.15 356 5.5C356 4.85 355.61 4.25 355 4V7Z" fill="white"/>
<path fill-rule="evenodd" clip-rule="evenodd" d="M343.67 10C344.4 10 345 9.4 345 8.67V3.33C345 2.6 344.4 2 343.67 2H333.33C332.6 2 332 2.6 332 3.33V8.67C332 9.4 332.6 10 333.33 10H343.67Z" fill="white"/>
<path d="M312.412 9.88994C313.752 8.76034 315.712 8.76015 317.042 9.88994C317.112 9.94994 317.151 10.0304 317.151 10.1204C317.161 10.2104 317.122 10.3006 317.052 10.3606L314.962 12.47C314.902 12.54 314.811 12.5706 314.731 12.5706C314.642 12.5705 314.562 12.5399 314.492 12.47L312.401 10.3606C312.331 10.3006 312.302 10.2104 312.302 10.1204C312.302 10.0304 312.342 9.94994 312.412 9.88994ZM309.61 7.07647C312.5 4.39647 316.961 4.39647 319.841 7.07647C319.911 7.13635 319.951 7.21604 319.951 7.31573C319.951 7.40569 319.911 7.48598 319.851 7.55596L318.641 8.77666C318.511 8.89634 318.311 8.89639 318.181 8.77666C317.241 7.92666 316 7.44659 314.73 7.44659C313.451 7.44665 312.22 7.92672 311.271 8.77666C311.15 8.89632 310.94 8.89652 310.82 8.77666L309.61 7.55596C309.541 7.48603 309.511 7.4056 309.511 7.31573C309.511 7.21612 309.551 7.13634 309.61 7.07647ZM306.816 4.26397C311.236 0.0340245 318.217 0.0341376 322.637 4.26397C322.697 4.32396 322.736 4.41422 322.736 4.5042C322.736 4.5942 322.707 4.67444 322.637 4.74444L321.427 5.96416C321.307 6.08416 321.097 6.08416 320.977 5.96416C319.287 4.36426 317.056 3.47393 314.727 3.47393C312.407 3.47399 310.166 4.36422 308.486 5.96416C308.356 6.08397 308.156 6.0841 308.026 5.96416L306.816 4.74444C306.746 4.67446 306.717 4.59416 306.717 4.5042C306.717 4.41424 306.756 4.32396 306.816 4.26397Z" fill="white"/>
<path d="M289.669 5.96094C290.249 5.96094 290.709 6.43098 290.709 7.00098V11.1709C290.709 11.7509 290.249 12.2207 289.669 12.2207H288.619C288.049 12.2206 287.579 11.7509 287.579 11.1709V7.00098C287.579 6.43101 288.049 5.961 288.619 5.96094H289.669ZM294.545 3.52734C295.125 3.52734 295.585 3.99738 295.585 4.56738V11.1777C295.585 11.7476 295.125 12.2178 294.545 12.2178H293.495C292.925 12.2178 292.455 11.7476 292.455 11.1777V4.56738C292.455 3.99738 292.925 3.52734 293.495 3.52734H294.545ZM284.793 8.04688C285.373 8.04688 285.833 8.51691 285.833 9.08691V11.1768C285.833 11.7468 285.373 12.2168 284.793 12.2168H283.743C283.173 12.2168 282.703 11.7468 282.703 11.1768V9.08691C282.703 8.51691 283.173 8.04688 283.743 8.04688H284.793ZM299.421 1.09375C300.001 1.09375 300.461 1.56379 300.461 2.13379V11.1738C300.461 11.7538 300.001 12.2139 299.421 12.2139H298.371C297.801 12.2139 297.331 11.7538 297.331 11.1738V2.13379C297.331 1.56379 297.801 1.09375 298.371 1.09375H299.421Z" fill="white"/>
<path d="M12.2695 0C14.1795 0 15.0801 1.20996 15.0801 1.20996C15.9742 2.4022 16.0093 4.89745 16.0098 4.92969V6.86035C16.0097 9.47011 15.1104 10.7305 15.1104 10.7305C14.2126 11.997 12.3 12 12.29 12C10.4 12 9.49023 10.7598 9.49023 10.7598C8.58026 9.51975 8.5498 7.05957 8.5498 7.05957V5.08008C8.5498 2.50008 9.4502 1.25 9.4502 1.25C10.3421 0.0113971 12.2354 0.000101317 12.2695 0ZM4.53027 11.8398H3.03027V1.94922L0 3.0498V1.69922L4.2998 0.0996094H4.53027V11.8398ZM27.71 7.91992H29.3496V9.12988H27.71V11.8398H26.2002V9.12988H20.8301V8.25L26.1104 0.160156H27.71V7.91992ZM38 0.990234L33.1094 11.8398H31.5293L36.4092 1.37988H30.0195V0.160156H38V0.990234ZM12.2695 1.2207C11.1199 1.22093 10.5996 2.08105 10.5996 2.08105C10.0699 2.94122 10.0498 4.7207 10.0498 4.7207V7.09082C10.0498 8.98074 10.6104 9.89062 10.6104 9.89062C11.1604 10.7905 12.29 10.791 12.29 10.791C13.4 10.791 13.9404 9.94043 13.9404 9.94043C14.4787 9.09263 14.5096 7.27092 14.5098 7.26074V4.83105C14.5098 2.95477 13.9774 2.09345 13.9697 2.08105C13.4297 1.22105 12.2695 1.2207 12.2695 1.2207ZM26.0303 2.50977L22.5303 7.91992H26.2002V2.18945L26.0303 2.50977Z" fill="white"/>
<path d="M17.9902 8.59961C18.4801 8.59968 18.7402 8.80957 18.7402 8.80957C18.9885 9.00826 18.9902 9.30569 18.9902 9.30957C18.9902 9.60703 18.7444 9.79662 18.7402 9.7998C18.4835 9.99728 18.0023 9.99997 17.9902 10C17.496 10 17.2555 9.80431 17.25 9.7998C17 9.6098 17 9.30957 17 9.30957C17 9.00959 17.25 8.80957 17.25 8.80957C17.49 8.59959 17.9902 8.59961 17.9902 8.59961ZM18 3C18.49 3 18.7402 3.2002 18.7402 3.2002C18.9983 3.4088 19 3.70605 19 3.70996C19 3.99758 18.7444 4.19695 18.7402 4.2002C18.4902 4.4002 18 4.40039 18 4.40039C17.5 4.40039 17.2598 4.2002 17.2598 4.2002C17.0098 4.0002 17.0098 3.70996 17.0098 3.70996C17.0098 3.4153 17.2512 3.20747 17.2598 3.2002C17.4997 3.00021 17.9999 3 18 3Z" fill="white"/>
</g>
</svg>
