<svg width="20" height="20" viewBox="0 0 20 20" fill="none" xmlns="http://www.w3.org/2000/svg">
<g clip-path="url(#clip0_1_44154)">
<mask id="mask0_1_44154" style="mask-type:luminance" maskUnits="userSpaceOnUse" x="0" y="0" width="20" height="21">
<path d="M19.4559 0H0.0078125V20.0276H19.4559V0Z" fill="white"/>
</mask>
<g mask="url(#mask0_1_44154)">
<path d="M6.71651 16.2547C6.18756 16.2571 5.6812 16.4683 5.30717 16.8423C4.93314 17.2163 4.72177 17.7229 4.71935 18.2519V18.5004H3.72526C3.62615 18.5004 3.52831 18.52 3.43674 18.5579C3.34517 18.5958 3.26189 18.6514 3.19181 18.7215C3.12173 18.7916 3.06616 18.8746 3.02823 18.9662C2.9903 19.0578 2.9707 19.1561 2.9707 19.2552C2.97312 19.4537 3.05368 19.6432 3.19496 19.7828C3.33623 19.9223 3.52668 20.0005 3.72526 20.0005H15.6903C15.8889 20.0005 16.0798 19.9223 16.221 19.7828C16.3623 19.6432 16.4429 19.4537 16.4453 19.2552C16.4453 19.1561 16.4257 19.0578 16.3878 18.9662C16.3498 18.8746 16.2943 18.7916 16.2242 18.7215C16.1541 18.6514 16.0708 18.5958 15.9793 18.5579C15.8877 18.52 15.7894 18.5004 15.6903 18.5004H14.6872V18.2519C14.6872 17.7222 14.4766 17.2142 14.1021 16.8396C13.7275 16.4651 13.2197 16.2547 12.69 16.2547H10.4443V13.963C9.94615 14.0243 9.44197 14.0243 8.94378 13.963V16.2547H6.71651Z" fill="#808994"/>
<path d="M9.71775 13.9997C8.33278 13.9965 6.98018 13.5808 5.83262 12.8054C4.68507 12.0299 3.79464 10.9301 3.27505 9.64624C2.63785 9.39522 2.06048 9.01263 1.58123 8.5234C0.618511 7.5361 0.0662418 6.22049 0.0352676 4.84185C0.0321111 4.50104 0.0960773 4.16299 0.224019 3.84709C0.35196 3.53118 0.541408 3.24365 0.780835 3.00108C1.02123 2.75869 1.30796 2.56769 1.62437 2.43954C1.94079 2.3114 2.2803 2.24872 2.62161 2.25551H3.18292C3.50714 1.57968 4.01657 1.00982 4.65203 0.612253C5.28749 0.214683 6.02277 0.00580199 6.77234 0.00982259H12.7733C13.5228 0.00580199 14.2581 0.214683 14.8936 0.612253C15.529 1.00982 16.0385 1.57968 16.3627 2.25551H16.9244C17.2624 2.25306 17.5973 2.31788 17.91 2.44606C18.2227 2.57424 18.5065 2.76326 18.7454 3.0022C18.9844 3.24114 19.1736 3.52522 19.3018 3.83788C19.43 4.15053 19.4944 4.48553 19.4919 4.82343C19.4643 6.20099 18.9151 7.51675 17.9549 8.50497C17.4708 8.99254 16.891 9.37479 16.2521 9.62782C15.7336 10.9124 14.8437 12.0129 13.6959 12.7885C12.5481 13.5641 11.1947 13.9796 9.80943 13.9815L9.71775 13.9997ZM9.71775 8.96517C9.80308 8.95109 9.88994 8.95109 9.97526 8.96517L10.8956 9.32424C11.0063 9.3714 11.125 9.39627 11.2453 9.39772C11.3256 9.4007 11.4058 9.38674 11.4803 9.3566C11.5549 9.32646 11.6224 9.28088 11.6781 9.2229C11.7453 9.14173 11.7947 9.04752 11.8232 8.94607C11.8518 8.84461 11.8589 8.73826 11.8439 8.63395L11.7886 7.65829C11.788 7.48608 11.8428 7.31823 11.945 7.17967L12.5706 6.41568C12.6652 6.33416 12.7337 6.2267 12.7674 6.10649C12.8012 5.98627 12.799 5.85883 12.7607 5.73999C12.7224 5.62115 12.6498 5.51608 12.5522 5.43822C12.4546 5.36035 12.3363 5.31299 12.212 5.30205L11.2916 5.06274C11.126 5.00554 10.9838 4.89575 10.8867 4.74995L10.3528 3.93068C10.2961 3.82105 10.2119 3.72785 10.1087 3.66014C10.0056 3.59242 9.88672 3.55256 9.76359 3.54419C9.64092 3.55425 9.5227 3.59485 9.4198 3.66238C9.31689 3.72991 9.23247 3.82215 9.17442 3.93068L8.64996 4.74995C8.54948 4.8964 8.40394 5.00609 8.23561 5.06274L7.31522 5.30205C7.19084 5.31299 7.07263 5.36035 6.97502 5.43822C6.87741 5.51608 6.8048 5.62115 6.76649 5.73999C6.72819 5.85883 6.72599 5.98627 6.75975 6.10649C6.79352 6.2267 6.86201 6.33416 6.95659 6.41568L7.57318 7.17967C7.68294 7.31425 7.73864 7.48486 7.72957 7.65829L7.6743 8.64317C7.66182 8.74665 7.67116 8.85144 7.70126 8.95123C7.73136 9.05103 7.78151 9.14357 7.84912 9.2229C7.90369 9.28237 7.97113 9.32905 8.04596 9.3593C8.12079 9.38955 8.20133 9.40255 8.2819 9.39772C8.39906 9.39508 8.51476 9.37024 8.62255 9.32424L9.54293 8.96517C9.62831 8.95172 9.71507 8.95172 9.80044 8.96517H9.71775Z" fill="#808994"/>
</g>
</g>
<defs>
<clipPath id="clip0_1_44154">
<rect width="19.4386" height="20" fill="white"/>
</clipPath>
</defs>
</svg>
