<svg width="35" height="35" viewBox="0 0 35 35" fill="none" xmlns="http://www.w3.org/2000/svg">
<rect width="35" height="35" rx="10" fill="#85D420"/>
<path fill-rule="evenodd" clip-rule="evenodd" d="M9.99414 11.248H19.9941C22.0652 11.248 23.7441 12.927 23.7441 14.998V24.998C23.7441 27.0691 22.0652 28.748 19.9941 28.748H9.99414C7.92307 28.748 6.24414 27.0691 6.24414 24.998V14.998C6.24414 12.927 7.92307 11.248 9.99414 11.248Z" fill="white"/>
<path d="M24.9941 6.24805C27.0652 6.24805 28.7441 7.92698 28.7441 9.99805V19.998C28.7441 22.0691 27.0652 23.748 24.9941 23.748H22.502V21.248H24.9941C25.6845 21.248 26.2441 20.6884 26.2441 19.998V9.99805C26.2441 9.30769 25.6845 8.74805 24.9941 8.74805H14.9941C14.3038 8.74805 13.7441 9.30769 13.7441 9.99805V12.5H11.2441V9.99805C11.2441 7.92698 12.9231 6.24805 14.9941 6.24805H24.9941Z" fill="white"/>
</svg>
