<svg width="18" height="18" viewBox="0 0 18 18" fill="none" xmlns="http://www.w3.org/2000/svg">
<path d="M8.62061 1.12546C4.45497 1.12546 1.07794 4.65128 1.07794 9.00046C1.07794 13.3496 4.45497 16.8755 8.62061 16.8755C12.7863 16.8755 16.1633 13.3496 16.1633 9.00046C16.1633 4.65128 12.7863 1.12546 8.62061 1.12546ZM8.08185 5.59523C7.35823 5.53195 6.6681 5.34755 6.03203 5.05435C6.54722 3.63878 7.30839 2.67761 8.08185 2.36454V5.59523ZM8.08185 6.7204V8.43796H5.40302C5.43754 7.60388 5.54647 6.83062 5.71264 6.13206C6.44991 6.45638 7.24643 6.65818 8.08185 6.7204ZM8.08185 9.56296V11.2805C7.24643 11.3428 6.44991 11.5445 5.71264 11.8689C5.5463 11.1703 5.43754 10.397 5.40302 9.56296H8.08185ZM8.08185 12.4057V15.6364C7.30839 15.3233 6.54722 14.362 6.03203 12.9466C6.6681 12.6532 7.35823 12.4688 8.08185 12.4057ZM9.15938 12.4057C9.883 12.469 10.5731 12.6534 11.2092 12.9466C10.694 14.3621 9.93284 15.3235 9.15938 15.6364V12.4057ZM9.15938 11.2805V9.56296H11.8382C11.8037 10.397 11.6949 11.1703 11.5286 11.8689C10.7913 11.5444 9.99479 11.3428 9.15938 11.2805ZM9.15938 8.43796V6.7204C9.99479 6.65818 10.7913 6.45638 11.5286 6.13206C11.6949 6.83062 11.8037 7.60388 11.8382 8.43796H9.15938ZM9.15938 5.59523V2.36454C9.93284 2.67743 10.694 3.63896 11.2092 5.05435C10.5731 5.34773 9.883 5.53212 9.15938 5.59523ZM11.3306 2.88028C11.8935 3.15308 12.4158 3.50892 12.8817 3.93691C12.6551 4.14556 12.4105 4.33206 12.1576 4.50644C11.9246 3.89595 11.6464 3.34804 11.3306 2.88028ZM5.08381 4.50661C4.83092 4.33206 4.58629 4.14573 4.35968 3.93708C4.82552 3.50904 5.34791 3.15319 5.91081 2.88046C5.59479 3.34804 5.31665 3.89595 5.08381 4.50661ZM4.73462 5.6114C4.50767 6.47853 4.36523 7.43091 4.32617 8.43796H2.18291C2.29369 7.04525 2.80787 5.77101 3.6076 4.74585C3.9551 5.07034 4.33392 5.35775 4.73462 5.6114ZM4.326 9.56296C4.36506 10.57 4.5075 11.5224 4.73445 12.3895C4.33375 12.6432 3.9551 12.9306 3.60726 13.2551C2.80753 12.2299 2.29335 10.9557 2.18257 9.56296H4.326ZM5.08381 13.4943C5.31665 14.105 5.59479 14.6531 5.91081 15.1206C5.34794 14.8478 4.82556 14.492 4.35968 14.064C4.58629 13.8552 4.83092 13.6687 5.08381 13.4943ZM12.1574 13.4943C12.4103 13.6689 12.6549 13.8552 12.8816 14.0638C12.4157 14.4919 11.8933 14.8477 11.3304 15.1205C11.6464 14.6529 11.9246 14.105 12.1574 13.4943ZM12.5066 12.3895C12.7336 11.5224 12.876 10.57 12.9151 9.56296H15.0583C14.9475 10.9557 14.4334 12.2299 13.6336 13.2551C13.2861 12.9306 12.9073 12.6432 12.5066 12.3895ZM12.9152 8.43796C12.8762 7.43091 12.7337 6.47853 12.5068 5.6114C12.9075 5.35775 13.2861 5.07034 13.634 4.74585C14.4337 5.77101 14.9479 7.04525 15.0587 8.43796H12.9152Z" fill="white"/>
</svg>
