<svg width="19" height="18" viewBox="0 0 19 18" fill="none" xmlns="http://www.w3.org/2000/svg">
<path d="M16.7985 13.6419H16.3288C16.0784 13.5909 15.8538 13.4536 15.6942 13.2541C15.5345 13.0545 15.4499 12.8052 15.4551 12.5497L15.2912 7.08856C15.3098 5.50343 14.7334 3.96895 13.6759 2.78804C12.6183 1.60713 11.1564 0.865625 9.57885 0.709943V0.480584C9.57885 0.353126 9.52821 0.230888 9.43809 0.140762C9.34796 0.0506355 9.22572 0 9.09826 0C8.97081 0 8.84857 0.0506355 8.75844 0.140762C8.66831 0.230888 8.61768 0.353126 8.61768 0.480584V0.709943C7.0401 0.865625 5.57821 1.60713 4.52065 2.78804C3.46309 3.96895 2.88671 5.50343 2.9053 7.08856L2.62135 12.5497C2.64336 12.8091 2.56498 13.067 2.40239 13.2702C2.2398 13.4734 2.00539 13.6065 1.74754 13.6419H1.39805C1.23527 13.5945 1.06367 13.5855 0.896837 13.6159C0.730008 13.6462 0.572536 13.715 0.436885 13.8167C0.301235 13.9184 0.191127 14.0504 0.115296 14.202C0.0394651 14.3537 0 14.5209 0 14.6905C0 14.86 0.0394651 15.0273 0.115296 15.179C0.191127 15.3306 0.301235 15.4625 0.436885 15.5643C0.572536 15.666 0.730008 15.7348 0.896837 15.7651C1.06367 15.7954 1.23527 15.7865 1.39805 15.739H16.7985C16.9613 15.7865 17.1329 15.7954 17.2997 15.7651C17.4665 15.7348 17.624 15.666 17.7596 15.5643C17.8953 15.4625 18.0054 15.3306 18.0812 15.179C18.1571 15.0273 18.1965 14.86 18.1965 14.6905C18.1965 14.5209 18.1571 14.3537 18.0812 14.202C18.0054 14.0504 17.8953 13.9184 17.7596 13.8167C17.624 13.715 17.4665 13.6462 17.2997 13.6159C17.1329 13.5855 16.9613 13.5945 16.7985 13.6419Z" fill="#85D420"/>
<path d="M7.26336 16.1651C7.26336 16.6517 7.45669 17.1185 7.80081 17.4626C8.14493 17.8067 8.61164 18 9.0983 18C9.58496 18 10.0517 17.8067 10.3958 17.4626C10.7399 17.1185 10.9332 16.6517 10.9332 16.1651H7.26336Z" fill="#85D420"/>
</svg>
