<svg width="45" height="16" viewBox="0 0 45 16" fill="none" xmlns="http://www.w3.org/2000/svg">
<path d="M38.2637 0.203615C38.657 0.186733 39.0381 0.337321 39.3307 0.616617L43.9756 5.04967L43.9839 5.05724L43.9913 5.06684L44.4003 5.55984L44.4876 5.67506C44.868 6.22446 44.9005 6.97351 44.5688 7.55363L44.4917 7.67497L44.1268 8.20241L44.1202 8.21162L44.1127 8.22087L39.8676 13.0381C39.6002 13.3415 39.2333 13.5236 38.8402 13.5407L2.22782 15.1231C1.37076 15.1599 0.676742 14.4274 0.637911 13.5318L0.204741 3.50949C0.16603 2.61383 0.794265 1.82327 1.65139 1.78602L38.2637 0.203615Z" stroke="white" stroke-width="0.4"/>
</svg>
