<svg width="32" height="32" viewBox="0 0 32 32" fill="none" xmlns="http://www.w3.org/2000/svg">
<rect width="32" height="32" rx="16" fill="#34AADF"/>
<path d="M8.90246 15.4331C8.90246 15.4331 15.4128 12.691 17.6706 11.7255C18.5362 11.3393 21.4715 10.1034 21.4715 10.1034C21.4715 10.1034 22.8262 9.56277 22.7133 10.8758C22.6757 11.4166 22.3746 13.3089 22.0736 15.3558C21.622 18.2524 21.1328 21.4192 21.1328 21.4192C21.1328 21.4192 21.0575 22.3075 20.4178 22.462C19.7781 22.6165 18.7243 21.9214 18.5362 21.7668C18.3856 21.651 15.7138 19.913 14.7354 19.0634C14.4719 18.8317 14.1709 18.3683 14.773 17.8276C16.1278 16.5531 17.7459 14.9696 18.7243 13.9655C19.1759 13.502 19.6275 12.4207 17.7459 13.7338C15.0741 15.6262 12.4398 17.4027 12.4398 17.4027C12.4398 17.4027 11.8377 17.7889 10.7088 17.4413C9.57979 17.0938 8.26268 16.6303 8.26268 16.6303C8.26268 16.6303 7.35957 16.051 8.90246 15.4331Z" fill="white"/>
</svg>
