<svg width="12" height="12" viewBox="0 0 12 12" fill="none" xmlns="http://www.w3.org/2000/svg">
<path d="M1.43464 0.380916L1.94149 0.887767L1.43464 1.39462L0.927791 0.887767C0.893555 0.854701 0.866247 0.815147 0.847461 0.771415C0.828675 0.727682 0.818786 0.680646 0.818373 0.633051C0.817959 0.585456 0.827029 0.538256 0.845052 0.494203C0.863075 0.450151 0.889692 0.410129 0.923348 0.376473C0.957004 0.342817 0.997025 0.3162 1.04108 0.298177C1.08513 0.280154 1.13233 0.271084 1.17993 0.271498C1.22752 0.271911 1.27456 0.2818 1.31829 0.300586C1.36202 0.319372 1.40158 0.34668 1.43464 0.380916ZM10.0898 0.380916C10.157 0.313655 10.2482 0.27585 10.3433 0.275816C10.4384 0.275783 10.5296 0.313524 10.5969 0.380736C10.6641 0.447949 10.7019 0.539128 10.702 0.634214C10.702 0.729301 10.6643 0.820507 10.597 0.887767L10.0898 1.39462L9.58298 0.887767L10.0898 0.380916Z" fill="#F6365C"/>
<path d="M1.22904 0.50659C1.78321 0.041678 2.86896 -0.327169 3.5235 0.452822C4.17803 1.23281 3.83069 2.06693 3.0722 2.70318C2.31408 3.33944 1.43229 3.53694 0.777752 2.75695C0.123219 1.97696 0.674876 0.971503 1.22904 0.50659ZM10.2412 0.50659C10.7954 0.971503 11.3471 1.97696 10.6929 2.75695C10.038 3.53694 9.15621 3.33944 8.39809 2.70318C7.6396 2.06693 7.29226 1.23281 7.94644 0.452822C8.60133 -0.327169 9.68708 0.041678 10.2412 0.50659Z" fill="#FFE768"/>
<path d="M3.21071 0.180819L3.23724 0.196949C3.33904 0.263263 3.43546 0.347499 3.524 0.452884C4.17817 1.23288 3.83084 2.06699 3.07235 2.70325C2.31422 3.3395 1.43243 3.53701 0.777898 2.75701C0.577206 2.525 0.471242 2.22592 0.4811 1.91931C0.616594 1.58488 0.837759 1.24865 1.13707 0.949699C1.78587 0.3009 2.61066 0.017723 3.21071 0.180819ZM10.3335 0.949699C10.6325 1.24829 10.8536 1.58416 10.9895 1.91859C10.9995 2.22544 10.8935 2.5248 10.6927 2.75701C10.0381 3.53701 9.15636 3.3395 8.39823 2.70325C7.63975 2.06699 7.29241 1.23288 7.94658 0.452884C8.04301 0.338179 8.14839 0.248566 8.25987 0.18046C8.85956 0.0173645 9.68472 0.300542 10.3335 0.949699Z" fill="#FFC32A"/>
<path d="M3.42152 0.342956L3.46991 0.392064C3.48783 0.411421 3.50575 0.431494 3.52367 0.453001C3.73946 0.710011 3.84628 0.972757 3.86564 1.23299C3.71867 1.62012 3.37922 2.07356 2.90606 2.47037C2.39921 2.89585 1.8558 3.1586 1.43533 3.21416C1.20162 3.1439 0.979023 2.99658 0.777931 2.75677C0.755921 2.73055 0.734877 2.70353 0.714844 2.67576C0.741728 2.23773 1.13244 1.61905 1.754 1.0975C2.34437 0.602117 2.98492 0.326826 3.42152 0.342956ZM9.71665 1.0975C10.3382 1.61905 10.7286 2.23738 10.7562 2.67576C10.736 2.70355 10.7149 2.73057 10.6927 2.75677C10.492 2.99658 10.269 3.1439 10.035 3.21452C9.61521 3.1586 9.07144 2.89549 8.56459 2.47037C8.09143 2.07356 7.75234 1.62012 7.60501 1.23299C7.62437 0.973115 7.73119 0.709653 7.94697 0.452643C7.97995 0.413213 8.01436 0.376651 8.04949 0.342956C8.48609 0.327184 9.12628 0.602117 9.71665 1.0975Z" fill="#FFA825"/>
<path d="M0 5.90613C-1.58717e-08 6.65929 0.148346 7.40508 0.436569 8.10091C0.724791 8.79674 1.14725 9.42899 1.67981 9.96156C2.21238 10.4941 2.84462 10.9166 3.54045 11.2048C4.23629 11.493 4.98207 11.6414 5.73523 11.6414C6.4884 11.6414 7.23418 11.493 7.93001 11.2048C8.62584 10.9166 9.25809 10.4941 9.79066 9.96156C10.3232 9.42899 10.7457 8.79674 11.0339 8.10091C11.3221 7.40508 11.4705 6.65929 11.4705 5.90613C11.4705 5.15297 11.3221 4.40718 11.0339 3.71135C10.7457 3.01552 10.3232 2.38328 9.79066 1.85071C9.25809 1.31814 8.62584 0.89569 7.93001 0.607467C7.23418 0.319245 6.4884 0.170898 5.73523 0.170898C4.98207 0.170898 4.23629 0.319245 3.54045 0.607467C2.84462 0.89569 2.21238 1.31814 1.67981 1.85071C1.14725 2.38328 0.724791 3.01552 0.436569 3.71135C0.148346 4.40718 -1.1223e-08 5.15297 0 5.90613Z" fill="#FFC42D"/>
<path d="M5.73581 0.170898C8.42706 0.170898 10.6853 2.02445 11.3036 4.52466L5.73581 6.26458L0.167969 4.52466C0.786299 2.02445 3.04455 0.170898 5.73581 0.170898Z" fill="#FFB468"/>
<path d="M8.2441 5.90625L10.8468 8.50933C9.89836 10.3683 7.96522 11.6415 5.73493 11.6415C3.50464 11.6415 1.57151 10.3683 0.623047 8.50933L3.22577 5.90625H8.2441Z" fill="#FFAF13"/>
<path d="M6.09339 5.90625L8.33157 11.0214C7.52717 11.4303 6.63732 11.6428 5.73494 11.6415C4.80046 11.6415 3.91795 11.4178 3.13867 11.0214L5.37649 5.90625H6.09339Z" fill="#FF9D2B"/>
<path d="M0.359375 5.54768C0.359375 6.97369 0.925856 8.3413 1.9342 9.34964C2.94254 10.358 4.31015 10.9245 5.73616 10.9245C7.16217 10.9245 8.52977 10.358 9.53812 9.34964C10.5465 8.3413 11.1129 6.97369 11.1129 5.54768C11.1129 4.12167 10.5465 2.75406 9.53812 1.74572C8.52977 0.737379 7.16217 0.170898 5.73616 0.170898C4.31015 0.170898 2.94254 0.737379 1.9342 1.74572C0.925856 2.75406 0.359375 4.12167 0.359375 5.54768Z" fill="#FFDF39"/>
<path d="M5.73593 0.081543C2.71704 0.081543 0.269531 2.52905 0.269531 5.54794C0.269531 8.56682 2.71704 11.0143 5.73593 11.0143C8.75481 11.0143 11.2023 8.56682 11.2023 5.54794C11.2023 2.52905 8.75481 0.081543 5.73593 0.081543ZM5.73593 0.260769C8.65588 0.260769 11.0231 2.62799 11.0231 5.54794C11.0231 8.46789 8.65588 10.8351 5.73593 10.8351C2.81598 10.8351 0.448757 8.46789 0.448757 5.54794C0.448757 2.62799 2.81598 0.260769 5.73593 0.260769Z" fill="#FFE686"/>
<path d="M1.43359 5.54801C1.43359 6.68882 1.88678 7.7829 2.69345 8.58957C3.50013 9.39625 4.59421 9.84943 5.73502 9.84943C6.87583 9.84943 7.96991 9.39625 8.77659 8.58957C9.58326 7.7829 10.0364 6.68882 10.0364 5.54801C10.0364 4.4072 9.58326 3.31311 8.77659 2.50644C7.96991 1.69977 6.87583 1.24658 5.73502 1.24658C4.59421 1.24658 3.50013 1.69977 2.69345 2.50644C1.88678 3.31311 1.43359 4.4072 1.43359 5.54801Z" fill="#FA7800"/>
<path d="M5.73456 1.06738C3.2598 1.06738 1.25391 3.07328 1.25391 5.54803C1.25391 8.02279 3.2598 10.0287 5.73456 10.0287C8.20931 10.0287 10.2152 8.02279 10.2152 5.54803C10.2152 3.07328 8.20931 1.06738 5.73456 1.06738ZM5.73456 1.24661C8.11002 1.24661 10.036 3.17257 10.036 5.54803C10.036 7.9235 8.11002 9.84946 5.73456 9.84946C3.3591 9.84946 1.43313 7.9235 1.43313 5.54803C1.43313 3.17257 3.3591 1.24661 5.73456 1.24661Z" fill="#FFD671"/>
<path d="M1.79297 5.90635C1.79297 6.42415 1.89496 6.93688 2.09311 7.41526C2.29126 7.89365 2.5817 8.32832 2.94784 8.69446C3.31398 9.06059 3.74865 9.35103 4.22703 9.54918C4.70542 9.74734 5.21814 9.84933 5.73594 9.84933C6.25374 9.84933 6.76647 9.74734 7.24485 9.54918C7.72324 9.35103 8.15791 9.06059 8.52404 8.69446C8.89018 8.32832 9.18062 7.89365 9.37877 7.41526C9.57693 6.93688 9.67892 6.42415 9.67892 5.90635C9.67892 4.86061 9.2635 3.8577 8.52404 3.11825C7.78459 2.3788 6.78168 1.96338 5.73594 1.96338C4.6902 1.96338 3.68729 2.3788 2.94784 3.11825C2.20839 3.8577 1.79297 4.86061 1.79297 5.90635Z" fill="#FFEC8B"/>
<path d="M9.66279 5.54785C9.67354 5.66614 9.67892 5.78551 9.67892 5.9063C9.67892 8.0839 7.91354 9.84928 5.73594 9.84928C3.55835 9.84928 1.79297 8.0839 1.79297 5.9063C1.79297 5.78551 1.79835 5.66614 1.8091 5.54785C1.99012 7.55769 3.67914 9.13237 5.73594 9.13237C7.77553 9.13237 9.45309 7.58386 9.65777 5.59875L9.66279 5.54785Z" fill="#FFB801"/>
<path d="M5.73585 1.96338C7.63099 1.96338 9.21355 3.30041 9.5928 5.08227C9.16589 4.45236 8.59107 3.9367 7.91868 3.58044C7.24628 3.22418 6.4968 3.03819 5.73585 3.03874C4.13214 3.03874 2.71768 3.84884 1.87891 5.08227C2.25851 3.30041 3.84107 1.96338 5.73585 1.96338Z" fill="#FFB801"/>
<path d="M5.73514 5.90585C5.73515 5.92912 5.73049 5.95216 5.72145 5.97361C5.71241 5.99505 5.69916 6.01447 5.68248 6.03071C5.66581 6.04695 5.64605 6.05968 5.62437 6.06815C5.6027 6.07663 5.57954 6.08068 5.55627 6.08005L2.32985 5.99617C2.30608 5.99617 2.28329 5.98673 2.26648 5.96993C2.24968 5.95312 2.24023 5.93033 2.24023 5.90656C2.24023 5.8828 2.24968 5.86 2.26648 5.8432C2.28329 5.82639 2.30608 5.81695 2.32985 5.81695L5.55627 5.732C5.57954 5.73137 5.6027 5.73542 5.62437 5.7439C5.64605 5.75237 5.66581 5.7651 5.68248 5.78134C5.69916 5.79758 5.71241 5.817 5.72145 5.83844C5.73049 5.85989 5.73515 5.88293 5.73514 5.9062V5.90585Z" fill="#FF9B25"/>
<path d="M5.73541 3.75537C5.97437 3.75537 6.09386 3.87486 6.09386 4.11382V5.90608C6.09386 6.14505 5.97437 6.26454 5.73541 6.26454C5.49644 6.26454 5.37695 6.14505 5.37695 5.90608V4.11382C5.37695 3.87486 5.49644 3.75537 5.73541 3.75537Z" fill="#FF8A00"/>
<path d="M8.52908 7.5229C8.48148 7.60517 8.40316 7.66517 8.31134 7.6897C8.21952 7.71424 8.12172 7.7013 8.03943 7.65374L5.55608 6.21993C5.47442 6.17206 5.41501 6.09383 5.39081 6.00232C5.36662 5.91081 5.3796 5.81344 5.42693 5.73147C5.47426 5.6495 5.55209 5.58957 5.64344 5.56477C5.73479 5.53997 5.83224 5.55231 5.91453 5.59909L8.39788 7.0329C8.48021 7.08044 8.54028 7.15873 8.56489 7.25055C8.58949 7.34238 8.57661 7.44022 8.52908 7.52255V7.5229Z" fill="#F87700"/>
<path d="M8.64432 4.6413C8.68052 4.75744 8.70991 4.87573 8.73178 4.99617C8.74033 5.04294 8.72996 5.0912 8.70294 5.13032C8.67591 5.16944 8.63445 5.19623 8.58768 5.20479C8.54091 5.21334 8.49265 5.20297 8.45353 5.17594C8.41441 5.14892 8.38762 5.10746 8.37906 5.06069C8.3598 4.95505 8.33419 4.85067 8.30235 4.74812C8.29444 4.72543 8.29117 4.70138 8.29274 4.67739C8.2943 4.65341 8.30068 4.62999 8.31148 4.60853C8.32228 4.58706 8.33729 4.56798 8.35561 4.55243C8.37394 4.53688 8.3952 4.52518 8.41814 4.51801C8.44108 4.51085 8.46523 4.50837 8.48914 4.51072C8.51306 4.51308 8.53626 4.52022 8.55736 4.53172C8.57846 4.54322 8.59703 4.55885 8.61197 4.57768C8.62691 4.5965 8.63791 4.61814 8.64432 4.6413ZM5.73476 2.50098C5.7583 2.50098 5.7816 2.50562 5.80335 2.51462C5.82509 2.52363 5.84485 2.53683 5.86149 2.55348C5.87814 2.57012 5.89134 2.58988 5.90035 2.61162C5.90935 2.63337 5.91399 2.65667 5.91399 2.68021C5.91399 2.70374 5.90935 2.72705 5.90035 2.74879C5.89134 2.77054 5.87814 2.7903 5.86149 2.80694C5.84485 2.82358 5.82509 2.83678 5.80335 2.84579C5.7816 2.8548 5.7583 2.85943 5.73476 2.85943C5.56652 2.85947 5.39865 2.87506 5.23329 2.90603C4.8945 2.96986 4.57131 3.09878 4.2816 3.28563C3.82713 3.57851 3.47091 4.00091 3.25893 4.49828C3.25039 4.52083 3.23737 4.54143 3.22068 4.55884C3.20398 4.57624 3.18394 4.5901 3.16176 4.59958C3.13958 4.60906 3.11571 4.61396 3.09159 4.614C3.06747 4.61403 3.04359 4.6092 3.02138 4.59978C2.99918 4.59037 2.9791 4.57657 2.96235 4.55921C2.9456 4.54185 2.93253 4.52129 2.92392 4.49876C2.91531 4.47623 2.91133 4.45219 2.91223 4.42809C2.91313 4.40398 2.91889 4.38031 2.92916 4.35848C3.09268 3.97492 3.33281 3.62879 3.63484 3.34131C3.93686 3.05383 4.29441 2.83107 4.68557 2.68666C5.02156 2.56318 5.3768 2.50032 5.73476 2.50098ZM7.84174 3.34693C8.04724 3.54367 8.22434 3.76806 8.36795 4.01365C8.39195 4.05472 8.39866 4.10364 8.3866 4.14966C8.37453 4.19567 8.34468 4.23501 8.30361 4.25901C8.26254 4.28301 8.21362 4.28972 8.1676 4.27765C8.12159 4.26559 8.08225 4.23574 8.05825 4.19467C7.93172 3.97768 7.77548 3.77945 7.59405 3.60573C7.56165 3.57246 7.54343 3.52791 7.54322 3.48147C7.54302 3.43502 7.56085 3.39032 7.59297 3.35676C7.62508 3.32321 7.66896 3.30343 7.71537 3.3016C7.76178 3.29976 7.80708 3.31602 7.84174 3.34693ZM6.44091 2.58593L6.47281 2.59095C6.76526 2.66364 7.04519 2.77963 7.30335 2.93507C7.34408 2.95959 7.37341 2.9993 7.38487 3.04545C7.39633 3.0916 7.38899 3.14041 7.36446 3.18114C7.33994 3.22188 7.30023 3.25121 7.25408 3.26267C7.20793 3.27413 7.15912 3.26679 7.11839 3.24226C6.89075 3.10551 6.64408 3.00331 6.38643 2.93901C6.34543 2.92907 6.30926 2.90498 6.28427 2.87099C6.25928 2.837 6.24709 2.79529 6.24983 2.75319C6.25257 2.71109 6.27007 2.67131 6.29925 2.64085C6.32844 2.61039 6.36743 2.5912 6.40937 2.58665L6.44091 2.58593Z" fill="#FFE3B6"/>
<path d="M2.15128 9.84912C2.29036 9.9735 2.45454 10.099 2.64451 10.2255C2.83449 10.352 3.02842 10.4657 3.22664 10.566L1.91972 11.8729C1.87954 11.9132 1.83182 11.9451 1.7793 11.9669C1.72677 11.9886 1.67047 11.9998 1.61361 11.9998C1.59314 11.9999 1.57296 11.995 1.55473 11.9857C1.5365 11.9764 1.52075 11.9629 1.50877 11.9463C1.49679 11.9297 1.48894 11.9105 1.48585 11.8903C1.48276 11.87 1.48453 11.8493 1.49102 11.8299L2.15128 9.84912ZM9.32033 9.84912L9.98059 11.8299C9.98708 11.8493 9.98885 11.87 9.98576 11.8903C9.98267 11.9105 9.97482 11.9297 9.96284 11.9463C9.95086 11.9629 9.93511 11.9764 9.91688 11.9857C9.89865 11.995 9.87847 11.9999 9.858 11.9998C9.7433 11.9998 9.63326 11.9543 9.55189 11.8729L8.24497 10.566C8.62894 10.3677 8.98962 10.1273 9.32033 9.84912Z" fill="#F87700"/>
<path d="M2.64455 10.2257C2.83453 10.3522 3.02845 10.4658 3.22668 10.5662L1.91976 11.8731C1.87567 11.9172 1.82298 11.9509 1.76562 11.9724L2.56497 10.1719L2.64455 10.2257ZM8.90456 10.168L9.70642 11.9724C9.66385 11.9565 9.62405 11.934 9.58848 11.9057L9.55192 11.8735L8.24501 10.5662C8.43815 10.4665 8.62556 10.356 8.80634 10.2354L8.90456 10.168Z" fill="#F34F08"/>
<path d="M5.73587 5.72705C5.71233 5.72705 5.68902 5.73169 5.66728 5.74069C5.64553 5.7497 5.62578 5.7629 5.60913 5.77954C5.59249 5.79619 5.57929 5.81594 5.57028 5.83769C5.56128 5.85943 5.55664 5.88274 5.55664 5.90628C5.55664 5.92981 5.56128 5.95312 5.57028 5.97486C5.57929 5.99661 5.59249 6.01637 5.60913 6.03301C5.62578 6.04965 5.64553 6.06285 5.66728 6.07186C5.68902 6.08087 5.71233 6.0855 5.73587 6.0855C5.7834 6.0855 5.82899 6.06662 5.8626 6.03301C5.89621 5.9994 5.91509 5.95381 5.91509 5.90628C5.91509 5.85874 5.89621 5.81316 5.8626 5.77954C5.82899 5.74593 5.7834 5.72705 5.73587 5.72705Z" fill="#FFC32A"/>
</svg>
