<svg width="12" height="14" viewBox="0 0 12 14" fill="none" xmlns="http://www.w3.org/2000/svg">
<path d="M9.45457 3.39008V6.3407C9.45457 8.2117 7.90873 9.73077 6.00475 9.73077C4.10078 9.73077 2.55494 8.2117 2.55494 6.3407V3.39008C2.55494 1.51907 4.10078 0 6.00475 0C7.90873 0 9.45457 1.51907 9.45457 3.39008ZM7.9905 3.39008C7.9905 2.3131 7.10071 1.43871 6.00475 1.43871C4.9088 1.43871 4.019 2.3131 4.019 3.39008V6.3407C4.019 7.41767 4.9088 8.29206 6.00475 8.29206C7.10071 8.29206 7.9905 7.41767 7.9905 6.3407V3.39008Z" fill="#A7B4C9"/>
<path d="M5.74986 0.250991C5.74986 0.184424 5.77677 0.120584 5.82467 0.0735136C5.87257 0.0264436 5.93753 0 6.00527 0H6.0054C7.90938 0 9.45521 1.51907 9.45521 3.39008V6.3407C9.45521 6.49765 9.44435 6.65208 9.42327 6.80332C9.41829 6.83829 9.40584 6.87183 9.38673 6.90174C9.36762 6.93165 9.34229 6.95724 9.3124 6.97684C9.2825 6.99644 9.24873 7.00959 9.21329 7.01545C9.17785 7.0213 9.14155 7.01972 9.10678 7.0108C8.83699 6.94237 8.42493 6.8369 8.17354 6.77262C8.11527 6.75768 8.06424 6.72299 8.02946 6.67468C7.99467 6.62637 7.97837 6.56754 7.98342 6.50857C7.98872 6.45326 7.99115 6.39726 7.99115 6.3407V3.39008C7.99115 2.3131 7.10135 1.43871 6.0054 1.43871H6.00527C5.93753 1.43871 5.87257 1.41227 5.82467 1.3652C5.77677 1.31813 5.74986 1.25429 5.74986 1.18772V0.250991Z" fill="#CAD1E6"/>
<path d="M11.691 6.57408C11.691 5.71771 10.9835 5.02243 10.112 5.02243H1.57899C0.707531 5.02243 0 5.71771 0 6.57408V12.4482C0 13.3046 0.707531 13.9999 1.57899 13.9999H10.112C10.9835 13.9999 11.691 13.3046 11.691 12.4482V6.57408Z" fill="#FFBC54"/>
<path d="M11.1015 6.48111C11.1015 6.0227 10.7227 5.65048 10.2562 5.65048H7.05623C6.58974 5.65048 6.21096 6.0227 6.21096 6.48111V12.5417C6.21096 13.0001 6.58974 13.3723 7.05623 13.3723H10.2562C10.7227 13.3723 11.1015 13.0001 11.1015 12.5417V6.48111Z" fill="#FFE185"/>
<path d="M2.74673 9.54251C2.74673 10.3084 3.05635 11.043 3.60747 11.5845C4.15859 12.1261 4.90606 12.4304 5.68546 12.4304C6.46486 12.4304 7.21234 12.1261 7.76346 11.5845C8.31458 11.043 8.62419 10.3084 8.62419 9.54251C8.62419 8.77661 8.31458 8.04208 7.76346 7.5005C7.21234 6.95892 6.46486 6.65467 5.68546 6.65467C4.90606 6.65467 4.15859 6.95892 3.60747 7.5005C3.05635 8.04208 2.74673 8.77661 2.74673 9.54251Z" fill="#FE9B57"/>
<path d="M5.68526 6.26214C7.52759 6.26214 9.02327 7.73192 9.02327 9.54235C9.02327 11.3528 7.52759 12.8226 5.68526 12.8226C3.84293 12.8226 2.34725 11.3528 2.34725 9.54235C2.34725 7.73192 3.84293 6.26214 5.68526 6.26214ZM5.68526 6.65451C4.06334 6.65451 2.74653 7.94851 2.74653 9.54235C2.74653 11.1362 4.06334 12.4302 5.68526 12.4302C7.30718 12.4302 8.62399 11.1362 8.62399 9.54235C8.62399 7.94851 7.30718 6.65451 5.68526 6.65451Z" fill="#FFE185"/>
<path d="M4.40829 9.54299C4.40829 9.87599 4.54291 10.1954 4.78252 10.4308C5.02214 10.6663 5.34713 10.7986 5.686 10.7986C6.02487 10.7986 6.34986 10.6663 6.58948 10.4308C6.82909 10.1954 6.96371 9.87599 6.96371 9.54299C6.96371 9.20999 6.82909 8.89063 6.58948 8.65516C6.34986 8.41969 6.02487 8.28741 5.686 8.28741C5.34713 8.28741 5.02214 8.41969 4.78252 8.65516C4.54291 8.89063 4.40829 9.20999 4.40829 9.54299Z" fill="#29395C"/>
</svg>
