<svg width="16" height="16" viewBox="0 0 16 16" fill="none" xmlns="http://www.w3.org/2000/svg">
<path d="M4.20682 2.3826H12.5407V1.08664C12.5381 0.797542 12.4214 0.521179 12.216 0.317685C12.0107 0.11419 11.7333 3.37946e-05 11.4441 4.57414e-05H1.09657C0.953037 -0.00127111 0.810667 0.0258571 0.677683 0.0798738C0.544698 0.13389 0.423731 0.213733 0.321773 0.314764C0.219815 0.415795 0.138886 0.536029 0.0836575 0.668514C0.0284286 0.801 -6.03976e-06 0.943102 9.62279e-10 1.08664V11.1651C-6.03976e-06 11.3086 0.0284286 11.4507 0.0836575 11.5832C0.138886 11.7157 0.219815 11.8359 0.321773 11.937C0.423731 12.038 0.544698 12.1178 0.677683 12.1718C0.810667 12.2259 0.953037 12.253 1.09657 12.2517H2.09344V4.55578C2.09574 3.99039 2.31729 3.44794 2.71147 3.04261C3.10565 2.63727 3.64171 2.40066 4.20682 2.3826Z" fill="#4B555C"/>
<path d="M15.9996 4.5556V14.8334C15.9996 14.9866 15.9695 15.1382 15.9109 15.2798C15.8522 15.4213 15.7663 15.5498 15.658 15.6581C15.5497 15.7665 15.4211 15.8523 15.2796 15.911C15.1381 15.9696 14.9865 15.9998 14.8333 15.9998H4.20659C3.89633 15.9998 3.59863 15.8772 3.37831 15.6588C3.15799 15.4403 3.0329 15.1436 3.03027 14.8334V4.5556C3.03027 4.24362 3.15421 3.94442 3.37481 3.72382C3.59541 3.50322 3.89461 3.37929 4.20659 3.37929H14.8034C14.9599 3.37527 15.1156 3.40281 15.2613 3.46024C15.4069 3.51768 15.5395 3.60383 15.6511 3.7136C15.7627 3.82337 15.8511 3.95452 15.911 4.09917C15.9709 4.24383 16.001 4.39905 15.9996 4.5556Z" fill="#4B555C"/>
</svg>
