<svg width="34" height="9" viewBox="0 0 34 9" fill="none" xmlns="http://www.w3.org/2000/svg">
<path d="M3.22635 0.0165147C3.86498 -0.0110859 4.34193 -0.00408662 4.65629 0.0374845C4.97384 0.0752575 5.25905 0.173039 5.51206 0.331061C5.76893 0.489104 5.98674 0.705664 6.16412 0.981125C6.34129 1.25286 6.43759 1.56322 6.4527 1.91178C6.46904 2.28984 6.38098 2.64172 6.18908 2.96626C6.0009 3.2905 5.73594 3.53932 5.39423 3.71219C5.89203 3.8341 6.28045 4.06171 6.55955 4.3952C6.83867 4.72874 6.98871 5.12845 7.0089 5.59448C7.02476 5.96152 6.95364 6.32377 6.79621 6.67991C6.64234 7.03194 6.42117 7.31871 6.13316 7.54067C5.84851 7.75883 5.49056 7.90159 5.05971 7.96806C4.7894 8.00915 4.13471 8.05563 3.09654 8.10785L0.348498 8.22668L0 0.155315L3.22635 0.0165147ZM10.8763 1.78197C11.7609 1.74376 12.498 2.00105 13.0881 2.55286C13.6781 3.101 13.9919 3.81359 14.0298 4.69078C14.068 5.57507 13.8139 6.32133 13.2669 6.92955C12.723 7.53407 12.0171 7.85572 11.1509 7.89316C10.6152 7.91625 10.0977 7.81668 9.59917 7.59559C9.10443 7.37428 8.72014 7.0361 8.44683 6.58105C8.17335 6.12226 8.02253 5.55702 7.99348 4.8855C7.97127 4.37164 8.07655 3.86844 8.30903 3.37667C8.5415 2.88507 8.88313 2.50251 9.33455 2.22933C9.78974 1.95592 10.3037 1.80672 10.8763 1.78197ZM18.4704 1.45344C18.8116 1.43871 19.1261 1.4877 19.414 1.60023C19.7019 1.70914 19.9217 1.85592 20.0731 2.0406C20.228 2.22501 20.3381 2.43699 20.4036 2.67668C20.4728 2.91632 20.5179 3.26192 20.5374 3.71319L20.6942 7.34695L19.1474 7.41385L19.0186 4.43015C18.9913 3.79884 18.9398 3.39257 18.8658 3.21191C18.7916 3.02774 18.6771 2.88772 18.5223 2.79152C18.3711 2.69515 18.1912 2.65071 17.9821 2.65971C17.7142 2.67128 17.4766 2.75537 17.2701 2.91134C17.0636 3.06736 16.925 3.26874 16.8547 3.51447C16.7882 3.76012 16.7696 4.20947 16.7978 4.86253L16.9116 7.51071L15.3649 7.57762L15.1122 1.73104L16.5491 1.66813L16.5861 2.5279C17.0677 1.84517 17.6959 1.48692 18.4704 1.45344ZM27.5533 7.05038L26.1164 7.11229L26.0784 6.23755C25.8791 6.5585 25.6092 6.81659 25.2686 7.01143C24.9313 7.2062 24.5695 7.31232 24.1841 7.32898C23.7914 7.34594 23.4351 7.2743 23.1157 7.11528C22.7965 6.95632 22.5606 6.72398 22.4077 6.41829C22.2547 6.11233 22.1659 5.6837 22.1421 5.13314L21.9823 1.43347L23.5291 1.36657L23.6459 4.0537C23.6814 4.87533 23.7306 5.37856 23.7937 5.56352C23.8604 5.74449 23.971 5.8873 24.1262 5.9909C24.2812 6.09077 24.4744 6.13562 24.7054 6.12571C24.9696 6.11429 25.2034 6.03215 25.4064 5.88006C25.6093 5.72421 25.7449 5.53808 25.8128 5.32187C25.8805 5.1019 25.8969 4.57369 25.8607 3.73715L25.7539 1.27071L27.3007 1.2038L27.5533 7.05038ZM31.0333 0.911225C31.8331 0.876701 32.4334 0.981085 32.8337 1.22477C33.2339 1.46849 33.5186 1.84253 33.6875 2.34616L32.2405 2.67968C32.1683 2.45481 32.0405 2.28592 31.8591 2.17241C31.6813 2.05879 31.4311 2.00867 31.1082 2.02262C30.7009 2.04025 30.4116 2.10996 30.2404 2.23132C30.1267 2.31702 30.0722 2.42368 30.0777 2.55186C30.0824 2.66197 30.1383 2.75383 30.2444 2.82647C30.3886 2.92318 30.8755 3.04736 31.7053 3.19893C32.539 3.35038 33.1253 3.55466 33.4638 3.81204C33.7987 4.07337 33.9767 4.45058 33.998 4.94242C34.0211 5.47823 33.817 5.94868 33.3859 6.35338C32.9548 6.75797 32.3007 6.97951 31.4237 7.01743C30.6272 7.05185 29.9886 6.91785 29.5085 6.61501C29.032 6.312 28.711 5.88588 28.5439 5.33785L30.0856 5.03428C30.1647 5.33229 30.3084 5.55623 30.517 5.70532C30.7256 5.85075 31.0124 5.91474 31.3758 5.89904C31.7755 5.8817 32.073 5.79579 32.2685 5.64041C32.3997 5.53186 32.4616 5.39132 32.4542 5.21902C32.4492 5.10156 32.4081 5.00534 32.3314 4.93143C32.251 4.86147 32.0755 4.80045 31.8052 4.74969C30.5456 4.52838 29.7434 4.31174 29.3996 4.09863C28.9236 3.80297 28.674 3.37398 28.6497 2.81249C28.6279 2.30611 28.8089 1.87161 29.1939 1.50936C29.5791 1.14705 30.1928 0.947553 31.0333 0.911225ZM3.14247 4.58194L1.82637 4.63785L1.91923 6.79674L3.42806 6.73084C4.0151 6.70547 4.38695 6.67281 4.54345 6.63298C4.78375 6.57847 4.97544 6.46377 5.11862 6.28848C5.26532 6.1093 5.33271 5.87677 5.32033 5.59048C5.30986 5.34824 5.24237 5.14512 5.11762 4.98136C4.99288 4.81766 4.81656 4.70224 4.58939 4.63486C4.36571 4.56738 3.88347 4.54991 3.14247 4.58194ZM10.9362 3.04315C10.5325 3.06061 10.1996 3.22922 9.93768 3.54942C9.67581 3.86963 9.55713 4.31965 9.58219 4.89948C9.60726 5.47914 9.76412 5.91719 10.0525 6.21358C10.341 6.50991 10.6874 6.64933 11.091 6.63198C11.4948 6.61453 11.8263 6.44576 12.0846 6.12571C12.3464 5.80551 12.4644 5.35176 12.4391 4.76467C12.4143 4.19241 12.2581 3.75792 11.9697 3.46155C11.6848 3.16497 11.34 3.0257 10.9362 3.04315ZM4.01821 1.35558C3.85592 1.34421 3.39034 1.35538 2.62322 1.38854L1.68757 1.42848L1.76845 3.29479L2.83691 3.24886C3.47164 3.22142 3.86588 3.19498 4.01921 3.16997C4.29662 3.12486 4.51132 3.02003 4.66228 2.85542C4.81653 2.68709 4.88812 2.47259 4.87697 2.21235C4.86618 1.96276 4.78745 1.76334 4.64131 1.61521C4.49876 1.46335 4.29101 1.37694 4.01821 1.35558Z" fill="#FCFF79"/>
</svg>
