<svg width="16" height="16" viewBox="0 0 16 16" fill="none" xmlns="http://www.w3.org/2000/svg">
<path d="M13.939 7.2695H3.97264C2.9604 7.2695 2.13867 6.44778 2.13867 5.43553C2.13867 4.42329 2.9604 3.60156 3.97264 3.60156H13.9367C14.9489 3.60156 15.7706 4.42329 15.7706 5.43553C15.7706 6.44778 14.9512 7.2695 13.939 7.2695Z" fill="#FF4A4A"/>
<path d="M13.938 7.40627H3.97169C2.886 7.40627 2 6.52257 2 5.43458C2 4.34659 2.8837 3.46289 3.97169 3.46289H13.9357C15.0214 3.46289 15.9074 4.34659 15.9074 5.43458C15.9074 6.52257 15.0237 7.40627 13.938 7.40627ZM3.97169 3.73833C3.03749 3.73833 2.27544 4.49809 2.27544 5.43458C2.27544 6.37108 3.03749 7.13083 3.97169 7.13083H13.9357C14.8699 7.13083 15.632 6.37108 15.632 5.43458C15.632 4.50038 14.8722 3.73833 13.9357 3.73833H3.97169Z" fill="#91000A"/>
<path d="M13.072 14.8537H4.78815C3.84477 14.8537 3.07812 14.0893 3.07812 13.1436V8.05947C3.07812 7.62336 3.43161 7.26758 3.87001 7.26758H13.9901C14.4262 7.26758 14.782 7.62106 14.782 8.05947V13.1459C14.782 14.0893 14.0177 14.8537 13.072 14.8537Z" fill="#FF4A4A"/>
<path d="M13.073 14.9904H4.78915C3.77002 14.9904 2.94141 14.1618 2.94141 13.1427V8.05852C2.94141 7.54666 3.35916 7.12891 3.87102 7.12891H13.9911C14.503 7.12891 14.9207 7.54666 14.9207 8.05852V13.145C14.9207 14.1618 14.0921 14.9904 13.073 14.9904ZM3.87102 7.40435C3.51065 7.40435 3.21685 7.69815 3.21685 8.05852V13.145C3.21685 14.0126 3.92151 14.7173 4.78915 14.7173H13.073C13.9406 14.7173 14.6453 14.0126 14.6453 13.145V8.05852C14.6453 7.69815 14.3515 7.40435 13.9911 7.40435H3.87102Z" fill="#91000A"/>
<path d="M15.735 5.30859C15.7373 5.34991 15.7396 5.39352 15.7396 5.43484C15.7396 5.93981 15.5353 6.39888 15.2025 6.7317C14.8719 7.06223 14.4129 7.26881 13.9056 7.26881H13.8964C13.8758 7.26651 13.8551 7.26651 13.8344 7.26651H8.53223V6.80056C10.9584 6.78908 13.8 6.77531 14.0869 6.77531C14.7801 6.77531 15.5674 6.2382 15.735 5.30859Z" fill="#C62020"/>
<path d="M13.9068 3.60352C14.8754 3.60352 15.6696 4.35639 15.7362 5.30895C15.5686 6.23856 14.7813 6.77567 14.0904 6.77567C13.8035 6.77567 10.9619 6.78944 8.53572 6.80091V3.60352H13.9068ZM8.53572 7.80627C11.0767 7.70528 13.8747 7.62953 14.5518 7.61117C14.6757 7.76725 14.7515 7.96465 14.7515 8.18041V13.019C14.7515 13.0878 14.7469 13.1567 14.74 13.2233C14.5702 13.6203 13.8999 14.2539 13.0346 14.2539H8.09961V7.82463C8.24422 7.81775 8.39112 7.81086 8.53572 7.80627Z" fill="#FF2B3F"/>
<path d="M13.9 7.26953C14.1639 7.28789 14.3981 7.41643 14.5542 7.61383C13.8747 7.63219 11.079 7.70564 8.53809 7.80893V7.26953H13.9Z" fill="#C62020"/>
<path d="M7.52702 7.26953H8.53467V7.80664C8.38777 7.81353 8.24317 7.81812 8.09856 7.825V7.64597L7.50177 7.69187V7.85025C6.41149 7.89845 5.43827 7.95124 4.80017 8.00633C4.38471 8.04306 3.87285 8.369 3.87285 8.79134C3.87285 10.079 3.82924 12.2068 3.82924 12.6039C3.82924 13.3659 4.08173 14.2565 5.41302 14.2565H7.50177V14.3942L8.09856 14.4631V14.2565H13.0335C13.9012 14.2565 14.5691 13.623 14.739 13.2259C14.638 14.1418 13.8598 14.8556 12.9165 14.8556H4.8828C3.87056 14.8556 3.04883 14.0339 3.04883 13.0216V8.18307C3.04883 7.69646 3.42985 7.29708 3.90958 7.26953H7.52702Z" fill="#D8000F"/>
<path d="M8.53499 6.80078V7.26673H7.52734C7.52964 7.15426 7.53193 6.99359 7.53423 6.80537C7.85328 6.80308 8.19069 6.80308 8.53499 6.80078Z" fill="#C62020"/>
<path d="M8.53591 3.60352V6.80091C8.19161 6.80321 7.85419 6.80321 7.53514 6.8055C7.54203 6.27528 7.54891 5.5293 7.54891 5.02892C7.54891 4.17964 6.92917 4.63871 6.40125 5.37322C5.91464 6.05264 5.91923 6.15363 5.55198 6.01591C5.18472 5.87819 5.09291 5.05187 5.06996 4.84529C5.047 4.63871 4.61089 4.77643 4.19773 5.09778C3.80064 5.40765 3.51372 5.24468 3.53208 4.70757C3.54586 4.31507 3.78228 3.88125 3.96361 3.60352H8.53591Z" fill="#D8000F"/>
<path d="M8.10069 14.2559V14.4624L7.50391 14.3936V14.2559H8.10069Z" fill="#C62020"/>
<path d="M8.10069 7.82617V14.2577H7.50391V7.85142C7.69901 7.84224 7.8987 7.83306 8.10069 7.82617Z" fill="#D8000F"/>
<path d="M8.10069 7.64648V7.82552C7.8987 7.8347 7.69901 7.84388 7.50391 7.85077V7.69239L8.10069 7.64648Z" fill="#C62020"/>
<path d="M7.54775 5.02892C7.54775 5.5293 7.54086 6.27758 7.53397 6.80551C6.11087 6.81239 5.02288 6.81928 5.02288 6.81928C3.64568 6.81928 2.68164 6.43596 2.68164 5.16664C2.68164 3.89732 3.94178 3.60352 3.94178 3.60352H3.96244C3.78111 3.88355 3.54469 4.31736 3.53091 4.70757C3.51255 5.24468 3.79947 5.40765 4.19656 5.09778C4.60972 4.77643 5.04583 4.63871 5.06879 4.84529C5.09174 5.05187 5.18355 5.87819 5.55081 6.01591C5.91806 6.15363 5.91347 6.05034 6.40008 5.37322C6.92801 4.63871 7.54775 4.17964 7.54775 5.02892Z" fill="#FF2B3F"/>
<path d="M7.53325 6.8055C7.53095 6.99372 7.52865 7.1544 7.52636 7.26687H3.964C3.94564 7.26687 3.92728 7.26687 3.90892 7.26916C2.91045 7.2508 2.10938 6.43825 2.10938 5.43749C2.10938 4.93251 2.31366 4.47345 2.64648 4.14062C2.97931 3.8101 3.43608 3.60352 3.94335 3.60352C3.94335 3.60352 2.68321 3.89732 2.68321 5.16664C2.68321 6.43596 3.64725 6.81928 5.02445 6.81928C5.02445 6.81928 6.11014 6.81239 7.53325 6.8055Z" fill="#D8000F"/>
<path d="M7.50066 7.84961V14.2559H5.4119C4.08061 14.2559 3.82812 13.3653 3.82812 12.6032C3.82812 12.2062 3.87174 10.0784 3.87174 8.7907C3.87174 8.36835 4.3836 8.04242 4.79905 8.00569C5.43945 7.9506 6.41037 7.89781 7.50066 7.84961Z" fill="#FF2B3F"/>
<path d="M13.9052 7.2804H3.90902C3.4224 7.27122 2.96793 7.07611 2.62592 6.72952C2.28392 6.38292 2.0957 5.92386 2.0957 5.43495C2.0957 4.94145 2.28851 4.48009 2.63511 4.1312C2.984 3.78231 3.44765 3.5918 3.93886 3.5918H13.9029C14.8692 3.5918 15.6772 4.34467 15.7438 5.30871C15.746 5.35002 15.7483 5.39363 15.7483 5.43724C15.7483 5.93074 15.5555 6.3921 15.2089 6.74099C14.8623 7.08759 14.3987 7.2804 13.9052 7.2804ZM3.94115 3.61475C3.45454 3.61475 2.99777 3.80526 2.65347 4.14727C2.30917 4.49157 2.12095 4.94834 2.12095 5.43495C2.12095 5.91697 2.30687 6.36915 2.64429 6.71345C2.9817 7.05545 3.43159 7.24826 3.91131 7.25744H13.9075C14.3941 7.25744 14.8509 7.06693 15.1952 6.72493C15.5395 6.38063 15.7277 5.92386 15.7277 5.43724C15.7277 5.39363 15.7254 5.35002 15.7231 5.311C15.6588 4.36073 14.86 3.61475 13.9052 3.61475H3.94115Z" fill="#91000A"/>
<path d="M12.9185 14.8649H4.88256C3.86572 14.8649 3.03711 14.0386 3.03711 13.0194V8.18317C3.03711 7.69427 3.42043 7.28799 3.90704 7.25815C3.9254 7.25815 3.94377 7.25586 3.96213 7.25586H13.8344C13.8573 7.25586 13.878 7.25586 13.8963 7.25815C14.1557 7.27422 14.3967 7.40276 14.5597 7.60475C14.6928 7.77001 14.7617 7.96971 14.7617 8.18088V13.0194C14.7617 13.0883 14.7571 13.1572 14.7502 13.2237C14.6492 14.1602 13.8596 14.8649 12.9185 14.8649ZM3.96442 7.27881C3.94606 7.27881 3.9277 7.27881 3.90934 7.28111C3.43191 7.30865 3.06006 7.70574 3.06006 8.18317V13.0217C3.06006 14.0271 3.8772 14.8442 4.88256 14.8442H12.9185C13.8481 14.8442 14.6262 14.1487 14.7295 13.226C14.7364 13.1595 14.741 13.0906 14.741 13.024V8.18317C14.741 7.97659 14.6721 7.78149 14.5436 7.62082C14.3852 7.42112 14.1511 7.29947 13.8963 7.28111C13.878 7.27881 13.8573 7.27881 13.8366 7.27881H3.96442Z" fill="#91000A"/>
<path d="M8.52441 3.46875H8.54737V7.82988H8.52441V3.46875Z" fill="#91000A"/>
<path d="M9.77344 3.44583V3.79013C9.77344 3.79013 10.5447 4.11607 11.0818 4.73122C11.5638 5.2821 11.9081 6.17728 12.1835 6.17728C12.5508 6.17728 12.8721 5.328 12.8951 4.9378C12.918 4.54759 13.2394 4.66236 13.5837 4.9378C13.928 5.21324 14.2402 5.26144 14.2952 4.86894C14.3641 4.38692 13.446 3.28516 13.446 3.28516" fill="#C62020"/>
<path d="M13.9698 7.40788H3.93921C2.87188 7.40788 2.00195 6.53795 2.00195 5.47062V5.40406C2.00195 4.33673 2.87188 3.4668 3.93921 3.4668H13.9698C15.0371 3.4668 15.9071 4.33673 15.9071 5.40406V5.47062C15.9071 6.53795 15.0394 7.40788 13.9698 7.40788ZM3.93921 3.73994C3.02338 3.73994 2.27739 4.48592 2.27739 5.40176V5.46833C2.27739 6.38417 3.02338 7.13015 3.93921 7.13015H13.9698C14.8857 7.13015 15.6316 6.38417 15.6316 5.46833V5.40176C15.6316 4.48592 14.8857 3.73994 13.9698 3.73994H3.93921Z" fill="#91000A"/>
<path d="M12.9851 14.9904H4.88257C3.81524 14.9904 2.94531 14.1205 2.94531 13.0532V8.14803C2.94531 7.58568 3.40208 7.12891 3.96444 7.12891H13.9032C14.4656 7.12891 14.9224 7.58568 14.9224 8.14803V13.0532C14.9224 14.1205 14.0524 14.9904 12.9851 14.9904ZM3.96444 7.40435C3.55358 7.40435 3.22075 7.73717 3.22075 8.14803V13.0532C3.22075 13.969 3.96674 14.715 4.88257 14.715H12.9851C13.9009 14.715 14.6469 13.969 14.6469 13.0532V8.14803C14.6469 7.73717 14.3141 7.40435 13.9032 7.40435H3.96444Z" fill="#91000A"/>
<path d="M14.8634 1.85938C14.8841 2.82571 14.1932 3.84025 13.0777 3.84025C10.9476 3.84025 8.62012 3.73466 8.62012 3.73466C8.67061 3.62908 8.728 3.50513 8.79227 3.3697C9.4625 3.39036 11.0853 3.43856 11.6385 3.43856C12.3179 3.44086 13.8351 3.98256 14.8634 1.85938Z" fill="#FFC603"/>
<path d="M12.8262 0.140625C14.2378 0.140625 14.8438 0.980717 14.8622 1.86212C13.8339 3.98531 12.3166 3.44131 11.6372 3.44131C11.0863 3.44131 9.46125 3.39311 8.79102 3.37245C9.3373 2.22479 10.4414 0.140625 12.8262 0.140625ZM12.8469 2.59204C13.1062 2.59434 13.4873 2.5117 13.4873 2.00214C13.4873 1.37551 13.1269 1.04958 12.2524 1.21025C11.3182 1.3824 10.1935 2.61958 10.0925 2.97995C10.0121 3.26457 11.0152 2.89273 11.5202 2.67238C11.8025 2.68156 12.1629 2.68844 12.5117 2.68844C12.6426 2.68844 12.7551 2.65172 12.8469 2.59204Z" fill="#FFEB00"/>
<path d="M13.4892 2.00053C13.4892 2.51009 13.1082 2.59272 12.8488 2.59043C13.2688 2.31728 13.2597 1.56441 12.4425 1.56441C11.7884 1.56441 11.327 2.11759 11.1066 2.48484C11.0607 2.56059 11.1135 2.6547 11.2007 2.65929C11.2857 2.66158 11.3958 2.66617 11.5221 2.67076C11.0171 2.89112 10.0141 3.26066 10.0944 2.97834C10.1977 2.61797 11.3224 1.38079 12.2543 1.20864C13.1311 1.04796 13.4892 1.3739 13.4892 2.00053Z" fill="#FFC603"/>
<path d="M13.0786 3.97977C10.9692 3.97977 8.6371 3.87648 8.61415 3.87418L8.40527 3.865L8.49479 3.67678C8.52234 3.62169 8.54988 3.56201 8.57972 3.49545C8.60726 3.43807 8.6371 3.37609 8.66694 3.31182C8.9837 2.64618 9.39227 1.87954 10.0189 1.22996C10.8062 0.415113 11.7496 0.00195312 12.8261 0.00195312C13.5124 0.00195312 14.0793 0.199352 14.4627 0.571196C14.7978 0.897133 14.9906 1.3539 14.9998 1.85888C15.0112 2.4373 14.784 3.02491 14.3892 3.42889C14.0357 3.78925 13.5812 3.97977 13.0786 3.97977ZM8.8345 3.60792C9.45194 3.63317 11.341 3.70433 13.0786 3.70433C13.5078 3.70433 13.8934 3.54136 14.1941 3.23378C14.5384 2.8826 14.7381 2.37074 14.7266 1.86347C14.7106 1.09683 14.2033 0.277393 12.8284 0.277393C11.8322 0.277393 10.9531 0.663009 10.2209 1.42047C9.6195 2.0425 9.22471 2.78619 8.91943 3.43118C8.88729 3.49315 8.85975 3.55054 8.8345 3.60792Z" fill="#91000A"/>
<path d="M12.5125 2.82559C12.221 2.82559 11.8859 2.821 11.5163 2.80952C11.3901 2.80493 11.2799 2.80264 11.195 2.79805C11.1055 2.79346 11.0251 2.74526 10.9815 2.66492C10.9379 2.58688 10.9402 2.49277 10.9861 2.41473C11.0894 2.24028 11.2684 1.99009 11.5232 1.78122C11.8101 1.54709 12.1177 1.42773 12.4413 1.42773C12.8476 1.42773 13.1437 1.60677 13.2332 1.90975C13.3182 2.19897 13.1873 2.53408 12.9234 2.70623C12.804 2.78428 12.6617 2.82559 12.5125 2.82559ZM11.2432 2.52261C11.3212 2.5249 11.4176 2.52949 11.5255 2.53179C11.8905 2.54327 12.2233 2.54786 12.5125 2.54786C12.6089 2.54786 12.6961 2.52261 12.7719 2.47441C12.9348 2.36882 13.0198 2.15765 12.9693 1.9855C12.9142 1.80187 12.7283 1.70088 12.4413 1.70088C12.2325 1.70317 11.7 1.78351 11.2432 2.52261Z" fill="#91000A"/>
<path d="M3.29423 1.44727C3.02797 2.5123 3.74871 3.84359 5.02721 3.84359C7.15728 3.84359 9.48474 3.73801 9.48474 3.73801C9.43425 3.63242 9.37686 3.50847 9.31259 3.37305C8.64236 3.39371 7.01956 3.44191 6.46638 3.44191C5.78237 3.44191 4.15269 3.96525 3.29423 1.44727Z" fill="#FFC500"/>
<path d="M3.29492 1.44667C4.15567 3.96465 5.78306 3.44131 6.46707 3.44131C7.01795 3.44131 8.64305 3.39311 9.31328 3.37245C8.767 2.22479 7.66294 0.140625 5.27809 0.140625C4.08911 0.140625 3.47166 0.735116 3.29492 1.44667ZM5.59025 2.68844C5.06003 2.68844 4.80755 2.08018 5.11283 1.75883C5.16332 1.51553 5.35613 1.19648 6.03096 1.22861C6.97893 1.27452 7.90854 2.61729 8.01183 2.97766C8.09217 3.26228 7.08911 2.89043 6.58413 2.67008C6.29951 2.67926 5.93915 2.68844 5.59025 2.68844Z" fill="#FFEB00"/>
<path d="M5.11035 1.75707C5.21823 1.64231 5.39727 1.56426 5.66123 1.56426C6.3154 1.56426 6.77676 2.11744 6.99711 2.48469C7.04302 2.56044 6.99023 2.65455 6.90301 2.65914C6.81808 2.66143 6.7079 2.66603 6.58166 2.67062C7.08663 2.89097 8.08969 3.26052 8.00936 2.97819C7.90607 2.61782 6.97646 1.27276 6.02848 1.22915C5.35595 1.19472 5.16085 1.51147 5.11035 1.75707Z" fill="#FFC500"/>
<path d="M5.0259 3.98011C4.44747 3.98011 3.92873 3.72303 3.56606 3.25708C3.16208 2.73833 3.006 2.03137 3.15979 1.41163C3.26078 1.00077 3.49261 0.656465 3.82544 0.41316C4.19958 0.140015 4.68848 0 5.27609 0C6.3503 0 7.29598 0.41316 8.08328 1.228C8.7122 1.87758 9.12077 2.64652 9.43752 3.30987C9.46736 3.37414 9.4972 3.43611 9.52475 3.49579C9.55459 3.56006 9.58213 3.61974 9.60967 3.67483L9.69919 3.86305L9.49032 3.87223C9.46737 3.87452 7.13531 3.98011 5.0259 3.98011ZM3.42834 1.47819C3.29292 2.0176 3.43064 2.63504 3.78412 3.08722C4.09399 3.48432 4.53699 3.70237 5.02819 3.70237C6.76576 3.70237 8.65482 3.63122 9.27226 3.60597C9.24701 3.55088 9.21717 3.4912 9.18963 3.42923C8.88205 2.78424 8.48726 2.04055 7.88588 1.41852C7.15137 0.658761 6.27456 0.27544 5.27838 0.27544C4.29139 0.277735 3.61886 0.716144 3.42834 1.47819Z" fill="#91000A"/>
<path d="M5.58938 2.82559C5.2841 2.82559 5.02013 2.65344 4.90307 2.378C4.7929 2.12322 4.83651 1.85008 5.01095 1.66415C5.11195 1.55627 5.30705 1.42773 5.66053 1.42773C5.98417 1.42773 6.29175 1.54709 6.57866 1.78122C6.83345 1.99009 7.01019 2.24028 7.11577 2.41473C7.16168 2.49277 7.16397 2.58458 7.12036 2.66492C7.07675 2.74526 6.99871 2.79346 6.9069 2.79805C6.82197 2.80034 6.71179 2.80493 6.58555 2.80952C6.216 2.81871 5.88088 2.82559 5.58938 2.82559ZM5.66053 1.70317C5.45854 1.70317 5.30246 1.75367 5.21065 1.85237C5.09129 1.97861 5.10277 2.14847 5.15556 2.26783C5.21524 2.40325 5.35984 2.55015 5.58938 2.55015C5.87859 2.55015 6.21141 2.54556 6.57637 2.53408C6.68425 2.52949 6.78065 2.5272 6.85869 2.5249C6.40192 1.78351 5.86941 1.70317 5.66053 1.70317Z" fill="#91000A"/>
<path d="M14.1582 4.73921C14.1719 4.792 14.1031 4.83102 14.0526 4.79889C13.8322 4.66346 13.1299 4.36507 12.7351 4.34441C12.657 4.33982 12.5675 4.36966 12.5652 4.4477C12.5629 4.75069 12.5124 5.21434 12.2944 5.59537C12.253 5.66653 12.2163 5.6803 12.1704 5.60914C11.8927 5.16844 11.1146 3.70861 9.24844 3.39874C8.76872 3.3184 8.8743 3.06591 9.1199 2.82031C9.38387 2.92819 9.90032 3.13936 10.504 3.38726C11.3785 3.74763 11.7641 4.21128 11.8674 4.31228C11.9707 4.41557 12.074 4.49131 12.1497 4.20899C12.2278 3.92666 12.4596 3.8119 12.7924 3.90141C13.1299 3.99093 13.683 4.11947 13.9722 4.22047C14.0457 4.38114 14.1077 4.55329 14.1582 4.73921Z" fill="#FFC500"/>
<path d="M13.9754 4.22162C13.6862 4.12292 13.133 3.99209 12.7956 3.90257C12.4628 3.81305 12.2286 3.92782 12.1529 4.21014C12.0748 4.49247 11.9738 4.41672 11.8706 4.31343C11.7673 4.21014 11.3817 3.74649 10.5071 3.38841C9.90346 3.14052 9.38471 2.92705 9.12305 2.82147C9.40078 2.54603 9.85755 2.27747 9.86214 2.27747C10.032 2.28665 13.0045 2.1191 13.9754 4.22162Z" fill="#FFEB00"/>
<path d="M12.2282 5.79359C12.1799 5.79359 12.1111 5.77293 12.0537 5.68342C12.0353 5.65358 12.0147 5.61915 11.9894 5.58013C11.6658 5.0522 10.906 3.81272 9.22586 3.53269C9.13404 3.51662 8.85631 3.47072 8.78745 3.25725C8.73924 3.10346 8.81499 2.92902 9.02157 2.72244C9.17306 2.57094 9.37276 2.42634 9.51277 2.32993C9.7951 2.13713 9.82264 2.13713 9.85707 2.13713H9.91904C10.6099 2.13024 11.248 2.21058 11.8196 2.37355C12.9305 2.6903 13.6972 3.29168 14.0965 4.16161C14.1746 4.33147 14.2389 4.5128 14.2894 4.70331C14.3077 4.77906 14.2802 4.85939 14.2159 4.90759C14.147 4.95809 14.0529 4.96268 13.9795 4.91677C13.7798 4.79283 13.0981 4.50132 12.7262 4.48296H12.701C12.6964 4.7584 12.6482 5.2496 12.4118 5.66276C12.3636 5.74769 12.3016 5.7913 12.2304 5.79359H12.2282ZM9.89609 2.41486C9.79051 2.47684 9.43703 2.69948 9.21897 2.91754C9.03305 3.10346 9.0537 3.17232 9.0537 3.17232C9.0583 3.18839 9.1065 3.232 9.27406 3.26184C10.0476 3.39038 10.7316 3.72779 11.3054 4.2626C11.7737 4.69872 12.056 5.15778 12.2259 5.43322C12.398 5.07515 12.4278 4.66888 12.4301 4.44623C12.4301 4.38426 12.4554 4.32687 12.5013 4.28326C12.5587 4.22817 12.6459 4.20063 12.7446 4.20522C13.1096 4.22358 13.6742 4.44853 13.9772 4.59772C13.9405 4.48755 13.8992 4.37967 13.851 4.27638C13.486 3.48219 12.7767 2.93131 11.7484 2.63751C11.2044 2.48143 10.5916 2.40568 9.92823 2.41257C9.91445 2.41486 9.90298 2.41486 9.89609 2.41486Z" fill="#91000A"/>
<path d="M3.82014 4.73921C3.80637 4.792 3.87523 4.83102 3.92573 4.79889C4.14608 4.66346 4.84845 4.36507 5.24555 4.34441C5.32359 4.33982 5.4131 4.36966 5.4131 4.4477C5.4154 4.75069 5.4659 5.21434 5.68395 5.59537C5.72527 5.66653 5.762 5.6803 5.8079 5.60914C6.08564 5.16844 6.86376 3.70861 8.72757 3.39874C9.20729 3.3184 9.1017 3.06591 8.8561 2.82031C8.59214 2.92819 8.07569 3.13936 7.47202 3.38726C6.5975 3.74763 6.21188 4.21128 6.10859 4.31228C6.0053 4.41557 5.90201 4.49131 5.82626 4.20899C5.74822 3.92666 5.51639 3.8119 5.18357 3.90141C4.84616 3.99093 4.29298 4.11947 4.00377 4.22047C3.93032 4.38114 3.86835 4.55329 3.82014 4.73921Z" fill="#FFC500"/>
<path d="M4.00293 4.22162C4.29214 4.12292 4.84532 3.99209 5.18273 3.90257C5.51555 3.81305 5.74968 3.92782 5.82542 4.21014C5.90346 4.49247 6.00446 4.41672 6.10775 4.31343C6.21104 4.21014 6.59666 3.74649 7.47118 3.38841C8.07485 3.14052 8.59359 2.92705 8.85526 2.82147C8.57753 2.54603 8.12076 2.27747 8.11617 2.27747C7.94631 2.28665 4.97386 2.1191 4.00293 4.22162Z" fill="#FFEB00"/>
<path d="M5.74704 5.79464H5.74245C5.67129 5.79235 5.60932 5.74874 5.56111 5.66381C5.32469 5.25065 5.27879 4.76174 5.2742 4.4863C5.26731 4.4863 5.26043 4.48401 5.25124 4.4863C4.8794 4.50467 4.19769 4.79847 3.99799 4.92012C3.92454 4.96603 3.83043 4.96144 3.76157 4.91094C3.6973 4.86274 3.66747 4.7847 3.68812 4.70895C3.73633 4.52073 3.80059 4.3394 3.88093 4.16725C4.28261 3.29732 5.04925 2.69594 6.1579 2.37919C6.72714 2.21622 7.36754 2.13818 8.05614 2.14277H8.11811C8.15254 2.14277 8.18009 2.14277 8.46241 2.33558C8.60243 2.43198 8.80212 2.57659 8.95361 2.72808C9.16019 2.93466 9.23594 3.1091 9.18774 3.26289C9.11888 3.47865 8.84114 3.52456 8.74933 3.53833C7.06915 3.81836 6.30939 5.05555 5.98575 5.58577C5.9628 5.62479 5.94214 5.65692 5.92378 5.68676C5.8641 5.77628 5.79524 5.79464 5.74704 5.79464ZM5.25813 4.20857C5.34535 4.20857 5.42569 4.23611 5.47848 4.28661C5.52439 4.33022 5.54964 4.3876 5.54964 4.44958C5.55193 4.66993 5.58177 5.0785 5.75392 5.43657C5.92378 5.16113 6.20381 4.70206 6.67206 4.26595C7.24589 3.73114 7.9299 3.39373 8.70572 3.26519C8.87328 3.23764 8.92148 3.19174 8.92607 3.17567C8.92607 3.17567 8.94673 3.10451 8.76081 2.92089C8.54275 2.70283 8.18927 2.48018 8.08368 2.41821H8.05614C7.39279 2.41132 6.77994 2.48707 6.23594 2.64315C5.20534 2.93695 4.49838 3.48783 4.13342 4.28202C4.08522 4.38531 4.0439 4.49319 4.00947 4.60337C4.31245 4.45187 4.8771 4.22923 5.24206 4.21086C5.24206 4.20857 5.24895 4.20857 5.25813 4.20857Z" fill="#91000A"/>
<path d="M8.39632 3.7638H8.37108C8.12548 3.7638 7.92578 3.56411 7.92578 3.31851V2.40037C7.92578 2.15477 8.12548 1.95508 8.37108 1.95508H8.52027C8.45141 2.08132 8.3596 2.31545 8.3596 2.64138C8.3596 3.15554 8.33894 3.36212 8.63274 3.36212H9.51645C9.61974 3.36212 9.78959 3.33457 9.90895 3.26571V3.31851C9.90895 3.56411 9.70925 3.7638 9.46365 3.7638H8.39632Z" fill="#FFC500"/>
<path d="M9.91294 2.40037V3.26571C9.79359 3.33457 9.62144 3.36212 9.52044 3.36212H8.63674C8.34294 3.36212 8.3636 3.15554 8.3636 2.64138C8.3636 2.31545 8.45541 2.08362 8.52427 1.95508H9.46995C9.71325 1.95737 9.91294 2.15477 9.91294 2.40037Z" fill="#FFEB00"/>
<path d="M9.89107 14.3751V14.864H7.94922V3.8418H8.3991V13.9642C8.3991 14.2718 8.3991 14.3751 8.69291 14.3751H9.89107Z" fill="#FFC500"/>
<path d="M9.8904 3.8418V14.3751H8.69224C8.39844 14.3751 8.39844 14.2718 8.39844 13.9642V3.8418H9.8904Z" fill="#FFEB00"/>
<path d="M10.0288 15.0004H7.81152V3.70508H10.0288V15.0004ZM8.08696 14.725H9.75338V3.98052H8.08696V14.725Z" fill="#91000A"/>
<path d="M9.46793 3.90252H8.37305C8.05171 3.90252 7.79004 3.64085 7.79004 3.31951V2.40137C7.79004 2.08003 8.05171 1.81836 8.37305 1.81836H9.46793C9.78927 1.81836 10.0509 2.08003 10.0509 2.40137V3.31951C10.0509 3.64085 9.78927 3.90252 9.46793 3.90252ZM8.37305 2.09609C8.2032 2.09609 8.06548 2.23381 8.06548 2.40367V3.3218C8.06548 3.49166 8.2032 3.62938 8.37305 3.62938H9.46793C9.63778 3.62938 9.7755 3.49166 9.7755 3.3218V2.40367C9.7755 2.23381 9.63778 2.09609 9.46793 2.09609H8.37305Z" fill="#91000A"/>
</svg>
