<svg width="16" height="13" viewBox="0 0 16 13" fill="none" xmlns="http://www.w3.org/2000/svg">
<g clip-path="url(#clip0_1_2205)">
<path d="M0.806233 4.8107C1.05462 4.93099 1.33875 4.955 1.6038 4.87811C1.86884 4.80121 2.09601 4.62885 2.24145 4.39431C2.69442 3.36694 3.42909 2.48886 4.3604 1.86171C5.29172 1.23456 6.38161 0.883988 7.50391 0.85057C7.83442 0.83285 8.16564 0.83285 8.49616 0.85057C9.61615 0.888755 10.7028 1.24136 11.6318 1.86804C12.5609 2.49471 13.2948 3.37016 13.7498 4.39431C13.8952 4.62885 14.1224 4.80121 14.3874 4.87811C14.6525 4.955 14.9366 4.93099 15.185 4.8107C15.4093 4.63402 15.596 4.41433 15.7342 4.1645C15.8724 3.91467 15.9594 3.63975 15.9899 3.35586C16.0204 3.07198 15.994 2.78486 15.912 2.51135C15.8301 2.23784 15.6943 1.98342 15.5128 1.76308C14.8838 0.948022 12.3943 -0.00878906 8.56703 -0.00878906C8.19494 -0.00878906 7.81398 -0.00878906 7.44189 -0.00878906C3.60579 -0.00878906 1.11631 0.921444 0.478437 1.76308C0.296858 1.98342 0.161118 2.23784 0.0791844 2.51135C-0.00274875 2.78486 -0.029225 3.07198 0.00130878 3.35586C0.0318426 3.63975 0.118773 3.91467 0.256996 4.1645C0.395219 4.41433 0.58195 4.63402 0.806233 4.8107Z" fill="white"/>
<path d="M13.1916 4.94401C11.8095 2.83548 10.0997 1.54199 8.01773 1.54199C5.93578 1.54199 4.17277 2.8532 2.84387 4.94401L0.451843 8.70924C-0.549265 10.8532 0.717623 12.6073 3.26912 12.6073H12.7663C15.309 12.6073 16.5847 10.8355 15.5836 8.70924C15.5836 8.70924 14.5737 7.05254 13.1916 4.94401ZM8.01773 8.76239C7.1934 8.79848 6.38836 8.50638 5.77894 7.9501C5.16952 7.39382 4.80541 6.6187 4.76635 5.7945C4.7823 5.38409 4.87916 4.98087 5.05138 4.608C5.22359 4.23513 5.46776 3.89997 5.76988 3.62173C6.07199 3.34349 6.42609 3.12765 6.81184 2.98664C7.19759 2.84563 7.6074 2.78222 8.01773 2.80003C8.84146 2.7663 9.64519 3.0592 10.2541 3.615C10.863 4.1708 11.2278 4.94454 11.2691 5.76792C11.2346 6.59601 10.8727 7.37652 10.2631 7.93799C9.65345 8.49946 8.84586 8.79598 8.01773 8.76239Z" fill="white"/>
</g>
<defs>
<clipPath id="clip0_1_2205">
<rect width="16" height="12.6069" fill="white"/>
</clipPath>
</defs>
</svg>
