<svg width="16" height="13" viewBox="0 0 16 13" fill="none" xmlns="http://www.w3.org/2000/svg">
<g clip-path="url(#clip0_1_2199)">
<path d="M15.9643 9.39286V2.75L12.5 6.21429L15.9643 9.39286Z" fill="white"/>
<path d="M10.1161 8.59849C9.83839 8.88275 9.50638 9.10829 9.1398 9.26168C8.77321 9.41506 8.37952 9.49315 7.98214 9.49135C7.58356 9.49234 7.18878 9.41389 6.82085 9.26059C6.45293 9.10728 6.11924 8.8822 5.83929 8.59849L3.98214 6.74136L2.58079e-10 10.4021V11.0092C-7.23461e-06 11.3937 0.1521 11.7625 0.423104 12.0352C0.694109 12.3078 1.06199 12.4622 1.44643 12.4646H14.5089C14.8949 12.4646 15.2651 12.3112 15.538 12.0383C15.811 11.7654 15.9643 11.3952 15.9643 11.0092V10.3753L11.9821 6.73242L10.1161 8.59849Z" fill="white"/>
<path d="M14.5446 0H1.47316C1.08873 0.00235854 0.720842 0.156749 0.449838 0.429426C0.178833 0.702103 0.0267262 1.07092 0.0267334 1.45536V1.75893L6.38388 8.1161C6.59671 8.33064 6.84983 8.50101 7.12869 8.61746C7.40756 8.7339 7.70668 8.79412 8.00888 8.79465C8.31123 8.7951 8.61064 8.73535 8.88964 8.61884C9.16864 8.50234 9.42164 8.33143 9.63388 8.1161L15.991 1.75893V1.45536C15.991 1.07092 15.8389 0.702103 15.5679 0.429426C15.2969 0.156749 14.929 0.00235854 14.5446 0Z" fill="white"/>
<path d="M0 2.75V9.41071L3.47321 6.22321L0 2.75Z" fill="white"/>
</g>
<defs>
<clipPath id="clip0_1_2199">
<rect width="16" height="12.4554" fill="white"/>
</clipPath>
</defs>
</svg>
