<svg width="16" height="12" viewBox="0 0 16 12" fill="none" xmlns="http://www.w3.org/2000/svg">
<path d="M15.1057 4.95863C15.2233 4.95596 15.3401 4.97826 15.4485 5.02405C15.5569 5.06983 15.6543 5.13806 15.7344 5.22425C15.8191 5.3073 15.8863 5.40654 15.9319 5.51606C15.9775 5.62557 16.0007 5.74313 16 5.86177L16 7.07485C15.9995 7.192 15.9758 7.30787 15.9302 7.41579C15.8846 7.5237 15.818 7.62151 15.7344 7.70351C15.6543 7.7897 15.5569 7.85793 15.4485 7.90372C15.3401 7.9495 15.2233 7.9718 15.1057 7.96913L3.42667 7.96914C3.58467 7.9263 3.73871 7.87001 3.8871 7.8009C4.04157 7.72107 4.17737 7.60941 4.28555 7.47329C4.62202 7.09255 4.95849 6.6764 5.30381 6.24253C5.64914 5.80867 5.9679 5.35708 6.26895 4.95863L15.1057 4.95863Z" fill="white"/>
<path d="M13.1223 9.03169C13.2394 9.03218 13.3553 9.05589 13.4632 9.10149C13.5712 9.14708 13.669 9.21365 13.751 9.29731C13.8341 9.3811 13.8996 9.48066 13.9437 9.59014C13.9878 9.69963 14.0096 9.81682 14.0077 9.93483L14.0077 11.0505C14.0084 11.167 13.9861 11.2826 13.942 11.3904C13.8979 11.4983 13.833 11.5964 13.751 11.6792C13.669 11.7628 13.5712 11.8294 13.4632 11.875C13.3553 11.9206 13.2394 11.9443 13.1223 11.9448L1.00056 11.9448C0.881915 11.9455 0.764343 11.9223 0.654827 11.8767C0.545311 11.8311 0.446082 11.7639 0.363034 11.6792C0.27937 11.5972 0.212812 11.4994 0.167215 11.3915C0.121618 11.2835 0.0978879 11.1677 0.0974015 11.0505L0.0974014 9.93483C0.0967081 9.81619 0.119864 9.69864 0.165496 9.58912C0.211128 9.4796 0.278304 9.38036 0.363034 9.29731C0.446082 9.21258 0.545311 9.14542 0.654827 9.09978C0.764343 9.05415 0.881915 9.031 1.00055 9.03169L13.1223 9.03169Z" fill="white"/>
<path d="M5.08245 2.03667L5.08245 1.9127C5.08245 1.85072 5.08245 1.74446 5.08245 1.60279C5.08245 1.46111 5.08245 1.24862 5.08245 0.974128L15.1057 0.974127C15.2233 0.971461 15.3401 0.993759 15.4485 1.03955C15.5569 1.08533 15.6543 1.15356 15.7344 1.23975C15.8191 1.3228 15.8863 1.42204 15.9319 1.53156C15.9775 1.64107 16.0007 1.75863 16 1.87727L16 3.07263C15.9995 3.18978 15.9758 3.30567 15.9302 3.41359C15.8846 3.5215 15.818 3.61928 15.7344 3.70128C15.6543 3.78747 15.5569 3.85573 15.4485 3.90152C15.3401 3.9473 15.2233 3.9696 15.1057 3.96693L7.06585 3.96693C7.1016 3.94439 7.13185 3.91413 7.15439 3.87839L7.22523 3.78984C7.33299 3.63481 7.39998 3.45516 7.42003 3.26743C7.43992 3.07044 7.41882 2.87146 7.35805 2.68303C7.29293 2.50448 7.18677 2.34374 7.04814 2.21374C6.89644 2.0886 6.7046 2.02256 6.50802 2.02781L5.08245 2.02781L5.08245 2.03667Z" fill="white"/>
<path d="M0.33647 3.82526L0.097399 3.4268C0.0449965 3.35016 0.0116074 3.26215 -7.67116e-07 3.17004C-7.72535e-07 3.10806 1.77267e-07 3.06376 0.115109 3.0372C0.245018 3.00289 0.379287 2.98798 0.51356 2.99294L1.399 2.99294C1.49361 3.00144 1.58895 2.99009 1.67892 2.95959C1.76888 2.9291 1.85148 2.88012 1.92141 2.81584C1.98088 2.7553 2.02728 2.68322 2.05774 2.60402C2.0882 2.52481 2.10208 2.4402 2.0985 2.35542L2.0985 0.814751C2.10866 0.611342 2.19383 0.418898 2.33757 0.274616C2.40493 0.188771 2.49098 0.119438 2.58918 0.0718729C2.68738 0.0243065 2.79514 -0.000238218 2.90426 0.000129891L3.53293 0.000129836C3.61139 0.000624786 3.68889 0.0174094 3.76052 0.0494176C3.83216 0.0814248 3.89637 0.127951 3.94908 0.186066C4.09367 0.36868 4.16047 0.600922 4.13503 0.83245C4.14164 0.917915 4.14164 1.00377 4.13503 1.08924C4.13005 1.13929 4.13005 1.1897 4.13503 1.23975C4.13503 1.29287 4.13503 1.39029 4.13503 1.53196C4.13503 1.67363 4.13503 1.90384 4.13503 2.24917C4.11679 2.44865 4.16673 2.64841 4.2767 2.81584C4.33613 2.88183 4.41068 2.93242 4.49396 2.96327C4.57724 2.99411 4.66676 3.0043 4.75484 2.99294L5.64028 2.99294C5.72343 2.98114 5.80818 2.98857 5.888 3.01466C5.96782 3.04076 6.04059 3.08484 6.10071 3.14347C6.1627 3.24973 6.10071 3.40025 5.94133 3.61276L5.40121 4.35653L4.19701 6.12742C4.00221 6.41076 3.80741 6.66753 3.63032 6.88889C3.5549 6.97789 3.45709 7.04514 3.34698 7.08369C3.23025 7.13687 3.10337 7.16406 2.9751 7.16337C2.8611 7.18604 2.74376 7.18604 2.62977 7.16337C2.53563 7.13601 2.45217 7.08038 2.3907 7.004L1.94798 6.26023C1.7886 5.9946 1.61151 5.7201 1.43442 5.44561C1.25733 5.17112 1.07139 4.89664 0.903154 4.62215L0.41616 3.86952L0.33647 3.82526Z" fill="white"/>
</svg>
