<svg width="38" height="27" viewBox="0 0 38 27" fill="none" xmlns="http://www.w3.org/2000/svg">
<g clip-path="url(#clip0_1_46627)">
<path d="M3.20339 13.1202L10.6823 19.0144C10.9601 19.2349 11.3049 19.355 11.6603 19.355C12.0157 19.355 12.3605 19.2349 12.6383 19.0144L35.4504 0.373565C35.6087 0.243452 35.7914 0.145807 35.9878 0.0862594C36.1842 0.0267121 36.3906 0.00643614 36.5949 0.026604C36.7993 0.0467718 36.9976 0.106983 37.1784 0.203768C37.3593 0.300552 37.5191 0.432 37.6487 0.59053C37.8939 0.89146 38.0175 1.27268 37.9951 1.65952C37.9727 2.04635 37.8059 2.41093 37.5275 2.68183L12.8926 26.578C12.745 26.7211 12.5705 26.8337 12.379 26.9094C12.1875 26.985 11.9829 27.0222 11.7769 27.0189C11.5709 27.0155 11.3676 26.9716 11.1787 26.8898C10.9898 26.8079 10.819 26.6897 10.6762 26.5419L0.42985 15.8805C0.273177 15.7171 0.154308 15.5215 0.0815803 15.3076C0.0088524 15.0936 -0.0159694 14.8664 0.00884004 14.6419C0.0336494 14.4174 0.107484 14.201 0.225194 14.0079C0.342905 13.8148 0.501632 13.6496 0.690244 13.524L1.36849 13.066C1.64096 12.8812 1.96521 12.7869 2.2948 12.7966C2.62439 12.8064 2.94242 12.9196 3.20339 13.1202Z" fill="white"/>
</g>
<defs>
<clipPath id="clip0_1_46627">
<rect width="38" height="27" fill="white"/>
</clipPath>
</defs>
</svg>
