<svg width="21" height="20" viewBox="0 0 21 20" fill="none" xmlns="http://www.w3.org/2000/svg">
<g clip-path="url(#clip0_0_9)">
<path d="M8.73571 3.05162H5.51864C5.33377 3.06389 5.15078 3.00808 5.00424 2.8947C4.88587 2.78933 4.79848 2.65368 4.75142 2.50236C4.70456 2.32899 4.68109 2.15014 4.68166 1.97055C4.68099 1.78042 4.6985 1.59066 4.73397 1.40386C4.74852 1.21301 4.77767 1.02354 4.82116 0.837144C4.86336 0.652982 4.93394 0.476527 5.03039 0.314061C5.06743 0.235899 5.12242 0.167568 5.19085 0.114673C5.25929 0.0617775 5.33924 0.0258022 5.42422 0.00965706C5.50919 -0.00648807 5.59679 -0.00234677 5.67985 0.021763C5.76292 0.0458728 5.8391 0.0892789 5.90223 0.14841L6.71306 0.610484L7.5849 1.10744L8.38698 1.56079L8.94497 1.88336C9.08752 1.98015 9.2091 2.1047 9.30242 2.24955C9.37608 2.36323 9.40981 2.49819 9.39831 2.63316C9.38987 2.69356 9.36834 2.75138 9.3352 2.80259C9.30207 2.85379 9.25815 2.89713 9.20651 2.92958C9.06623 3.01855 8.90155 3.06123 8.73571 3.05162Z" fill="#808994"/>
<path d="M11.3601 3.025H14.5248C14.7082 3.03596 14.8898 2.98365 15.0392 2.8768C15.1589 2.76904 15.2465 2.63021 15.2921 2.47574C15.3396 2.30249 15.363 2.12356 15.3618 1.94393C15.3711 1.75805 15.3711 1.57182 15.3618 1.38594C15.3618 1.21157 15.2921 1.01978 15.2572 0.827976C15.2229 0.646859 15.1581 0.472908 15.0654 0.313594C14.9917 0.175393 14.8663 0.0719461 14.7166 0.0258716C14.6276 0.0037608 14.535 0.00087371 14.4448 0.0174108C14.3546 0.0339478 14.2689 0.0695428 14.1935 0.121788L13.3827 0.583862C13.0863 0.749511 12.7812 0.915149 12.5109 1.08952L11.7001 1.54289C11.5137 1.63634 11.3331 1.74115 11.1596 1.85674C11.0053 1.95148 10.8742 2.07958 10.7759 2.23162C10.704 2.34259 10.6732 2.47523 10.6888 2.60654C10.695 2.66773 10.7146 2.72679 10.7463 2.77953C10.7779 2.83227 10.8208 2.87738 10.8718 2.91166C11.025 2.99982 11.2014 3.03935 11.3775 3.025H11.3601Z" fill="#808994"/>
<path d="M9.20672 4.01025H1.36017C0.96967 3.96473 0.574949 4.04733 0.235486 4.24563C0.144489 4.34503 0.0750603 4.4622 0.0315476 4.58973C-0.0119652 4.71727 -0.0286013 4.85242 -0.0173284 4.9867V6.93962C-0.0289469 7.08934 -0.0102449 7.23987 0.0376937 7.38219C0.0856322 7.5245 0.161827 7.65569 0.261667 7.76787C0.595973 7.98026 0.992604 8.07249 1.38632 8.02941H9.18929L9.20672 4.01025Z" fill="#808994"/>
<path d="M10.8545 4.01025H18.7011C19.0916 3.96473 19.4863 4.04733 19.8257 4.24563C19.9174 4.34635 19.9872 4.46499 20.0307 4.59405C20.0743 4.7231 20.0905 4.85977 20.0786 4.99543V6.94834C20.091 7.0975 20.0718 7.24759 20.0222 7.38881C19.9726 7.53003 19.8938 7.6592 19.7909 7.76787C19.4621 7.98602 19.0671 8.08168 18.6749 8.03814H10.8284L10.8545 4.01025Z" fill="#808994"/>
<path d="M9.2066 8.98828H0.793352V17.5759C0.774464 17.9153 0.836545 18.2545 0.974488 18.5652C1.11243 18.876 1.32229 19.1494 1.58673 19.3631C2.31489 19.8451 3.18357 20.0692 4.05402 19.9996H9.2066V8.98828Z" fill="#808994"/>
<path d="M10.8545 8.98828H19.2154V17.5061C19.223 17.8504 19.156 18.1924 19.019 18.5084C18.8821 18.8244 18.6785 19.1071 18.4221 19.337C17.7189 19.8396 16.8594 20.0746 15.9983 19.9996H10.8545V8.98828Z" fill="#808994"/>
</g>
<defs>
<clipPath id="clip0_0_9">
<rect width="20.0697" height="20" fill="white"/>
</clipPath>
</defs>
</svg>
