<svg width="17" height="15" viewBox="0 0 17 15" fill="none" xmlns="http://www.w3.org/2000/svg">
<g clip-path="url(#clip0_1_27815)">
<path d="M16.86 6.69948L13.7777 2.83635C13.701 2.7362 13.6022 2.65508 13.4891 2.59925C13.376 2.54341 13.2515 2.51437 13.1253 2.51437C12.9992 2.51437 12.8747 2.54341 12.7616 2.59925C12.6484 2.65508 12.5496 2.7362 12.4729 2.83635L9.39064 6.69948C9.33909 6.76577 9.30704 6.84512 9.29806 6.92861C9.28908 7.01211 9.30354 7.09647 9.33981 7.17221C9.37608 7.24795 9.43273 7.31207 9.50341 7.35742C9.57408 7.40277 9.656 7.42753 9.73996 7.42894H10.942C10.942 9.68927 10.942 12.5661 6.96591 14.8367C6.86317 14.9086 6.91454 15.0627 7.02756 15.0422C14.5894 13.8709 15.247 8.80571 15.247 7.44951H16.5107C16.5957 7.44537 16.6779 7.41784 16.7483 7.36996C16.8187 7.32208 16.8745 7.25569 16.9095 7.17813C16.9446 7.10057 16.9576 7.01486 16.947 6.9304C16.9365 6.84594 16.9028 6.76603 16.8497 6.69948H16.86ZM7.19195 7.66526H6.02068C6.02068 5.4152 6.02068 2.52814 10.0071 0.257534C10.1098 0.185614 10.0071 0.0314877 9.94545 0.0520362C2.3836 1.2233 1.72605 6.30905 1.72605 7.65497H0.472588C0.388623 7.65638 0.306712 7.68114 0.236033 7.72649C0.165355 7.77184 0.108703 7.83599 0.0724334 7.91174C0.0361635 7.98748 0.0217068 8.07183 0.0306848 8.15533C0.0396629 8.23882 0.0717201 8.31817 0.123263 8.38447L3.20554 12.2476C3.28345 12.346 3.38261 12.4254 3.49559 12.4801C3.60857 12.5347 3.73245 12.5631 3.85795 12.5631C3.98346 12.5631 4.10733 12.5347 4.22031 12.4801C4.3333 12.4254 4.43245 12.346 4.51037 12.2476L7.59264 8.38447C7.64129 8.31814 7.67093 8.23979 7.67835 8.15787C7.68578 8.07595 7.6707 7.99353 7.63477 7.91954C7.59883 7.84555 7.54339 7.78278 7.47441 7.73797C7.40543 7.69316 7.32553 7.66802 7.24332 7.66526H7.19195Z" fill="#85D420"/>
</g>
<defs>
<clipPath id="clip0_1_27815">
<rect width="16.51" height="14.6" fill="white" transform="scale(1.02742)"/>
</clipPath>
</defs>
</svg>
