<svg width="32" height="32" viewBox="0 0 32 32" fill="none" xmlns="http://www.w3.org/2000/svg">
<rect width="32" height="32" rx="16" fill="#039BE6"/>
<g clip-path="url(#clip0_1_51499)">
<path d="M16.129 17.3302L7.61904 10.0301C7.66559 10.0254 7.7125 10.0254 7.75905 10.0301H24.499H24.629L16.129 17.3302ZM25.2591 11.0401V22.0401C25.2695 22.103 25.2695 22.1672 25.2591 22.2301L19.2591 16.0102L25.2591 10.8202C25.2687 10.8999 25.2687 10.9804 25.2591 11.0601V11.0401ZM7.03908 10.8001L13.0391 15.9901L7.03908 22.2101C7.02864 22.1472 7.02864 22.083 7.03908 22.0201V11.0201C7.02872 10.9404 7.02872 10.8598 7.03908 10.7801V10.8001ZM18.5891 16.6801L24.679 22.9601C24.6191 22.9648 24.559 22.9648 24.499 22.9601H7.75905C7.69585 22.9658 7.63226 22.9658 7.56905 22.9601L13.6591 16.6801L15.879 18.5901C15.9476 18.6479 16.0344 18.6797 16.124 18.6797C16.2137 18.6797 16.3005 18.6479 16.369 18.5901L18.5891 16.6801Z" fill="white"/>
</g>
<defs>
<clipPath id="clip0_1_51499">
<rect width="18.26" height="13" fill="white" transform="translate(7 10)"/>
</clipPath>
</defs>
</svg>
