<svg width="20" height="20" viewBox="0 0 20 20" fill="none" xmlns="http://www.w3.org/2000/svg">
<g clip-path="url(#clip0_0_4)">
<path d="M9.80895 10.6921C12.7615 10.6921 15.155 8.29861 15.155 5.34606C15.155 2.39351 12.7615 0 9.80895 0C6.8564 0 4.46289 2.39351 4.46289 5.34606C4.46289 8.29861 6.8564 10.6921 9.80895 10.6921Z" fill="#808994"/>
<path d="M17.5546 20.0001H2.04146C1.51815 20.0001 1.01612 19.793 0.644969 19.4241C0.273818 19.0552 0.0636993 18.5544 0.0605469 18.0311V17.6135C0.0658729 16.0001 0.697004 14.4517 1.82103 13.2942C2.94505 12.1368 4.47429 11.4607 6.08682 11.4082H6.5164C6.67406 11.4261 6.82982 11.4581 6.98181 11.5037C7.90302 11.8818 8.8771 12.1152 9.86962 12.1958C10.6902 12.1158 11.4945 11.9147 12.2563 11.5991L12.5785 11.5037L13.2467 11.4082H13.4377C15.0679 11.4332 16.6231 12.0977 17.7681 13.2583C18.9131 14.419 19.5564 15.983 19.5594 17.6135V18.0311C19.5578 18.2923 19.5046 18.5505 19.4029 18.7911C19.3012 19.0316 19.1529 19.2496 18.9666 19.4326C18.7802 19.6156 18.5595 19.76 18.3172 19.8573C18.0749 19.9547 17.8157 20.0033 17.5546 20.0001Z" fill="#808994"/>
</g>
<defs>
<clipPath id="clip0_0_4">
<rect width="19.5346" height="20" fill="white"/>
</clipPath>
</defs>
</svg>
