<svg width="16" height="16" viewBox="0 0 16 16" fill="none" xmlns="http://www.w3.org/2000/svg">
<path d="M8 0C12.4183 0 16 3.58172 16 8C16 12.4183 12.4183 16 8 16C3.58172 16 0 12.4183 0 8C0 3.58172 3.58172 0 8 0ZM7.93164 11.5117C7.66825 11.5121 7.41336 11.608 7.21582 11.7822C7.1203 11.8723 7.0445 11.9823 6.99414 12.1035C6.94398 12.2246 6.9202 12.3553 6.92383 12.4863C6.91953 12.6176 6.94285 12.7488 6.99316 12.8701C7.04356 12.9913 7.11985 13.1009 7.21582 13.1904C7.3104 13.2823 7.42323 13.355 7.5459 13.4033C7.66851 13.4515 7.79991 13.4754 7.93164 13.4727C8.06253 13.4767 8.19295 13.4545 8.31543 13.4082C8.43799 13.3618 8.55106 13.292 8.64648 13.2021C8.74292 13.1105 8.81871 12.9981 8.86914 12.875C8.91943 12.7519 8.94391 12.6192 8.93945 12.4863C8.94197 12.2238 8.84009 11.9706 8.65723 11.7822C8.457 11.6056 8.1986 11.5095 7.93164 11.5117ZM8.12598 3.04883C7.71183 3.02744 7.29679 3.08806 6.90625 3.22754C6.516 3.36697 6.15731 3.58267 5.85059 3.86133C5.56049 4.15957 5.33493 4.51548 5.18945 4.90527C5.04412 5.2949 4.98114 5.7108 5.00488 6.12598H6.46777C6.43854 5.67976 6.55263 5.2355 6.79297 4.8584C6.93332 4.67062 7.11961 4.52163 7.33398 4.42676C7.54843 4.33188 7.78416 4.29395 8.01758 4.31641C8.21354 4.30126 8.41058 4.32641 8.59668 4.38965C8.78288 4.45298 8.9544 4.55397 9.10059 4.68555C9.34705 4.96587 9.47527 5.33123 9.45801 5.7041C9.45577 6.04236 9.33287 6.36936 9.11133 6.625L8.95996 6.80859C8.36196 7.2679 7.84579 7.8253 7.43262 8.45605C7.24522 8.85524 7.15529 9.2937 7.17188 9.73438V10.8184H8.71094V9.73438C8.70861 9.44142 8.7758 9.15197 8.90625 8.88965C9.02266 8.63306 9.20104 8.40919 9.42578 8.23926C9.99983 7.70853 10.3796 7.36176 10.5098 7.20996C10.8469 6.74516 11.0183 6.18026 10.9971 5.60645C11.0146 5.2558 10.9532 4.90521 10.8184 4.58105C10.6834 4.25687 10.4779 3.96621 10.2168 3.73145C9.63187 3.24663 8.88429 3.00252 8.12598 3.04883Z" fill="#F6D164"/>
</svg>
