<svg width="45" height="16" viewBox="0 0 45 16" fill="none" xmlns="http://www.w3.org/2000/svg">
<path d="M38.2646 0.204115C38.6578 0.187233 39.039 0.337824 39.3316 0.617126L43.9766 5.05027L43.9849 5.05785L43.9922 5.06745L44.4013 5.56046L44.4885 5.67568C44.869 6.2251 44.9015 6.97416 44.5697 7.5543L44.4927 7.67563L44.1277 8.20309L44.1212 8.21229L44.1137 8.22154L39.8684 13.0389C39.601 13.3423 39.2342 13.5244 38.841 13.5415L2.22787 15.1239C1.37079 15.1607 0.676757 14.4282 0.637925 13.5326L0.204746 3.51006C0.166034 2.61438 0.794282 1.82381 1.65142 1.78655L38.2646 0.204115Z" stroke="white" stroke-width="0.4"/>
</svg>
