<svg width="21" height="20" viewBox="0 0 21 20" fill="none" xmlns="http://www.w3.org/2000/svg">
<g clip-path="url(#clip0_0_9)">
<path d="M8.73571 3.05162H5.51864C5.33377 3.06389 5.15078 3.00808 5.00424 2.8947C4.88587 2.78933 4.79848 2.65368 4.75142 2.50236C4.70456 2.32899 4.68109 2.15014 4.68166 1.97055C4.68099 1.78042 4.6985 1.59066 4.73397 1.40386C4.74852 1.21301 4.77767 1.02354 4.82116 0.837144C4.86336 0.652982 4.93394 0.476527 5.03039 0.314061C5.06743 0.235899 5.12242 0.167568 5.19085 0.114673C5.25929 0.0617775 5.33924 0.0258022 5.42422 0.00965706C5.50919 -0.00648807 5.59679 -0.00234677 5.67985 0.021763C5.76292 0.0458728 5.8391 0.0892789 5.90223 0.14841L6.71306 0.610484L7.5849 1.10744L8.38698 1.56079L8.94497 1.88336C9.08752 1.98015 9.2091 2.1047 9.30242 2.24955C9.37608 2.36323 9.40981 2.49819 9.39831 2.63316C9.38987 2.69356 9.36834 2.75138 9.3352 2.80259C9.30207 2.85379 9.25815 2.89713 9.20651 2.92958C9.06623 3.01855 8.90155 3.06123 8.73571 3.05162Z" fill="#808994"/>
<path d="M11.3608 3.025H14.5256C14.709 3.03596 14.8905 2.98365 15.04 2.8768C15.1597 2.76904 15.2472 2.63021 15.2928 2.47574C15.3403 2.30249 15.3637 2.12356 15.3625 1.94393C15.3718 1.75805 15.3718 1.57182 15.3625 1.38594C15.3625 1.21157 15.2928 1.01978 15.2579 0.827976C15.2237 0.646859 15.1588 0.472908 15.0661 0.313594C14.9924 0.175393 14.8671 0.0719461 14.7174 0.0258716C14.6284 0.0037608 14.5357 0.00087371 14.4455 0.0174108C14.3553 0.0339478 14.2696 0.0695428 14.1943 0.121788L13.3835 0.583862C13.087 0.749511 12.7819 0.915149 12.5116 1.08952L11.7008 1.54289C11.5144 1.63634 11.3339 1.74115 11.1603 1.85674C11.006 1.95148 10.8749 2.07958 10.7767 2.23162C10.7048 2.34259 10.6739 2.47523 10.6895 2.60654C10.6957 2.66773 10.7153 2.72679 10.747 2.77953C10.7786 2.83227 10.8215 2.87738 10.8726 2.91166C11.0257 2.99982 11.2021 3.03935 11.3782 3.025H11.3608Z" fill="#808994"/>
<path d="M9.20599 4.01025H1.35943C0.968938 3.96473 0.574217 4.04733 0.234753 4.24563C0.143756 4.34503 0.0743279 4.4622 0.0308151 4.58973C-0.0126976 4.71727 -0.0293337 4.85242 -0.0180609 4.9867V6.93962C-0.0296794 7.08934 -0.0109773 7.23987 0.0369612 7.38219C0.0848998 7.5245 0.161095 7.65569 0.260934 7.76787C0.59524 7.98026 0.991872 8.07249 1.38559 8.02941H9.18856L9.20599 4.01025Z" fill="#808994"/>
<path d="M10.8543 4.01025H18.7008C19.0913 3.96473 19.486 4.04733 19.8255 4.24563C19.9172 4.34635 19.987 4.46499 20.0305 4.59405C20.074 4.7231 20.0903 4.85977 20.0783 4.99543V6.94834C20.0907 7.0975 20.0715 7.24759 20.0219 7.38881C19.9724 7.53003 19.8935 7.6592 19.7906 7.76787C19.4618 7.98602 19.0668 8.08168 18.6747 8.03814H10.8281L10.8543 4.01025Z" fill="#808994"/>
<path d="M9.20757 8.98828H0.794328V17.5759C0.77544 17.9153 0.837521 18.2545 0.975465 18.5652C1.11341 18.876 1.32327 19.1494 1.58771 19.3631C2.31587 19.8451 3.18454 20.0692 4.055 19.9996H9.20757V8.98828Z" fill="#808994"/>
<path d="M10.8535 8.98828H19.2145V17.5061C19.222 17.8504 19.155 18.1924 19.0181 18.5084C18.8811 18.8244 18.6775 19.1071 18.4211 19.337C17.7179 19.8396 16.8584 20.0746 15.9974 19.9996H10.8535V8.98828Z" fill="#808994"/>
</g>
<defs>
<clipPath id="clip0_0_9">
<rect width="20.0697" height="20" fill="white"/>
</clipPath>
</defs>
</svg>
