<svg width="45" height="16" viewBox="0 0 45 16" fill="none" xmlns="http://www.w3.org/2000/svg">
<path d="M38.2637 0.203864C38.6569 0.186982 39.0381 0.337571 39.3307 0.616868L43.9756 5.04994L43.9839 5.05752L43.9912 5.06712L44.4003 5.56012L44.4876 5.67534C44.868 6.22475 44.9005 6.97379 44.5688 7.55392L44.4917 7.67526L44.1268 8.2027L44.1202 8.21191L44.1127 8.22116L39.8675 13.0385C39.6001 13.3419 39.2333 13.5239 38.8401 13.541L2.22758 15.1234C1.37052 15.1602 0.676498 14.4277 0.637667 13.5322L0.204495 3.50976C0.165784 2.61409 0.794021 1.82353 1.65115 1.78627L38.2637 0.203864Z" stroke="white" stroke-width="0.4"/>
</svg>
