<svg width="28" height="28" viewBox="0 0 28 28" fill="none" xmlns="http://www.w3.org/2000/svg">
<path d="M15.0144 27.6929H12.9856C5.8435 27.6929 0 21.9135 0 14.8498V12.8431C0 5.77941 5.8435 0 12.9856 0H15.0144C22.1565 0 28 5.77941 28 12.8431V14.8498C28 21.9135 22.1565 27.6929 15.0144 27.6929Z" fill="#00C300"/>
<path d="M21.9658 12.9873C21.9658 9.43734 18.3656 6.54688 13.9409 6.54688C9.51628 6.54688 5.91602 9.43661 5.91602 12.9873C5.91602 16.1714 8.7707 18.839 12.6278 19.3426C12.8889 19.3981 13.2442 19.5129 13.3339 19.7337C13.4157 19.9343 13.3872 20.2481 13.3602 20.4516L13.2457 21.1313C13.2106 21.3333 13.0852 21.9163 13.9409 21.5591C14.7974 21.2027 18.5618 18.8678 20.2455 16.9514C21.4084 15.6888 21.9658 14.4087 21.9658 12.9866V12.9873H21.9658ZM18.8675 12.6915C19.0998 12.701 19.2802 12.895 19.2706 13.1247C19.2615 13.3411 19.0863 13.5144 18.8675 13.5234H17.693V14.2666H18.8675C19.1002 14.2762 19.281 14.4705 19.2713 14.7006C19.2622 14.9173 19.0866 15.0909 18.8675 15.0999H17.2728C17.0405 15.0995 16.8522 14.9134 16.8518 14.6836V11.5305C16.8518 11.2996 17.0415 11.1135 17.2728 11.1135H18.8675C19.0998 11.13 19.2745 11.3297 19.2577 11.5595C19.2426 11.7661 19.0764 11.9305 18.8675 11.9454H17.693V12.6907H18.8675V12.6915ZM16.2871 14.6843C16.2879 14.9135 16.1008 15.0999 15.8691 15.1007C15.8679 15.1007 15.8667 15.1007 15.8654 15.1007C15.7335 15.1001 15.6094 15.0387 15.5299 14.9347L13.8957 12.734V14.6843C13.8957 14.9143 13.7073 15.1007 13.4748 15.1007C13.2423 15.1007 13.0538 14.9143 13.0538 14.6843V11.5312C13.0538 11.3013 13.2423 11.1149 13.4748 11.1149C13.607 11.1149 13.7316 11.1764 13.8111 11.2808L15.4452 13.4815V11.5312C15.4589 11.3013 15.6585 11.1259 15.891 11.1394C16.1043 11.1518 16.2746 11.3202 16.2871 11.5312V14.6843ZM12.4498 14.6843C12.4498 14.9143 12.2613 15.1007 12.0288 15.1007C11.7963 15.1007 11.6079 14.9143 11.6079 14.6843V11.5312C11.6176 11.3015 11.8137 11.123 12.046 11.1326C12.2647 11.1416 12.4399 11.3149 12.449 11.5312V14.6843H12.4498ZM10.7995 15.1007H9.20478C8.97258 15.1002 8.78458 14.914 8.78458 14.6843V11.5312C8.79427 11.3015 8.9904 11.123 9.22266 11.1326C9.44137 11.1416 9.61661 11.3149 9.62573 11.5312V14.2673H10.8003C11.033 14.2673 11.2216 14.4539 11.2216 14.684C11.2216 14.9141 11.033 15.1006 10.8003 15.1006H10.7995V15.1007Z" fill="white"/>
</svg>
