<svg width="16" height="16" viewBox="0 0 16 16" fill="none" xmlns="http://www.w3.org/2000/svg">
<path d="M7.7994 8.55388C10.1615 8.55388 12.0763 6.63903 12.0763 4.27694C12.0763 1.91485 10.1615 0 7.7994 0C5.43731 0 3.52246 1.91485 3.52246 4.27694C3.52246 6.63903 5.43731 8.55388 7.7994 8.55388Z" fill="#808994"/>
<path d="M13.9955 16.0006H1.58476C1.16611 16.0006 0.764475 15.835 0.467548 15.5398C0.170621 15.2447 0.00252202 14.844 0 14.4254V14.0913C0.00426091 12.8005 0.509176 11.5618 1.40841 10.6358C2.30765 9.70987 3.53107 9.16898 4.82112 9.12695H5.16479C5.29092 9.14131 5.41553 9.16689 5.53713 9.20334C6.27411 9.50582 7.05339 9.69255 7.84742 9.75701C8.50394 9.69301 9.14736 9.53215 9.75677 9.27968L10.0145 9.20334L10.5492 9.12695H10.7019C12.0061 9.14698 13.2503 9.67854 14.1663 10.6071C15.0824 11.5357 15.597 12.7869 15.5994 14.0913V14.4254C15.5982 14.6343 15.5556 14.8409 15.4742 15.0334C15.3928 15.2258 15.2742 15.4002 15.1251 15.5466C14.9761 15.693 14.7995 15.8085 14.6057 15.8864C14.4118 15.9643 14.2044 16.0031 13.9955 16.0006Z" fill="#808994"/>
</svg>
