<svg width="21" height="14" viewBox="0 0 21 14" fill="none" xmlns="http://www.w3.org/2000/svg">
<g opacity="0.8">
<path fill-rule="evenodd" clip-rule="evenodd" d="M3.76885 10.4002L5.37507 8.86644C4.20978 8.20045 3.26494 7.45373 2.65604 6.91892C4.01031 5.7282 7.04429 3.44768 10.4982 3.44768C10.6662 3.44768 10.8236 3.45777 10.9916 3.46787L12.9128 1.62125C12.1359 1.43961 11.3276 1.33871 10.4982 1.33871C4.88166 1.33871 0.461921 6.02084 0.283451 6.21256C-0.0944837 6.61619 -0.0944837 7.22164 0.283451 7.62527C0.377935 7.73627 1.70071 9.1288 3.76885 10.4002Z" fill="#808994"/>
<path fill-rule="evenodd" clip-rule="evenodd" d="M15.6249 4.97295C16.7902 5.63894 17.735 6.39575 18.3334 6.92048C16.9896 8.11119 13.9452 10.3917 10.5018 10.3917C10.3338 10.3917 10.1658 10.3917 10.0083 10.3816L8.08718 12.2282C8.85354 12.3998 9.6619 12.5007 10.5018 12.5007C16.1183 12.5007 20.5275 7.82865 20.7165 7.62683C21.0944 7.2232 21.0944 6.61775 20.7165 6.22421C20.6115 6.11321 19.2992 4.71059 17.2311 3.43915L15.6249 4.97295Z" fill="#808994"/>
<path fill-rule="evenodd" clip-rule="evenodd" d="M6.88254 11.8844L8.65674 10.1892L14.6197 4.44752L16.2469 2.88345L17.3807 1.79364C17.8112 1.39001 17.8112 0.713924 17.3807 0.310292C16.9503 -0.103431 16.2574 -0.103431 15.827 0.310292L12.3416 3.66044L6.37863 9.39201L4.74091 10.9561L3.6176 12.0459C3.18718 12.4596 3.18718 13.1256 3.6176 13.5393C3.82757 13.7411 4.11102 13.8521 4.39447 13.8521C4.66742 13.8521 4.95087 13.7411 5.17134 13.5393L6.88254 11.8844Z" fill="#808994"/>
</g>
</svg>
