<svg width="14" height="18" viewBox="0 0 14 18" fill="none" xmlns="http://www.w3.org/2000/svg">
<path d="M11.971 6.1517e-05C12.2006 -0.00181188 12.4285 0.0391195 12.6418 0.120586C12.8447 0.204381 13.0295 0.323595 13.1869 0.472137C13.3453 0.620295 13.4702 0.798064 13.5538 0.994422C13.6388 1.19886 13.6815 1.4172 13.6796 1.63726V16.362C13.6858 16.5782 13.6453 16.7934 13.5605 16.9939C13.4757 17.1945 13.3485 17.376 13.1869 17.5271C13.0292 17.682 12.8398 17.8038 12.6305 17.8851C12.4212 17.9663 12.1967 18.0052 11.971 17.9992H1.7089C1.48477 18.005 1.26183 17.9661 1.05428 17.8848C0.846737 17.8035 0.65914 17.6817 0.503441 17.5271C0.340438 17.3765 0.21162 17.1953 0.125046 16.9948C0.0384708 16.7943 -0.0039978 16.5789 0.000295949 16.362V1.61715C0.00463167 1.40541 0.0545931 1.19684 0.147046 1.00448C0.230678 0.808118 0.355555 0.630349 0.513922 0.482191C0.671302 0.333649 0.856135 0.214435 1.059 0.13064C1.269 0.0502031 1.49322 0.00928591 1.71938 0.0101155L11.971 6.1517e-05ZM5.13657 1.63726H8.53281V0.80358H5.13657V1.63726ZM6.82421 17.1755C7.04925 17.1869 7.27427 17.1527 7.48459 17.0751C7.68818 16.9926 7.87325 16.8732 8.02966 16.7235C8.18468 16.5727 8.30909 16.3956 8.39654 16.2013C8.48152 16.0003 8.52427 15.7853 8.52233 15.5685C8.52428 15.3484 8.48156 15.1301 8.39654 14.9256C8.31166 14.7329 8.18685 14.5586 8.02966 14.4134C7.87083 14.2666 7.68634 14.1476 7.48459 14.0619C7.27187 13.9772 7.04405 13.9328 6.81373 13.9313C6.58993 13.9278 6.36773 13.9679 6.16054 14.049C5.95336 14.1302 5.76549 14.2507 5.60827 14.4034C5.44935 14.5538 5.3245 14.734 5.24154 14.9327C5.15858 15.1315 5.11928 15.3445 5.12609 15.5584C5.12052 15.7722 5.16039 15.9849 5.24328 16.1835C5.32618 16.382 5.45036 16.5624 5.60827 16.7135C5.76345 16.8694 5.95071 16.9928 6.15821 17.0758C6.36571 17.1588 6.58892 17.1996 6.81373 17.1956L6.82421 17.1755ZM11.971 2.44078H1.7089V13.0574H11.971V2.44078Z" fill="#808994"/>
</svg>
