<svg width="17" height="15" viewBox="0 0 17 15" fill="none" xmlns="http://www.w3.org/2000/svg">
<g clip-path="url(#clip0_0_18)">
<path d="M16.86 6.69847L13.7777 2.83535C13.701 2.7352 13.6022 2.65408 13.4891 2.59824C13.376 2.5424 13.2515 2.51337 13.1253 2.51337C12.9992 2.51337 12.8747 2.5424 12.7616 2.59824C12.6484 2.65408 12.5496 2.7352 12.4729 2.83535L9.39064 6.69847C9.33909 6.76477 9.30704 6.84412 9.29806 6.92761C9.28908 7.01111 9.30354 7.09546 9.33981 7.1712C9.37608 7.24694 9.43273 7.31107 9.50341 7.35642C9.57408 7.40177 9.656 7.42653 9.73996 7.42794H10.942C10.942 9.68827 10.942 12.5651 6.96591 14.8357C6.86317 14.9076 6.91454 15.0617 7.02756 15.0412C14.5894 13.8699 15.247 8.8047 15.247 7.4485H16.5107C16.5957 7.44437 16.6779 7.41684 16.7483 7.36896C16.8187 7.32108 16.8745 7.25469 16.9095 7.17713C16.9446 7.09957 16.9576 7.01386 16.947 6.9294C16.9365 6.84494 16.9028 6.76502 16.8497 6.69847H16.86ZM7.19195 7.66425H6.02068C6.02068 5.41419 6.02068 2.52714 10.0071 0.25653C10.1098 0.184611 10.0071 0.0304844 9.94545 0.0510328C2.3836 1.2223 1.72605 6.30804 1.72605 7.65397H0.472588C0.388623 7.65538 0.306712 7.68014 0.236033 7.72549C0.165355 7.77084 0.108703 7.83499 0.0724334 7.91073C0.0361635 7.98647 0.0217068 8.07083 0.0306848 8.15433C0.0396629 8.23782 0.0717201 8.31717 0.123263 8.38346L3.20554 12.2466C3.28345 12.3449 3.38261 12.4244 3.49559 12.4791C3.60857 12.5337 3.73245 12.5621 3.85795 12.5621C3.98346 12.5621 4.10733 12.5337 4.22031 12.4791C4.3333 12.4244 4.43245 12.3449 4.51037 12.2466L7.59264 8.38346C7.64129 8.31714 7.67093 8.23879 7.67835 8.15686C7.68578 8.07494 7.6707 7.99253 7.63477 7.91854C7.59883 7.84455 7.54339 7.78178 7.47441 7.73697C7.40543 7.69215 7.32553 7.66702 7.24332 7.66425H7.19195Z" fill="#85D420"/>
</g>
<defs>
<clipPath id="clip0_0_18">
<rect width="16.51" height="14.6" fill="white" transform="scale(1.02742)"/>
</clipPath>
</defs>
</svg>
