<svg width="16" height="12" viewBox="0 0 16 12" fill="none" xmlns="http://www.w3.org/2000/svg">
<path d="M15.1057 4.95814C15.2233 4.95547 15.3401 4.97777 15.4485 5.02356C15.5569 5.06935 15.6543 5.13757 15.7344 5.22376C15.8191 5.30681 15.8863 5.40605 15.9319 5.51557C15.9775 5.62509 16.0007 5.74264 16 5.86128L16 7.07437C15.9995 7.19152 15.9758 7.30738 15.9302 7.4153C15.8846 7.52321 15.818 7.62102 15.7344 7.70302C15.6543 7.78921 15.5569 7.85744 15.4485 7.90323C15.3401 7.94901 15.2233 7.97131 15.1057 7.96865L3.42667 7.96865C3.58467 7.92581 3.73871 7.86952 3.8871 7.80041C4.04157 7.72058 4.17737 7.60892 4.28555 7.4728C4.62202 7.09206 4.95849 6.67591 5.30381 6.24205C5.64914 5.80818 5.9679 5.35659 6.26895 4.95814L15.1057 4.95814Z" fill="white"/>
<path d="M13.1223 9.0312C13.2394 9.03169 13.3553 9.0554 13.4632 9.101C13.5712 9.14659 13.669 9.21316 13.751 9.29682C13.8341 9.38061 13.8996 9.48017 13.9437 9.58966C13.9878 9.69914 14.0096 9.81633 14.0077 9.93434L14.0077 11.05C14.0084 11.1665 13.9861 11.2821 13.942 11.3899C13.8979 11.4978 13.833 11.5959 13.751 11.6787C13.669 11.7623 13.5712 11.8289 13.4632 11.8745C13.3553 11.9201 13.2394 11.9438 13.1223 11.9443L1.00056 11.9443C0.881915 11.945 0.764343 11.9218 0.654827 11.8762C0.545311 11.8306 0.446082 11.7634 0.363034 11.6787C0.27937 11.5967 0.212812 11.4989 0.167215 11.391C0.121618 11.2831 0.0978879 11.1672 0.0974015 11.05L0.0974014 9.93435C0.0967081 9.8157 0.119864 9.69815 0.165496 9.58863C0.211128 9.47911 0.278304 9.37987 0.363034 9.29682C0.446082 9.21209 0.545311 9.14493 0.654827 9.0993C0.764343 9.05366 0.881915 9.03051 1.00055 9.0312L13.1223 9.0312Z" fill="white"/>
<path d="M5.08245 2.03618L5.08245 1.91221C5.08245 1.85023 5.08245 1.74397 5.08245 1.6023C5.08245 1.46063 5.08245 1.24813 5.08245 0.973639L15.1057 0.973639C15.2233 0.970973 15.3401 0.993271 15.4485 1.03906C15.5569 1.08485 15.6543 1.15307 15.7344 1.23926C15.8191 1.32231 15.8863 1.42155 15.9319 1.53107C15.9775 1.64058 16.0007 1.75814 16 1.87678L16 3.07214C15.9995 3.18929 15.9758 3.30518 15.9302 3.4131C15.8846 3.52101 15.818 3.61879 15.7344 3.7008C15.6543 3.78699 15.5569 3.85524 15.4485 3.90103C15.3401 3.94681 15.2233 3.96911 15.1057 3.96645L7.06585 3.96645C7.1016 3.9439 7.13185 3.91365 7.15439 3.8779L7.22523 3.78935C7.33299 3.63432 7.39998 3.45467 7.42003 3.26694C7.43992 3.06995 7.41882 2.87097 7.35805 2.68254C7.29293 2.504 7.18677 2.34325 7.04814 2.21326C6.89644 2.08811 6.7046 2.02208 6.50802 2.02732L5.08245 2.02732L5.08245 2.03618Z" fill="white"/>
<path d="M0.33647 3.82477L0.097399 3.42631C0.0449965 3.34967 0.0116074 3.26166 -7.67116e-07 3.16955C-7.72535e-07 3.10757 1.77267e-07 3.06327 0.115109 3.03671C0.245018 3.0024 0.379287 2.98749 0.51356 2.99245L1.399 2.99245C1.49361 3.00095 1.58895 2.9896 1.67892 2.9591C1.76888 2.92861 1.85148 2.87963 1.92141 2.81535C1.98088 2.75481 2.02728 2.68273 2.05774 2.60353C2.0882 2.52433 2.10208 2.43971 2.0985 2.35493L2.0985 0.814263C2.10866 0.610853 2.19383 0.41841 2.33757 0.274127C2.40493 0.188282 2.49098 0.11895 2.58918 0.0713846C2.68738 0.0238182 2.79514 -0.000726499 2.90426 -0.00035839L3.53293 -0.000358445C3.61139 0.000136505 3.68889 0.0169212 3.76052 0.0489293C3.83216 0.0809365 3.89637 0.127462 3.94908 0.185577C4.09367 0.368192 4.16047 0.600433 4.13503 0.831962C4.14164 0.917427 4.14164 1.00328 4.13503 1.08875C4.13005 1.1388 4.13005 1.18921 4.13503 1.23926C4.13503 1.29239 4.13503 1.3898 4.13503 1.53147C4.13503 1.67314 4.13503 1.90336 4.13503 2.24868C4.11679 2.44816 4.16673 2.64792 4.2767 2.81535C4.33613 2.88134 4.41068 2.93194 4.49396 2.96278C4.57724 2.99362 4.66676 3.00381 4.75484 2.99245L5.64028 2.99245C5.72343 2.98065 5.80818 2.98808 5.888 3.01417C5.96782 3.04027 6.04059 3.08435 6.10071 3.14299C6.1627 3.24924 6.10071 3.39976 5.94133 3.61227L5.40121 4.35604L4.19701 6.12693C4.00221 6.41027 3.80741 6.66704 3.63032 6.8884C3.5549 6.9774 3.45709 7.04465 3.34698 7.0832C3.23025 7.13639 3.10337 7.16357 2.9751 7.16289C2.8611 7.18555 2.74376 7.18555 2.62977 7.16289C2.53563 7.13553 2.45217 7.07989 2.3907 7.00351L1.94798 6.25974C1.7886 5.99411 1.61151 5.71961 1.43442 5.44512C1.25733 5.17063 1.07139 4.89615 0.903154 4.62166L0.41616 3.86903L0.33647 3.82477Z" fill="white"/>
</svg>
