<svg width="14" height="14" viewBox="0 0 14 14" fill="none" xmlns="http://www.w3.org/2000/svg">
<circle cx="7" cy="7" r="6.5" fill="#25282D" stroke="#BFBFBF"/>
<path fill-rule="evenodd" clip-rule="evenodd" d="M3.62814 3.62814C3.799 3.45729 4.076 3.45729 4.24686 3.62814L10.3719 9.75314C10.5427 9.924 10.5427 10.201 10.3719 10.3719C10.201 10.5427 9.924 10.5427 9.75314 10.3719L3.62814 4.24686C3.45729 4.076 3.45729 3.799 3.62814 3.62814Z" fill="#BFBFBF"/>
<path fill-rule="evenodd" clip-rule="evenodd" d="M10.3719 3.62814C10.5427 3.799 10.5427 4.076 10.3719 4.24686L4.24686 10.3719C4.076 10.5427 3.799 10.5427 3.62814 10.3719C3.45729 10.201 3.45729 9.924 3.62814 9.75314L9.75314 3.62814C9.924 3.45729 10.201 3.45729 10.3719 3.62814Z" fill="#BFBFBF"/>
</svg>
