<svg width="14" height="16" viewBox="0 0 14 16" fill="none" xmlns="http://www.w3.org/2000/svg">
<path d="M13.2403 1.98651C13.4121 1.98422 13.5779 2.04956 13.7023 2.16816C13.8267 2.28683 13.8996 2.44948 13.9054 2.62131V15.3653C13.9052 15.7198 13.6037 16.0001 13.2491 16.0001H3.91259C3.74159 16.0022 3.57646 15.9364 3.45358 15.8174C3.33079 15.6986 3.25984 15.5361 3.2563 15.3653V2.62131C3.25644 2.26671 3.55796 1.98651 3.91259 1.98651H13.2403ZM12.9288 13.7392C12.8729 13.7392 12.8309 13.7497 12.8028 13.7704C12.774 13.7914 12.7517 13.8244 12.7373 13.8681C12.7224 13.9119 12.704 13.986 12.6807 14.0898L12.67 14.1376C12.621 14.1341 12.5679 14.1328 12.5117 14.1328C12.4591 14.1328 12.413 14.1343 12.374 14.1367L12.3516 14.0156L12.3623 13.7841C12.3503 13.7692 12.3271 13.7581 12.293 13.7509C12.2589 13.7437 12.2249 13.7402 12.1914 13.7402C12.1205 13.7402 12.0599 13.7498 12.0098 13.7695C11.9739 13.8005 11.9552 13.8414 11.9551 13.8915C11.9551 13.9028 11.9562 13.9152 11.958 13.9277C11.9598 13.9408 11.9622 13.9553 11.9658 13.9697C11.9688 13.9838 11.9715 13.9932 11.9727 13.998C12.0762 14.4685 12.1787 14.8422 12.2793 15.1182L12.335 15.1504C12.3643 15.151 12.4091 15.1514 12.4678 15.1514C12.5491 15.1514 12.6464 15.1474 12.7598 15.1397C12.873 15.1325 12.9738 15.1203 13.0606 15.1035C13.0689 15.069 13.0723 15.0334 13.0723 14.9971C13.0723 14.9492 13.0656 14.9059 13.0518 14.8682L12.836 14.8447C12.9102 14.5269 12.9762 14.251 13.0342 14.0175C13.0642 14.0247 13.0974 14.0349 13.1339 14.0468C13.1566 14.0307 13.1744 14.0027 13.1876 13.9638C13.2007 13.9249 13.2071 13.8839 13.2071 13.8407C13.1921 13.8229 13.1696 13.8065 13.1397 13.7909C13.1098 13.7754 13.0762 13.7628 13.0391 13.7538C13.0021 13.7443 12.9652 13.7392 12.9288 13.7392ZM12.6104 14.3935L12.5459 14.8369H12.5039L12.4092 14.3935H12.6104ZM6.5651 8.05133C6.31278 8.27431 6.13395 8.56869 6.05139 8.89513C5.96888 9.22174 5.98697 9.5663 6.10316 9.8825C6.21456 10.2002 6.42019 10.4764 6.69304 10.6736C6.96611 10.8709 7.29375 10.9802 7.63059 10.9861C7.86384 10.9847 8.09441 10.9347 8.30739 10.8396L7.71654 11.9842H9.43637L8.84453 10.8396C9.05911 10.9333 9.28583 10.9861 9.52231 10.9861C9.85857 10.9764 10.1843 10.8657 10.4569 10.6687C10.7297 10.4716 10.937 10.1969 11.0517 9.88054C11.1664 9.5642 11.1835 9.22027 11.1005 8.89416C11.0175 8.56814 10.8378 8.27429 10.5859 8.05133L8.57596 6.00238L6.5651 8.05133ZM4.42044 2.81273C4.30731 2.81991 4.2074 2.8321 4.12061 2.84886C4.11229 2.88347 4.10792 2.91893 4.10792 2.95532C4.10792 3.00321 4.11466 3.04651 4.12843 3.08423L4.34524 3.10669C4.27104 3.4244 4.20503 3.70049 4.14698 3.93389C4.11716 3.92673 4.08372 3.91748 4.04737 3.90557C4.02461 3.92174 4.00585 3.94967 3.99268 3.98858C3.97961 4.02736 3.97314 4.06871 3.97314 4.11164C3.98809 4.12951 4.01075 4.14595 4.04053 4.16144C4.07046 4.17701 4.10401 4.18958 4.14112 4.19856C4.17818 4.20812 4.21502 4.21221 4.25148 4.21223C4.30776 4.21223 4.3503 4.20193 4.37844 4.18098C4.40706 4.16003 4.42857 4.12786 4.4429 4.08429C4.45786 4.0406 4.47718 3.9667 4.50052 3.8626L4.51126 3.81377C4.56035 3.81736 4.61321 3.81963 4.66947 3.81963C4.72186 3.81962 4.76744 3.81809 4.8062 3.81572L4.82866 3.93585L4.81792 4.1673C4.82988 4.18225 4.85321 4.1943 4.88726 4.20149C4.92133 4.20866 4.95536 4.21222 4.98883 4.21223C5.06008 4.21223 5.12117 4.20171 5.17146 4.18195C5.20726 4.15084 5.22517 4.11008 5.22517 4.05988C5.22517 4.04854 5.22403 4.03626 5.22224 4.02374C5.22045 4.01068 5.21799 3.99696 5.21443 3.98272C5.21153 3.96881 5.20978 3.95932 5.20857 3.9544C5.105 3.48385 5.00249 3.11022 4.90191 2.83422L4.84527 2.80199C4.81595 2.80139 4.77201 2.80101 4.71342 2.80101C4.632 2.80101 4.53419 2.80495 4.42044 2.81273ZM4.77202 3.55789H4.57084L4.63529 3.11548H4.67631L4.77202 3.55789Z" fill="#808994"/>
<path d="M2.31516 0.00512405L11.5716 1.1634C11.7155 1.17948 11.8479 1.244 11.9515 1.3431H3.53301C3.02515 1.3431 2.6131 1.75523 2.61303 2.26307V14.1642L0.575795 13.9103C0.405941 13.8911 0.250293 13.8052 0.143152 13.672C0.0360401 13.5388 -0.0142442 13.3683 0.00349461 13.1983L1.5866 0.553009C1.63082 0.201465 1.96355 -0.0385496 2.31516 0.00512405Z" fill="#808994"/>
</svg>
