<svg width="14" height="15" viewBox="0 0 14 15" fill="none" xmlns="http://www.w3.org/2000/svg">
<path d="M6.4981 0V14.7241M6.4981 0H7.00655M6.4981 0H7.00655M6.4981 0V14.7241M6.4981 14.7241H7.00655M6.4981 14.7241H7.00655M7.00655 14.7241H7.51501M7.00655 14.7241H7.51501M7.51501 14.7241V0M7.51501 14.7241V0M7.51501 0H7.00655M7.51501 0H7.00655M14 6.86073H0M14 6.86073V7.36919M14 6.86073V7.36919M14 6.86073H0M0 6.86073V7.36919M0 6.86073V7.36919M0 7.36919V7.87765M0 7.36919V7.87765M0 7.87765H14M0 7.87765H14M14 7.87765V7.36919M14 7.87765V7.36919" fill="white" stroke="white"/>
</svg>
