<svg width="17" height="17" viewBox="0 0 17 17" fill="none" xmlns="http://www.w3.org/2000/svg">
<g clip-path="url(#clip0_1_8726)">
<path d="M8.49986 16.9896C6.24638 16.9869 4.08597 16.0905 2.49251 14.4971C0.89906 12.9036 0.00268112 10.7432 0 8.48974C0.00535967 6.23801 0.902925 4.08019 2.49609 2.48893C4.08925 0.897662 6.24814 0.00267425 8.49986 0C10.7524 -1.6e-06 12.9129 0.894115 14.5066 2.48596C16.1003 4.0778 16.997 6.23719 16.9997 8.48974C16.9997 10.744 16.1042 12.906 14.5102 14.5C12.9161 16.0941 10.7542 16.9896 8.49986 16.9896ZM8.49986 1.01309C6.51682 1.01577 4.61562 1.804 3.21245 3.20528C1.80928 4.60655 1.01845 6.5067 1.01309 8.48974C1.01577 10.4745 1.80542 12.3773 3.20888 13.7807C4.61234 15.1842 6.51507 15.9738 8.49986 15.9765C10.4855 15.9765 12.3898 15.1877 13.7938 13.7837C15.1978 12.3796 15.9866 10.4753 15.9866 8.48974C15.9839 6.50588 15.194 4.60419 13.7902 3.20234C12.3865 1.80049 10.4837 1.01309 8.49986 1.01309Z" fill="#808994"/>
<path d="M10.506 4.11313C10.7502 4.33266 10.9424 4.60389 11.0686 4.90708C11.1948 5.21027 11.2518 5.5378 11.2354 5.86579C11.2554 6.40251 11.0949 6.93042 10.7795 7.36515C10.658 7.50699 10.3034 7.83119 9.76643 8.3276C9.55619 8.48651 9.38903 8.69547 9.28015 8.93547C9.15806 9.18086 9.09558 9.4516 9.09779 9.72568V10.7388H7.6592V9.72568C7.64365 9.3135 7.72702 8.9036 7.90234 8.53024C8.28869 7.9404 8.77159 7.4198 9.3308 6.99031L9.47264 6.8181C9.67993 6.5789 9.79491 6.27349 9.79683 5.95697C9.81297 5.60821 9.69311 5.26679 9.4625 5.00466C9.32578 4.8816 9.16548 4.78762 8.99133 4.72841C8.81717 4.6692 8.6328 4.64599 8.44941 4.66021C8.23115 4.63921 8.01117 4.67478 7.81065 4.7635C7.61014 4.85223 7.43586 4.99111 7.30461 5.16676C7.07976 5.51945 6.97328 5.93468 7.00068 6.35206H5.63301C5.61075 5.96363 5.6695 5.57483 5.80554 5.21032C5.94158 4.84581 6.15192 4.51357 6.42322 4.2347C6.71016 3.97393 7.04588 3.77254 7.41102 3.64214C7.77616 3.51173 8.16351 3.45487 8.55072 3.47487C9.2599 3.43148 9.959 3.65969 10.506 4.11313Z" fill="#808994"/>
<path d="M9.04649 11.6407C9.21764 11.8169 9.31231 12.0536 9.3099 12.2993C9.31413 12.4237 9.29193 12.5476 9.24479 12.6629C9.19764 12.7781 9.1266 12.8821 9.03637 12.9679C8.94707 13.052 8.84204 13.1177 8.7273 13.1612C8.61256 13.2047 8.49036 13.225 8.36772 13.2212C8.24439 13.2237 8.12177 13.2017 8.00699 13.1565C7.89221 13.1113 7.78756 13.0437 7.69908 12.9578C7.6091 12.8739 7.53813 12.7717 7.49095 12.6582C7.44377 12.5446 7.42147 12.4222 7.42555 12.2993C7.42212 12.1764 7.44472 12.0542 7.49186 11.9407C7.539 11.8272 7.60962 11.725 7.69908 11.6407C7.88377 11.4778 8.12147 11.3878 8.36772 11.3875C8.61747 11.3853 8.85919 11.4755 9.04649 11.6407Z" fill="#808994"/>
</g>
<defs>
<clipPath id="clip0_1_8726">
<rect width="16.78" height="16.78" fill="white" transform="scale(1.01309)"/>
</clipPath>
</defs>
</svg>
