<svg width="17" height="15" viewBox="0 0 17 15" fill="none" xmlns="http://www.w3.org/2000/svg">
<g clip-path="url(#clip0_0_38)">
<path d="M16.8594 6.6985L13.7773 2.8355C13.7005 2.73536 13.6018 2.65424 13.4887 2.59841C13.3755 2.54257 13.251 2.51353 13.1249 2.51353C12.9987 2.51353 12.8743 2.54257 12.7611 2.59841C12.648 2.65424 12.5492 2.73536 12.4725 2.8355L9.39032 6.6985C9.33878 6.76479 9.30672 6.84414 9.29775 6.92763C9.28877 7.01112 9.30322 7.09548 9.33949 7.17122C9.37576 7.24695 9.43241 7.31107 9.50309 7.35642C9.57376 7.40177 9.65567 7.42653 9.73963 7.42794H10.9417C10.9417 9.6882 10.9417 12.5649 6.96568 14.8354C6.86294 14.9074 6.91431 15.0615 7.02732 15.0409C14.5889 13.8697 15.2464 8.80466 15.2464 7.44851H16.5101C16.5951 7.44437 16.6774 7.41684 16.7477 7.36896C16.8181 7.32108 16.8739 7.2547 16.909 7.17714C16.944 7.09958 16.957 7.01387 16.9464 6.92942C16.9359 6.84496 16.9022 6.76505 16.8492 6.6985H16.8594ZM7.19171 7.66425H6.02048C6.02048 5.41426 6.02048 2.52731 10.0068 0.256773C10.1095 0.184855 10.0068 0.0307342 9.94511 0.051282C2.38352 1.22251 1.72599 6.30808 1.72599 7.65396H0.472572C0.38861 7.65537 0.306702 7.68013 0.236025 7.72548C0.165349 7.77083 0.1087 7.83498 0.0724309 7.91072C0.0361623 7.98646 0.0217061 8.07081 0.0306838 8.1543C0.0396615 8.2378 0.0717177 8.31714 0.123259 8.38343L3.20543 12.2464C3.28334 12.3448 3.3825 12.4243 3.49548 12.4789C3.60845 12.5336 3.73233 12.5619 3.85783 12.5619C3.98332 12.5619 4.1072 12.5336 4.22017 12.4789C4.33315 12.4243 4.4323 12.3448 4.51022 12.2464L7.59239 8.38343C7.64104 8.31711 7.67067 8.23876 7.6781 8.15684C7.68552 8.07492 7.67045 7.99251 7.63451 7.91853C7.59857 7.84454 7.54313 7.78177 7.47416 7.73696C7.40518 7.69215 7.32528 7.66701 7.24307 7.66425H7.19171Z" fill="#85D420"/>
</g>
<defs>
<clipPath id="clip0_0_38">
<rect width="16.51" height="14.6" fill="white" transform="scale(1.02739)"/>
</clipPath>
</defs>
</svg>
