<svg width="50" height="52" viewBox="0 0 50 52" fill="none" xmlns="http://www.w3.org/2000/svg">
<g filter="url(#filter0_f_1_47735)">
<circle cx="25" cy="27" r="25" fill="#232B32"/>
</g>
<circle cx="25" cy="27" r="25" fill="#85D420"/>
<path d="M35.1561 31.4314H34.5366C34.2063 31.3661 33.9101 31.1907 33.6996 30.9357C33.489 30.6807 33.3774 30.3622 33.3842 30.0357L33.1681 23.0576C33.1926 21.0322 32.4324 19.0714 31.0376 17.5625C29.6427 16.0536 27.7146 15.1061 25.6339 14.9071V14.6141C25.6339 14.4512 25.5671 14.295 25.4482 14.1799C25.3293 14.0647 25.1681 14 25 14C24.8319 14 24.6707 14.0647 24.5518 14.1799C24.4329 14.295 24.3661 14.4512 24.3661 14.6141V14.9071C22.2854 15.1061 20.3573 16.0536 18.9624 17.5625C17.5676 19.0714 16.8074 21.0322 16.8319 23.0576L16.4574 30.0357C16.4864 30.3671 16.383 30.6967 16.1686 30.9564C15.9541 31.216 15.645 31.3861 15.3049 31.4314H14.8439C14.6292 31.3707 14.4029 31.3593 14.1829 31.3981C13.9628 31.4368 13.7551 31.5247 13.5762 31.6547C13.3973 31.7847 13.2521 31.9532 13.1521 32.147C13.0521 32.3408 13 32.5545 13 32.7712C13 32.9878 13.0521 33.2015 13.1521 33.3953C13.2521 33.5891 13.3973 33.7577 13.5762 33.8877C13.7551 34.0177 13.9628 34.1055 14.1829 34.1443C14.4029 34.1831 14.6292 34.1717 14.8439 34.111H35.1561C35.3708 34.1717 35.5971 34.1831 35.8171 34.1443C36.0372 34.1055 36.2449 34.0177 36.4238 33.8877C36.6027 33.7577 36.7479 33.5891 36.8479 33.3953C36.9479 33.2015 37 32.9878 37 32.7712C37 32.5545 36.9479 32.3408 36.8479 32.147C36.7479 31.9532 36.6027 31.7847 36.4238 31.6547C36.2449 31.5247 36.0372 31.4368 35.8171 31.3981C35.5971 31.3593 35.3708 31.3707 35.1561 31.4314Z" fill="white"/>
<path d="M22.5799 34.6554C22.5799 35.2772 22.8349 35.8736 23.2887 36.3133C23.7426 36.753 24.3582 37 25 37C25.6419 37 26.2575 36.753 26.7113 36.3133C27.1652 35.8736 27.4202 35.2772 27.4202 34.6554H22.5799Z" fill="white"/>
<circle cx="8" cy="7" r="7" fill="#F33636"/>
<defs>
<filter id="filter0_f_1_47735" x="-8" y="-6" width="66" height="66" filterUnits="userSpaceOnUse" color-interpolation-filters="sRGB">
<feFlood flood-opacity="0" result="BackgroundImageFix"/>
<feBlend mode="normal" in="SourceGraphic" in2="BackgroundImageFix" result="shape"/>
<feGaussianBlur stdDeviation="4" result="effect1_foregroundBlur_1_47735"/>
</filter>
</defs>
</svg>
