<svg width="45" height="16" viewBox="0 0 45 16" fill="none" xmlns="http://www.w3.org/2000/svg">
<path d="M38.2646 0.20362C38.6578 0.186737 39.039 0.337329 39.3316 0.61663L43.9766 5.04978L43.9849 5.05735L43.9922 5.06695L44.4013 5.55996L44.4885 5.67519C44.869 6.2246 44.9015 6.97366 44.5697 7.5538L44.4927 7.67514L44.1277 8.20259L44.1212 8.2118L44.1137 8.22105L39.8684 13.0384C39.601 13.3418 39.2342 13.5239 38.841 13.541L2.22787 15.1234C1.37079 15.1602 0.676757 14.4277 0.637925 13.5321L0.204746 3.50957C0.166034 2.61388 0.794282 1.82331 1.65142 1.78606L38.2646 0.20362Z" stroke="white" stroke-width="0.4"/>
</svg>
