<svg width="16" height="18" viewBox="0 0 16 18" fill="none" xmlns="http://www.w3.org/2000/svg">
<path d="M14.3718 0.0769671C14.2199 0.136771 14.0799 0.229872 13.9597 0.350957C13.8396 0.472043 13.7417 0.618735 13.6717 0.782649C13.6017 0.946562 13.5609 1.12448 13.5517 1.30624C13.5425 1.488 13.565 1.67004 13.618 1.84195C13.6731 2.02143 13.7604 2.18609 13.8744 2.32564C13.9884 2.46519 14.1266 2.57662 14.2803 2.65295L13.3313 5.82368C13.5297 6.64294 13.8981 6.16642 13.8981 6.16642L14.8771 2.76567C14.9796 2.75692 15.0805 2.73321 15.1776 2.69511C15.4843 2.5743 15.736 2.32063 15.8776 1.98985C16.0191 1.65907 16.0387 1.27824 15.9323 0.931048C15.8254 0.583679 15.6009 0.298572 15.3083 0.138414C15.0157 -0.0217437 14.6789 -0.0438446 14.3718 0.0769671Z" fill="#808994"/>
<g filter="url(#filter0_i_1_18197)">
<path d="M13.4914 13.3916L14.8162 12.8647C14.8162 12.8647 15.7515 11.1511 14.4388 6.92098C13.1262 2.6909 11.5237 1.98436 11.5237 1.98436L10.1989 2.51037C10.1989 2.51037 11.7123 2.75504 13.1626 7.42774C14.6129 12.1004 13.4914 13.3916 13.4914 13.3916Z" fill="#808994"/>
</g>
<path d="M13.9928 14.1807L4.29584 17.9994C4.29584 17.9994 2.65848 17.4019 1.01952 12.0703C-0.619449 6.73869 0.209751 5.135 0.209751 5.135L10.0217 1.27147C10.0217 1.27147 11.6704 2.04033 13.1798 6.95312C14.6892 11.8659 13.9928 14.1807 13.9928 14.1807Z" fill="#808994"/>
<path d="M10.0614 12.4281L12.6299 11.42C12.6299 11.42 12.9482 10.6081 12.085 7.80486C11.2218 5.00161 10.4905 4.61031 10.4905 4.61031L7.98027 5.59635C7.98027 5.59635 8.58597 6.56865 9.30181 8.89538C10.0176 11.2221 10.0614 12.4281 10.0614 12.4281Z" fill="#1E2024"/>
<path d="M6.15164 13.9593L3.58712 14.9838C3.58712 14.9838 2.89072 14.5723 2.02265 11.7718C1.15458 8.97133 1.51088 8.14932 1.51088 8.14932L4.01467 7.15228C4.01467 7.15228 4.07621 8.34359 4.79772 10.6648C5.51922 12.9861 6.15164 13.9593 6.15164 13.9593Z" fill="#1E2024"/>
<path d="M9.45182 12.6674L6.87596 13.681C6.87596 13.681 6.365 12.7957 5.60868 10.348C4.85236 7.90033 4.77461 6.85564 4.77461 6.85564L7.35049 5.8476C7.35049 5.8476 8.09466 7.66298 8.56513 9.19886C9.03561 10.7347 9.45182 12.6674 9.45182 12.6674Z" fill="#1E2024"/>
<path d="M2.08653 10.036L2.13268 10.2514C2.17641 10.453 2.22094 10.6619 2.25334 10.858L2.28816 11.067L2.64769 10.9258V10.7957C2.64164 10.6988 2.64902 10.6014 2.66956 10.507C2.72837 10.4591 2.79455 10.424 2.86471 10.4035L3.60727 10.1112C3.53303 11.1443 3.39284 12.1699 3.18781 13.1802L3.1619 13.3057L3.38215 13.467L3.80809 13.2232L3.81538 13.1206C3.82995 12.9327 3.84291 12.744 3.85668 12.5552C3.92713 11.5792 3.99919 10.5684 4.11499 9.58881L4.12632 9.48984L3.93765 9.30656L2.08653 10.036Z" fill="#808994"/>
<path d="M5.73506 8.60242L5.78122 8.81778C5.82414 9.01939 5.86948 9.22832 5.90187 9.42443L5.9367 9.63337L6.29542 9.49224V9.36212C6.28895 9.26519 6.29634 9.16772 6.31728 9.07345C6.3758 9.02554 6.44171 8.99042 6.51163 8.9699L7.25499 8.67757C7.17995 9.71057 7.03977 10.7362 6.83553 11.7466L6.80962 11.8721L7.02907 12.0334L7.45581 11.7896L7.4631 11.6879L7.5044 11.1216C7.57404 10.1456 7.64692 9.13576 7.76271 8.15522L7.77405 8.05625L7.58538 7.87298L5.73506 8.60242Z" fill="#808994"/>
<path d="M11.0844 6.49603L9.23331 7.22915L9.27947 7.4445C9.32238 7.64611 9.36773 7.85413 9.40012 8.05115L9.43495 8.2601L9.79367 8.11806V7.98884C9.7872 7.89191 9.79459 7.79445 9.81553 7.70018C9.87405 7.65226 9.93996 7.61714 10.0099 7.59663L10.7532 7.30338C10.6783 8.33669 10.5381 9.36262 10.3338 10.3733L10.3079 10.4988L10.5273 10.6601L10.9541 10.4164L10.9614 10.3137L11.0027 9.74832C11.0723 8.77144 11.1452 7.76158 11.261 6.78195L11.2723 6.68298L11.0844 6.49603Z" fill="#808994"/>
<defs>
<filter id="filter0_i_1_18197" x="10.1989" y="1.98436" width="6.94024" height="12.4071" filterUnits="userSpaceOnUse" color-interpolation-filters="sRGB">
<feFlood flood-opacity="0" result="BackgroundImageFix"/>
<feBlend mode="normal" in="SourceGraphic" in2="BackgroundImageFix" result="shape"/>
<feColorMatrix in="SourceAlpha" type="matrix" values="0 0 0 0 0 0 0 0 0 0 0 0 0 0 0 0 0 0 127 0" result="hardAlpha"/>
<feOffset dx="2" dy="1"/>
<feGaussianBlur stdDeviation="1"/>
<feComposite in2="hardAlpha" operator="arithmetic" k2="-1" k3="1"/>
<feColorMatrix type="matrix" values="0 0 0 0 0 0 0 0 0 0 0 0 0 0 0 0 0 0 0.2 0"/>
<feBlend mode="normal" in2="shape" result="effect1_innerShadow_1_18197"/>
</filter>
</defs>
</svg>
