<svg width="16" height="12" viewBox="0 0 16 12" fill="none" xmlns="http://www.w3.org/2000/svg">
<path d="M15.1057 4.95912C15.2233 4.95645 15.3401 4.97875 15.4485 5.02454C15.5569 5.07032 15.6543 5.13855 15.7344 5.22474C15.8191 5.30779 15.8863 5.40703 15.9319 5.51655C15.9775 5.62606 16.0007 5.74362 16 5.86226L16 7.07534C15.9995 7.19249 15.9758 7.30836 15.9302 7.41627C15.8846 7.52419 15.818 7.62199 15.7344 7.704C15.6543 7.79019 15.5569 7.85842 15.4485 7.9042C15.3401 7.94999 15.2233 7.97229 15.1057 7.96962L3.42667 7.96962C3.58467 7.92679 3.73871 7.8705 3.8871 7.80139C4.04157 7.72155 4.17737 7.6099 4.28555 7.47378C4.62202 7.09304 4.95849 6.67689 5.30381 6.24302C5.64914 5.80915 5.9679 5.35757 6.26895 4.95912L15.1057 4.95912Z" fill="white"/>
<path d="M13.1223 9.03218C13.2394 9.03266 13.3553 9.05638 13.4632 9.10197C13.5712 9.14757 13.669 9.21414 13.751 9.2978C13.8341 9.38159 13.8996 9.48115 13.9437 9.59063C13.9878 9.70012 14.0096 9.81731 14.0077 9.93532L14.0077 11.051C14.0084 11.1675 13.9861 11.283 13.942 11.3909C13.8979 11.4988 13.833 11.5969 13.751 11.6796C13.669 11.7633 13.5712 11.8299 13.4632 11.8755C13.3553 11.9211 13.2394 11.9448 13.1223 11.9453L1.00056 11.9453C0.881915 11.946 0.764343 11.9228 0.654827 11.8772C0.545311 11.8315 0.446082 11.7644 0.363034 11.6796C0.27937 11.5976 0.212812 11.4999 0.167215 11.3919C0.121618 11.284 0.0978879 11.1681 0.0974015 11.051L0.0974014 9.93532C0.0967081 9.81668 0.119864 9.69912 0.165496 9.58961C0.211128 9.48009 0.278304 9.38085 0.363034 9.2978C0.446082 9.21307 0.545311 9.1459 0.654827 9.10027C0.764343 9.05464 0.881915 9.03149 1.00055 9.03218L13.1223 9.03218Z" fill="white"/>
<path d="M5.08245 2.03716L5.08245 1.91319C5.08245 1.8512 5.08245 1.74495 5.08245 1.60327C5.08245 1.4616 5.08245 1.2491 5.08245 0.974616L15.1057 0.974615C15.2233 0.97195 15.3401 0.994247 15.4485 1.04003C15.5569 1.08582 15.6543 1.15405 15.7344 1.24024C15.8191 1.32329 15.8863 1.42253 15.9319 1.53204C15.9775 1.64156 16.0007 1.75912 16 1.87776L16 3.07311C15.9995 3.19027 15.9758 3.30616 15.9302 3.41407C15.8846 3.52199 15.818 3.61977 15.7344 3.70177C15.6543 3.78796 15.5569 3.85622 15.4485 3.902C15.3401 3.94779 15.2233 3.97009 15.1057 3.96742L7.06585 3.96742C7.1016 3.94488 7.13185 3.91462 7.15439 3.87887L7.22523 3.79032C7.33299 3.6353 7.39998 3.45564 7.42003 3.26791C7.43992 3.07093 7.41882 2.87195 7.35805 2.68352C7.29293 2.50497 7.18677 2.34423 7.04814 2.21423C6.89644 2.08909 6.7046 2.02305 6.50802 2.0283L5.08245 2.0283L5.08245 2.03716Z" fill="white"/>
<path d="M0.33647 3.82575L0.097399 3.42729C0.0449965 3.35064 0.0116074 3.26264 -7.67116e-07 3.17053C-7.72535e-07 3.10854 1.77267e-07 3.06425 0.115109 3.03769C0.245018 3.00338 0.379287 2.98847 0.51356 2.99343L1.399 2.99343C1.49361 3.00193 1.58895 2.99058 1.67892 2.96008C1.76888 2.92959 1.85148 2.88061 1.92141 2.81633C1.98088 2.75579 2.02728 2.6837 2.05774 2.6045C2.0882 2.5253 2.10208 2.44069 2.0985 2.3559L2.0985 0.815239C2.10866 0.61183 2.19383 0.419386 2.33757 0.275104C2.40493 0.189259 2.49098 0.119927 2.58918 0.0723612C2.68738 0.0247948 2.79514 0.000250063 2.90426 0.000618172L3.53293 0.000618117C3.61139 0.00111307 3.68889 0.0178977 3.76052 0.0499059C3.83216 0.0819131 3.89637 0.128439 3.94908 0.186554C4.09367 0.369168 4.16047 0.60141 4.13503 0.832938C4.14164 0.918404 4.14164 1.00426 4.13503 1.08972C4.13005 1.13978 4.13005 1.19018 4.13503 1.24024C4.13503 1.29336 4.13503 1.39078 4.13503 1.53245C4.13503 1.67412 4.13503 1.90433 4.13503 2.24966C4.11679 2.44914 4.16673 2.64889 4.2767 2.81633C4.33613 2.88232 4.41068 2.93291 4.49396 2.96376C4.57724 2.9946 4.66676 3.00478 4.75484 2.99343L5.64028 2.99343C5.72343 2.98163 5.80818 2.98905 5.888 3.01515C5.96782 3.04125 6.04059 3.08533 6.10071 3.14396C6.1627 3.25022 6.10071 3.40074 5.94133 3.61325L5.40121 4.35702L4.19701 6.12791C4.00221 6.41125 3.80741 6.66802 3.63032 6.88938C3.5549 6.97838 3.45709 7.04562 3.34698 7.08418C3.23025 7.13736 3.10337 7.16455 2.9751 7.16386C2.8611 7.18653 2.74376 7.18653 2.62977 7.16386C2.53563 7.1365 2.45217 7.08087 2.3907 7.00449L1.94798 6.26072C1.7886 5.99509 1.61151 5.72059 1.43442 5.4461C1.25733 5.17161 1.07139 4.89713 0.903154 4.62264L0.41616 3.87001L0.33647 3.82575Z" fill="white"/>
</svg>
