<svg width="30" height="30" viewBox="0 0 30 30" fill="none" xmlns="http://www.w3.org/2000/svg">
<circle cx="15" cy="15" r="15" fill="#7889A6"/>
<path d="M15 6.5C19.6944 6.5 23.5 10.3056 23.5 15C23.5 19.6944 19.6944 23.5 15 23.5H6.5V15C6.5 10.3056 10.3056 6.5 15 6.5Z" fill="#7889A6" stroke="#191E24"/>
<g clip-path="url(#clip0_1_58310)">
<path d="M17.1671 15.1382C17.6541 15.1409 18.1202 15.3466 18.4637 15.7101C18.8071 16.0736 18.9999 16.5655 18.9999 17.0782V17.1095C18.9826 17.6039 18.788 18.0731 18.4553 18.4224C18.1225 18.7718 17.6764 18.9754 17.2067 18.9922H16.7757C15.3426 18.8708 13.9845 18.2674 12.9021 17.2712C11.7551 16.1432 11.0784 14.5834 11.0197 12.9322C11.0164 12.6823 11.0604 12.4343 11.1491 12.2025C11.2378 11.9707 11.3695 11.7599 11.5364 11.5822C11.7033 11.4045 11.9021 11.2636 12.1213 11.1677C12.3404 11.0718 12.5755 11.0227 12.8129 11.0234C13.054 11.0234 13.2927 11.0735 13.5154 11.1708C13.7381 11.2681 13.9404 11.4107 14.1106 11.5904C14.2809 11.7702 14.4158 11.9835 14.5076 12.2182C14.5994 12.4529 14.6464 12.7044 14.6457 12.9583C14.6477 13.3154 14.5489 13.6651 14.362 13.9631C14.175 14.2611 13.9083 14.494 13.5956 14.6323C13.8124 14.9957 14.0702 15.3302 14.3634 15.6284C14.693 15.9592 15.071 16.2321 15.4829 16.4367C15.5976 16.0671 15.8203 15.7451 16.1192 15.5166C16.4181 15.2881 16.7779 15.1648 17.1473 15.1643L17.1671 15.1382Z" fill="#1E2024"/>
</g>
<defs>
<clipPath id="clip0_1_58310">
<rect width="8" height="8" fill="white" transform="translate(11 11)"/>
</clipPath>
</defs>
</svg>
