<svg width="22" height="22" viewBox="0 0 22 22" fill="none" xmlns="http://www.w3.org/2000/svg">
<g clip-path="url(#clip0_1_6503)">
<path d="M2.62839 0.698671L3.55761 1.6279L2.62839 2.55713L1.69916 1.6279C1.63639 1.56728 1.58633 1.49476 1.55189 1.41459C1.51745 1.33441 1.49932 1.24818 1.49856 1.16092C1.4978 1.07366 1.51443 0.987127 1.54747 0.906364C1.58051 0.825602 1.62931 0.752228 1.69101 0.690525C1.75272 0.628823 1.82609 0.580026 1.90685 0.546983C1.98762 0.513941 2.07415 0.497313 2.16141 0.498072C2.24867 0.49883 2.3349 0.516959 2.41507 0.5514C2.49525 0.585841 2.56777 0.635905 2.62839 0.698671ZM18.4962 0.698671C18.6195 0.57536 18.7866 0.506051 18.9609 0.505989C19.1353 0.505927 19.3025 0.575119 19.4258 0.698342C19.5491 0.821565 19.6184 0.988726 19.6185 1.16305C19.6185 1.33738 19.5493 1.50459 19.4261 1.6279L18.4962 2.55713L17.567 1.6279L18.4962 0.698671Z" fill="#F6365C"/>
<path d="M2.25325 0.928749C3.26922 0.0764097 5.25976 -0.599811 6.45974 0.830174C7.65972 2.26016 7.02293 3.78938 5.63238 4.95584C4.24248 6.1223 2.62586 6.4844 1.42588 5.05441C0.225901 3.62443 1.23727 1.78109 2.25325 0.928749ZM18.7756 0.928749C19.7916 1.78109 20.803 3.62443 19.6036 5.05441C18.403 6.4844 16.7864 6.1223 15.3965 4.95584C14.0059 3.78938 13.3691 2.26016 14.5685 0.830174C15.7691 -0.599811 17.7596 0.0764097 18.7756 0.928749Z" fill="#FFE768"/>
<path d="M5.88631 0.331094L5.93494 0.360666C6.12157 0.482241 6.29835 0.636674 6.46067 0.82988C7.65999 2.25986 7.0232 3.78908 5.63264 4.95554C4.24274 6.12201 2.62612 6.4841 1.42615 5.05412C1.05821 4.62876 0.863944 4.08045 0.882016 3.51833C1.13042 2.9052 1.53589 2.28878 2.08462 1.74071C3.27409 0.551244 4.78622 0.0320852 5.88631 0.331094ZM18.9448 1.74071C19.4929 2.28812 19.8983 2.90388 20.1474 3.51702C20.1657 4.07957 19.9714 4.62839 19.6033 5.05412C18.4033 6.4841 16.7867 6.12201 15.3968 4.95554C14.0062 3.78908 13.3694 2.25986 14.5687 0.82988C14.7455 0.619588 14.9387 0.455298 15.1431 0.330437C16.2425 0.0314281 17.7553 0.550586 18.9448 1.74071Z" fill="#FFC32A"/>
<path d="M6.27278 0.62916L6.3615 0.719191C6.39435 0.754678 6.42721 0.791479 6.46007 0.830909C6.85568 1.30209 7.05152 1.78379 7.087 2.26089C6.81757 2.97063 6.19523 3.80194 5.32778 4.52942C4.39855 5.30947 3.40229 5.79117 2.63144 5.89303C2.20297 5.76423 1.79488 5.49413 1.42621 5.05449C1.38585 5.00641 1.34727 4.95687 1.31055 4.90597C1.35983 4.10292 2.07614 2.96866 3.21566 2.01249C4.29801 1.10429 5.47236 0.599588 6.27278 0.62916ZM17.8139 2.01249C18.9534 2.96866 19.669 4.10226 19.7196 4.90597C19.6827 4.95691 19.6439 5.00645 19.6033 5.05449C19.2353 5.49413 18.8265 5.76423 18.3974 5.89369C17.6279 5.79117 16.631 5.30881 15.7017 4.52942C14.8343 3.80194 14.2126 2.97063 13.9425 2.26089C13.978 1.78445 14.1738 1.30144 14.5695 0.830252C14.6299 0.757964 14.693 0.690933 14.7574 0.62916C15.5578 0.600245 16.7315 1.10429 17.8139 2.01249Z" fill="#FFA825"/>
<path d="M0 10.8281C-2.90981e-08 12.2089 0.271968 13.5761 0.800376 14.8518C1.32878 16.1275 2.10328 17.2866 3.07965 18.263C4.05602 19.2394 5.21514 20.0139 6.49083 20.5423C7.76652 21.0707 9.1338 21.3427 10.5146 21.3427C11.8954 21.3427 13.2627 21.0707 14.5384 20.5423C15.814 20.0139 16.9732 19.2394 17.9495 18.263C18.9259 17.2866 19.7004 16.1275 20.2288 14.8518C20.7572 13.5761 21.0292 12.2089 21.0292 10.8281C21.0292 9.44728 20.7572 8.08 20.2288 6.80431C19.7004 5.52862 18.9259 4.3695 17.9495 3.39313C16.9732 2.41676 15.814 1.64226 14.5384 1.11385C13.2627 0.585445 11.8954 0.313477 10.5146 0.313477C9.1338 0.313477 7.76652 0.585445 6.49083 1.11385C5.21514 1.64226 4.05602 2.41676 3.07965 3.39313C2.10328 4.3695 1.32878 5.52862 0.800376 6.80431C0.271968 8.08 -2.05755e-08 9.44728 0 10.8281Z" fill="#FFC42D"/>
<path d="M10.5148 0.313477C15.4488 0.313477 19.5889 3.71166 20.7225 8.29537L10.5148 11.4852L0.307129 8.29537C1.44073 3.71166 5.58086 0.313477 10.5148 0.313477Z" fill="#FFB468"/>
<path d="M15.1145 10.8281L19.8862 15.6004C18.1473 19.0085 14.6032 21.3427 10.5144 21.3427C6.42551 21.3427 2.88143 19.0085 1.14258 15.6004L5.91423 10.8281H15.1145Z" fill="#FFAF13"/>
<path d="M11.1719 10.8281L15.2752 20.2058C13.8005 20.9555 12.1691 21.3452 10.5147 21.3427C8.80149 21.3427 7.18355 20.9326 5.75488 20.2058L9.85755 10.8281H11.1719Z" fill="#FF9D2B"/>
<path d="M0.657227 10.1709C0.657227 12.7853 1.69577 15.2925 3.5444 17.1412C5.39303 18.9898 7.90031 20.0283 10.5147 20.0283C13.129 20.0283 15.6363 18.9898 17.4849 17.1412C19.3335 15.2925 20.3721 12.7853 20.3721 10.1709C20.3721 7.55656 19.3335 5.04928 17.4849 3.20065C15.6363 1.35202 13.129 0.313477 10.5147 0.313477C7.90031 0.313477 5.39303 1.35202 3.5444 3.20065C1.69577 5.04928 0.657227 7.55656 0.657227 10.1709Z" fill="#FFDF39"/>
<path d="M10.5144 0.149414C4.97978 0.149414 0.492676 4.63652 0.492676 10.1711C0.492676 15.7058 4.97978 20.1929 10.5144 20.1929C16.049 20.1929 20.5361 15.7058 20.5361 10.1711C20.5361 4.63652 16.049 0.149414 10.5144 0.149414ZM10.5144 0.477995C15.8676 0.477995 20.2075 4.81789 20.2075 10.1711C20.2075 15.5244 15.8676 19.8643 10.5144 19.8643C5.16116 19.8643 0.821257 15.5244 0.821257 10.1711C0.821257 4.81789 5.16116 0.477995 10.5144 0.477995Z" fill="#FFE686"/>
<path d="M2.62891 10.1711C2.62891 12.2626 3.45974 14.2684 4.93865 15.7473C6.41755 17.2262 8.42337 18.057 10.5149 18.057C12.6063 18.057 14.6122 17.2262 16.0911 15.7473C17.57 14.2684 18.4008 12.2626 18.4008 10.1711C18.4008 8.07962 17.57 6.0738 16.0911 4.5949C14.6122 3.11599 12.6063 2.28516 10.5149 2.28516C8.42337 2.28516 6.41755 3.11599 4.93865 4.5949C3.45974 6.0738 2.62891 8.07962 2.62891 10.1711Z" fill="#FA7800"/>
<path d="M10.5148 1.95654C5.97777 1.95654 2.30029 5.63402 2.30029 10.1711C2.30029 14.7081 5.97777 18.3856 10.5148 18.3856C15.0519 18.3856 18.7293 14.7081 18.7293 10.1711C18.7293 5.63402 15.0519 1.95654 10.5148 1.95654ZM10.5148 2.28512C14.8698 2.28512 18.4008 5.81606 18.4008 10.1711C18.4008 14.5261 14.8698 18.057 10.5148 18.057C6.15981 18.057 2.62887 14.5261 2.62887 10.1711C2.62887 5.81606 6.15981 2.28512 10.5148 2.28512Z" fill="#FFD671"/>
<path d="M3.28564 10.8284C3.28564 11.7777 3.47262 12.7177 3.8359 13.5947C4.19918 14.4718 4.73165 15.2687 5.40291 15.9399C6.07416 16.6112 6.87106 17.1436 7.74809 17.5069C8.62513 17.8702 9.56513 18.0572 10.5144 18.0572C11.4637 18.0572 12.4037 17.8702 13.2808 17.5069C14.1578 17.1436 14.9547 16.6112 15.626 15.9399C16.2972 15.2687 16.8297 14.4718 17.193 13.5947C17.5562 12.7177 17.7432 11.7777 17.7432 10.8284C17.7432 8.9112 16.9816 7.07253 15.626 5.71687C14.2703 4.36121 12.4316 3.59961 10.5144 3.59961C8.59724 3.59961 6.75857 4.36121 5.40291 5.71687C4.04725 7.07253 3.28564 8.9112 3.28564 10.8284Z" fill="#FFEC8B"/>
<path d="M17.7136 10.1709C17.7334 10.3878 17.7432 10.6066 17.7432 10.8281C17.7432 14.8203 14.5067 18.0568 10.5144 18.0568C6.52217 18.0568 3.28564 14.8203 3.28564 10.8281C3.28564 10.6066 3.2955 10.3878 3.31522 10.1709C3.64708 13.8556 6.74363 16.7425 10.5144 16.7425C14.2537 16.7425 17.3292 13.9036 17.7044 10.2642L17.7136 10.1709Z" fill="#FFB801"/>
<path d="M10.5144 3.59961C13.9888 3.59961 16.8902 6.05082 17.5855 9.31758C16.8028 8.16274 15.749 7.21737 14.5163 6.56423C13.2835 5.91109 11.9095 5.57009 10.5144 5.5711C7.57428 5.5711 4.98112 7.05628 3.44336 9.31758C4.13929 6.05082 7.04067 3.59961 10.5144 3.59961Z" fill="#FFB801"/>
<path d="M10.5148 10.8271C10.5148 10.8698 10.5062 10.9121 10.4897 10.9514C10.4731 10.9907 10.4488 11.0263 10.4182 11.0561C10.3876 11.0858 10.3514 11.1092 10.3117 11.1247C10.2719 11.1402 10.2295 11.1477 10.1868 11.1465L4.27171 10.9927C4.22814 10.9927 4.18635 10.9754 4.15554 10.9446C4.12473 10.9138 4.10742 10.872 4.10742 10.8285C4.10742 10.7849 4.12473 10.7431 4.15554 10.7123C4.18635 10.6815 4.22814 10.6642 4.27171 10.6642L10.1868 10.5084C10.2295 10.5073 10.2719 10.5147 10.3117 10.5302C10.3514 10.5458 10.3876 10.5691 10.4182 10.5989C10.4488 10.6287 10.4731 10.6643 10.4897 10.7036C10.5062 10.7429 10.5148 10.7851 10.5148 10.8278V10.8271Z" fill="#FF9B25"/>
<path d="M10.5146 6.88525C10.9527 6.88525 11.1717 7.10431 11.1717 7.54242V10.8282C11.1717 11.2663 10.9527 11.4854 10.5146 11.4854C10.0765 11.4854 9.85742 11.2663 9.85742 10.8282V7.54242C9.85742 7.10431 10.0765 6.88525 10.5146 6.88525Z" fill="#FF8A00"/>
<path d="M15.6366 13.7921C15.5494 13.9429 15.4058 14.0529 15.2375 14.0979C15.0691 14.1428 14.8898 14.1191 14.739 14.0319L10.1861 11.4033C10.0364 11.3155 9.92752 11.1721 9.88316 11.0043C9.8388 10.8366 9.86261 10.6581 9.94938 10.5078C10.0361 10.3575 10.1788 10.2476 10.3463 10.2022C10.5138 10.1567 10.6924 10.1793 10.8433 10.2651L15.3961 12.8937C15.5471 12.9809 15.6572 13.1244 15.7023 13.2928C15.7474 13.4611 15.7238 13.6405 15.6366 13.7914V13.7921Z" fill="#F87700"/>
<path d="M15.8489 8.50889C15.9153 8.72181 15.9692 8.93867 16.0092 9.15948C16.0249 9.24523 16.0059 9.3337 15.9564 9.40542C15.9068 9.47715 15.8308 9.52626 15.7451 9.54194C15.6593 9.55763 15.5708 9.53861 15.4991 9.48907C15.4274 9.43952 15.3783 9.36352 15.3626 9.27776C15.3273 9.08409 15.2803 8.89273 15.222 8.70472C15.2074 8.66312 15.2015 8.61903 15.2043 8.57506C15.2072 8.5311 15.2189 8.48816 15.2387 8.4488C15.2585 8.40944 15.286 8.37447 15.3196 8.34596C15.3532 8.31746 15.3922 8.296 15.4342 8.28286C15.4763 8.26972 15.5206 8.26518 15.5644 8.2695C15.6083 8.27381 15.6508 8.28691 15.6895 8.30799C15.7282 8.32908 15.7622 8.35773 15.7896 8.39224C15.817 8.42675 15.8371 8.46642 15.8489 8.50889ZM10.5147 4.58497C10.5579 4.58497 10.6006 4.59347 10.6404 4.60998C10.6803 4.62649 10.7165 4.6507 10.747 4.68121C10.7776 4.71172 10.8018 4.74794 10.8183 4.78781C10.8348 4.82767 10.8433 4.8704 10.8433 4.91355C10.8433 4.9567 10.8348 4.99943 10.8183 5.03929C10.8018 5.07916 10.7776 5.11538 10.747 5.14589C10.7165 5.17641 10.6803 5.20061 10.6404 5.21712C10.6006 5.23363 10.5579 5.24213 10.5147 5.24213C10.2063 5.24219 9.8985 5.27079 9.59534 5.32756C8.97423 5.44459 8.38171 5.68093 7.85057 6.0235C7.01739 6.56044 6.36432 7.33483 5.97569 8.24668C5.96002 8.28803 5.93616 8.32579 5.90555 8.35771C5.87494 8.38962 5.8382 8.41503 5.79754 8.4324C5.75687 8.44978 5.71312 8.45877 5.6689 8.45883C5.62468 8.45889 5.5809 8.45003 5.54018 8.43277C5.49947 8.41551 5.46266 8.39021 5.43195 8.35839C5.40125 8.32656 5.37729 8.28887 5.3615 8.24756C5.34571 8.20625 5.33842 8.16218 5.34007 8.11799C5.34172 8.0738 5.35227 8.0304 5.3711 7.99038C5.67089 7.28718 6.11113 6.65261 6.66484 6.12557C7.21855 5.59853 7.87406 5.19012 8.59119 4.92538C9.20718 4.69901 9.85845 4.58375 10.5147 4.58497ZM14.3775 6.13587C14.7543 6.49656 15.0789 6.90795 15.3422 7.35819C15.3862 7.43349 15.3985 7.52318 15.3764 7.60754C15.3543 7.6919 15.2996 7.76401 15.2243 7.80802C15.149 7.85203 15.0593 7.86433 14.9749 7.8422C14.8906 7.82008 14.8184 7.76536 14.7744 7.69006C14.5425 7.29225 14.256 6.92882 13.9234 6.61034C13.864 6.54935 13.8306 6.46767 13.8302 6.38253C13.8298 6.29738 13.8625 6.21542 13.9214 6.1539C13.9803 6.09239 14.0607 6.05613 14.1458 6.05277C14.2309 6.0494 14.314 6.0792 14.3775 6.13587ZM11.8093 4.74072L11.8678 4.74992C12.4039 4.88319 12.9172 5.09583 13.3904 5.38079C13.4651 5.42576 13.5189 5.49855 13.5399 5.58316C13.5609 5.66776 13.5475 5.75725 13.5025 5.83194C13.4575 5.90662 13.3847 5.96038 13.3001 5.98139C13.2155 6.00241 13.126 5.98895 13.0514 5.94398C12.634 5.69327 12.1818 5.50591 11.7094 5.38802C11.6343 5.36979 11.5679 5.32563 11.5221 5.26332C11.4763 5.201 11.454 5.12453 11.459 5.04735C11.464 4.97018 11.4961 4.89725 11.5496 4.8414C11.6031 4.78555 11.6746 4.75036 11.7515 4.74203L11.8093 4.74072Z" fill="#FFE3B6"/>
<path d="M3.94288 18.0571C4.19786 18.2852 4.49884 18.5152 4.84714 18.7471C5.19543 18.9791 5.55096 19.1874 5.91437 19.3715L3.51836 21.7675C3.44469 21.8412 3.3572 21.8997 3.2609 21.9396C3.1646 21.9796 3.06138 22.0001 2.95714 22.0001C2.91961 22.0002 2.88261 21.9913 2.8492 21.9742C2.81578 21.9572 2.7869 21.9324 2.76494 21.9019C2.74298 21.8715 2.72858 21.8363 2.72292 21.7992C2.71726 21.7621 2.72051 21.7242 2.73239 21.6886L3.94288 18.0571ZM17.0861 18.0571L18.2966 21.6886C18.3085 21.7242 18.3117 21.7621 18.3061 21.7992C18.3004 21.8363 18.286 21.8715 18.2641 21.9019C18.2421 21.9324 18.2132 21.9572 18.1798 21.9742C18.1464 21.9913 18.1094 22.0002 18.0719 22.0001C17.8616 22.0001 17.6598 21.9166 17.5107 21.7675L15.1146 19.3715C15.8186 19.0079 16.4798 18.5671 17.0861 18.0571Z" fill="#F87700"/>
<path d="M4.8472 18.7469C5.1955 18.9789 5.55102 19.1872 5.91443 19.3712L3.51842 21.7672C3.43759 21.8481 3.34099 21.9098 3.23584 21.9493L4.70131 18.6483L4.8472 18.7469ZM16.3239 18.6411L17.794 21.9493C17.7159 21.9201 17.643 21.8789 17.5777 21.827L17.5107 21.7679L15.1147 19.3712C15.4688 19.1884 15.8124 18.9859 16.1438 18.7647L16.3239 18.6411Z" fill="#F34F08"/>
<path d="M10.5146 10.4995C10.4715 10.4995 10.4287 10.508 10.3889 10.5245C10.349 10.541 10.3128 10.5652 10.2823 10.5958C10.2518 10.6263 10.2276 10.6625 10.211 10.7023C10.1945 10.7422 10.186 10.7849 10.186 10.8281C10.186 10.8712 10.1945 10.914 10.211 10.9538C10.2276 10.9937 10.2518 11.0299 10.2823 11.0604C10.3128 11.0909 10.349 11.1151 10.3889 11.1317C10.4287 11.1482 10.4715 11.1567 10.5146 11.1567C10.6018 11.1567 10.6853 11.1221 10.747 11.0604C10.8086 10.9988 10.8432 10.9152 10.8432 10.8281C10.8432 10.7409 10.8086 10.6574 10.747 10.5958C10.6853 10.5341 10.6018 10.4995 10.5146 10.4995Z" fill="#FFC32A"/>
</g>
<defs>
<clipPath id="clip0_1_6503">
<rect width="22" height="22" fill="white"/>
</clipPath>
</defs>
</svg>
