<svg width="34" height="34" viewBox="0 0 34 34" fill="none" xmlns="http://www.w3.org/2000/svg">
<rect width="34" height="34" rx="8" fill="#3C5A9B"/>
<path fill-rule="evenodd" clip-rule="evenodd" d="M19.3491 9.2617L19.3419 9.26176H19.3346C18.7412 9.26176 18.2449 9.75625 18.2449 10.3514V28.7794H14.9333V10.3514C14.9333 7.92271 16.9155 5.95351 19.3283 5.95011L19.3373 5.95005L19.3758 5.94995C19.4079 5.94993 19.453 5.95005 19.5079 5.95058C19.6171 5.95162 19.7689 5.95429 19.9389 5.96092C20.2359 5.97251 20.7377 6.00032 21.1455 6.09499L21.1626 6.09895L21.1795 6.10327C21.5255 6.19133 22.1565 6.426 22.5918 6.59107C22.8337 6.6828 23.0597 6.77039 23.2249 6.8349C23.3077 6.86721 23.3755 6.89388 23.4229 6.91255L23.4979 6.94219L22.2768 10.0205L22.2087 9.9936C22.1641 9.97602 22.0995 9.95062 22.0203 9.91971C21.8617 9.85778 21.6463 9.77431 21.4175 9.68754C21.1875 9.60032 20.9501 9.51208 20.7459 9.43969C20.6437 9.40349 20.5551 9.37311 20.483 9.34962C20.4472 9.33795 20.4183 9.3289 20.396 9.32219C20.3905 9.32053 20.3857 9.31912 20.3816 9.31793" fill="white"/>
<path fill-rule="evenodd" clip-rule="evenodd" d="M21.8958 13.8638H11.0498V17.1703H21.4283L21.8958 13.8638Z" fill="white"/>
</svg>
