<svg width="24" height="24" viewBox="0 0 24 24" fill="none" xmlns="http://www.w3.org/2000/svg">
<path d="M2 6.13737C2.48828 6.13737 2.88476 5.75302 2.88476 5.27897C2.88446 4.80537 2.48809 4.42155 2 4.42155L2 2.71549C2.00044 1.76799 2.79201 0.999727 3.76855 0.999672L17.918 0.999671C18.8946 0.999671 19.6861 1.76795 19.6865 2.71549L19.6865 4.42155C19.1986 4.42175 18.803 4.80549 18.8027 5.27897C18.8027 5.75289 19.1984 6.13716 19.6865 6.13737L19.6865 14.1296C19.3043 14.0455 18.9074 14.0006 18.5 14.0006C16.8708 14.0006 15.4075 14.7091 14.4004 15.8346L5.81152 15.8346C5.41801 15.8348 5.09863 16.154 5.09863 16.5475C5.09887 16.9409 5.41816 17.2593 5.81152 17.2594L13.4766 17.2594C13.1707 17.944 13 18.7025 13 19.5006C13.0001 20.6852 13.3756 21.7817 14.0127 22.6794C13.8474 22.5817 13.7223 22.4594 13.6396 22.3112C13.4055 21.937 13.0882 21.7597 12.6895 21.778C12.2914 21.7975 11.9513 22.0406 11.6699 22.5075C11.5764 22.6573 11.4355 22.7698 11.248 22.8444C11.0605 22.9193 10.8613 22.9518 10.6504 22.9421C10.4397 22.9327 10.2402 22.8822 10.0527 22.7887C9.86482 22.6955 9.72441 22.554 9.63086 22.3669C9.53675 22.1614 9.38444 22.0071 9.17383 21.904C8.96261 21.8014 8.75104 21.755 8.54004 21.7643C8.32948 21.7737 8.12494 21.839 7.92578 21.9606C7.72644 22.082 7.59104 22.2556 7.52051 22.4792C7.45044 22.6662 7.32744 22.8021 7.15137 22.8864C6.97569 22.9703 6.78806 23.0077 6.58887 22.9987C6.38982 22.989 6.19625 22.9332 6.00879 22.8307C5.82147 22.7275 5.68065 22.5918 5.58691 22.4235C5.49316 22.1996 5.35231 22.0399 5.16504 21.946C4.97726 21.8529 4.78404 21.815 4.58496 21.8337C4.38569 21.8526 4.20376 21.9135 4.04004 22.0163C3.87587 22.1187 3.75851 22.2558 3.68848 22.4235C3.61791 22.5919 3.4882 22.7132 3.30078 22.7878C3.11309 22.8623 2.92554 22.8957 2.73828 22.8864C2.55089 22.877 2.38088 22.8303 2.22852 22.7458C2.07604 22.662 2 22.5446 2 22.3952L2 6.13737ZM15.2656 5.27897C15.2656 5.75295 15.661 6.13725 16.1494 6.13737C16.6377 6.13737 17.0342 5.75302 17.0342 5.27897C17.0339 4.80537 16.6376 4.42155 16.1494 4.42155C15.6612 4.42166 15.2659 4.80544 15.2656 5.27897ZM5.09863 13.2214C5.09868 13.6149 5.41804 13.9341 5.81152 13.9342L15.9561 13.9342C16.3497 13.9342 16.6689 13.615 16.6689 13.2214C16.6689 12.8277 16.3497 12.5085 15.9561 12.5085L5.81152 12.5085C5.41801 12.5086 5.09863 12.8278 5.09863 13.2214ZM5.09863 9.8942C5.09863 10.2878 5.41801 10.6069 5.81152 10.6071L15.9561 10.6071C16.3497 10.6071 16.6689 10.2879 16.6689 9.8942C16.6688 9.50067 16.3496 9.18131 15.9561 9.18131L5.81152 9.18131C5.41811 9.1815 5.09879 9.50078 5.09863 9.8942ZM11.7275 5.27897C11.7275 5.75302 12.1239 6.13736 12.6123 6.13737C13.1007 6.13727 13.4961 5.75296 13.4961 5.27897C13.4958 4.80543 13.1005 4.42165 12.6123 4.42155C12.1241 4.42155 11.7278 4.80537 11.7275 5.27897ZM8.19043 5.27897C8.19043 5.75302 8.58672 6.13737 9.07519 6.13737C9.56334 6.13716 9.95898 5.75289 9.95898 5.27897C9.95868 4.8055 9.56315 4.42176 9.07519 4.42155C8.5869 4.42155 8.19074 4.80537 8.19043 5.27897ZM4.65332 5.27897C4.65332 5.75295 5.04888 6.13725 5.53711 6.13737C6.02559 6.13737 6.42187 5.75302 6.42187 5.27897C6.42157 4.80537 6.0254 4.42155 5.53711 4.42155C5.04906 4.42166 4.65363 4.80544 4.65332 5.27897Z" fill="#808994"/>
<path d="M18.5825 15.207C16.1847 15.207 14.3057 17.0855 14.3057 19.4839C14.3057 21.8026 16.2639 23.7607 18.5825 23.7607C20.9803 23.7607 22.8594 21.8823 22.8594 19.4839C22.8594 17.1253 20.9407 15.207 18.5825 15.207ZM21.0595 19.9181H18.4736C18.2142 19.9181 18.1192 19.8902 18.1192 19.6313V17.0277C18.1192 16.7668 18.331 16.5536 18.5904 16.5536C18.8498 16.5536 19.0617 16.7668 19.0617 17.0277V18.9719H21.0615C21.3209 18.9719 21.5327 19.1851 21.5327 19.446C21.5308 19.705 21.3189 19.9181 21.0595 19.9181Z" fill="#808994"/>
</svg>
