<svg width="15" height="12" viewBox="0 0 15 12" fill="none" xmlns="http://www.w3.org/2000/svg">
<path d="M12.2603 8.20364H11.0423V7.00671C11.0423 6.82357 10.9682 6.64793 10.8364 6.51843C10.7047 6.38893 10.5259 6.31617 10.3396 6.31617C10.1532 6.31617 9.97446 6.38893 9.84268 6.51843C9.71089 6.64793 9.63686 6.82357 9.63686 7.00671V8.20364H8.41884C8.23247 8.20364 8.05373 8.27639 7.92195 8.40589C7.79017 8.5354 7.71613 8.71104 7.71613 8.89418C7.71613 9.07732 7.79017 9.25296 7.92195 9.38246C8.05373 9.51196 8.23247 9.58471 8.41884 9.58471H9.63686V10.7816C9.63686 10.9648 9.71089 11.1404 9.84268 11.2699C9.97446 11.3994 10.1532 11.4722 10.3396 11.4722C10.5259 11.4722 10.7047 11.3994 10.8364 11.2699C10.9682 11.1404 11.0423 10.9648 11.0423 10.7816V9.58471H12.2603C12.4467 9.58471 12.6254 9.51196 12.7572 9.38246C12.889 9.25296 12.963 9.07732 12.963 8.89418C12.963 8.71104 12.889 8.5354 12.7572 8.40589C12.6254 8.27639 12.4467 8.20364 12.2603 8.20364Z" fill="#FF7336"/>
<path d="M12.1747 7.00685V7.09125H12.2606C12.4254 7.09125 12.5854 7.1135 12.7377 7.1534L12.9001 6.99381L11.7883 5.90123C12.0303 6.2066 12.1747 6.59023 12.1747 7.00685ZM8.50506 10.781V10.6966H8.41918C7.40728 10.6966 6.58434 9.88792 6.58434 8.89355C6.58434 7.89918 7.40728 7.09048 8.41918 7.09048H8.50506V7.00608C8.50506 6.01171 9.32801 5.20302 10.3399 5.20302C10.7639 5.20302 11.1535 5.34496 11.4642 5.58281L6.96458 1.16108C5.39052 -0.385724 2.83892 -0.385724 1.26487 1.16108L1.18054 1.24394C-0.393514 2.79074 -0.393514 5.29816 1.18054 6.84496L5.93863 11.5207C6.58902 12.1598 7.64386 12.1598 8.29425 11.5207L8.56987 11.2498C8.5277 11.1002 8.50506 10.9429 8.50506 10.781Z" fill="#FF4D00"/>
<path d="M8.50474 10.7808V10.6964H8.41886C7.40696 10.6964 6.58402 9.88771 6.58402 8.89334C6.58402 7.89896 7.40696 7.09027 8.41886 7.09027H8.50474V7.00587C8.50474 6.0115 9.32769 5.20281 10.3396 5.20281C11.3515 5.20281 12.1744 6.0115 12.1744 7.00587V7.09027H12.2603C12.4251 7.09027 12.5851 7.11252 12.7374 7.15242L13.0512 6.84398C14.6253 5.29718 14.6253 2.78977 13.0512 1.24296L12.9669 1.1601C11.3929 -0.3867 8.84126 -0.3867 7.2672 1.1601L1.33404 6.99053L5.94065 11.5174C6.59105 12.1565 7.64588 12.1565 8.29628 11.5174L8.56877 11.2496C8.52739 11.1 8.50474 10.9427 8.50474 10.7808Z" fill="#FF7C44"/>
</svg>
