<svg width="40" height="40" viewBox="0 0 40 40" fill="none" xmlns="http://www.w3.org/2000/svg">
<rect width="40" height="40" rx="20" fill="#1E2024"/>
<path d="M27.7985 24.6419H27.3288C27.0784 24.5909 26.8538 24.4536 26.6942 24.2541C26.5345 24.0545 26.4499 23.8052 26.4551 23.5497L26.2912 18.0886C26.3098 16.5034 25.7334 14.969 24.6759 13.788C23.6183 12.6071 22.1564 11.8656 20.5788 11.7099V11.4806C20.5788 11.3531 20.5282 11.2309 20.4381 11.1408C20.348 11.0506 20.2257 11 20.0983 11C19.9708 11 19.8486 11.0506 19.7584 11.1408C19.6683 11.2309 19.6177 11.3531 19.6177 11.4806V11.7099C18.0401 11.8656 16.5782 12.6071 15.5206 13.788C14.4631 14.969 13.8867 16.5034 13.9053 18.0886L13.6213 23.5497C13.6434 23.8091 13.565 24.067 13.4024 24.2702C13.2398 24.4734 13.0054 24.6065 12.7475 24.6419H12.3981C12.2353 24.5945 12.0637 24.5855 11.8968 24.6159C11.73 24.6462 11.5725 24.715 11.4369 24.8167C11.3012 24.9184 11.1911 25.0504 11.1153 25.202C11.0395 25.3537 11 25.5209 11 25.6905C11 25.86 11.0395 26.0273 11.1153 26.179C11.1911 26.3306 11.3012 26.4625 11.4369 26.5643C11.5725 26.666 11.73 26.7348 11.8968 26.7651C12.0637 26.7954 12.2353 26.7865 12.3981 26.739H27.7985C27.9613 26.7865 28.1329 26.7954 28.2997 26.7651C28.4665 26.7348 28.624 26.666 28.7596 26.5643C28.8953 26.4625 29.0054 26.3306 29.0812 26.179C29.1571 26.0273 29.1965 25.86 29.1965 25.6905C29.1965 25.5209 29.1571 25.3537 29.0812 25.202C29.0054 25.0504 28.8953 24.9184 28.7596 24.8167C28.624 24.715 28.4665 24.6462 28.2997 24.6159C28.1329 24.5855 27.9613 24.5945 27.7985 24.6419Z" fill="#85D420"/>
<path d="M18.2634 27.1651C18.2634 27.6517 18.4567 28.1185 18.8008 28.4626C19.1449 28.8067 19.6116 29 20.0983 29C20.585 29 21.0517 28.8067 21.3958 28.4626C21.7399 28.1185 21.9332 27.6517 21.9332 27.1651H18.2634Z" fill="#85D420"/>
</svg>
