<svg width="22" height="22" viewBox="0 0 22 22" fill="none" xmlns="http://www.w3.org/2000/svg">
<path fill-rule="evenodd" clip-rule="evenodd" d="M11 21C16.5228 21 21 16.5228 21 11C21 5.47722 16.5228 1 11 1C5.47722 1 1 5.47722 1 11C1 16.5228 5.47722 21 11 21ZM13.1922 15.4922L13.35 14.9211C13.2214 14.969 13.0896 15.008 12.9556 15.0378C12.7739 15.0822 12.6111 15.1044 12.4672 15.1044C12.1617 15.1044 11.9467 15.06 11.8217 14.9711C11.6972 14.8822 11.6356 14.715 11.6356 14.4694C11.6356 14.3722 11.6544 14.2278 11.6933 14.0378C11.7264 13.8659 11.7696 13.6962 11.8228 13.5294L12.4133 11.6828C12.4738 11.5013 12.5137 11.3137 12.5322 11.1233C12.5539 10.9206 12.5639 10.7789 12.5639 10.6978C12.5639 10.3089 12.4094 9.99222 12.1006 9.74889C11.7917 9.505 11.3511 9.38333 10.7811 9.38333C10.4399 9.38704 10.1008 9.43751 9.77333 9.53333C9.41778 9.63222 9.04667 9.75167 8.65833 9.89167L8.5 10.4633C8.61556 10.425 8.75333 10.3844 8.915 10.3428C9.07556 10.3006 9.23278 10.2789 9.38611 10.2789C9.69889 10.2789 9.91 10.3261 10.02 10.4189C10.1311 10.5122 10.1867 10.6778 10.1867 10.9144C10.1867 11.045 10.1683 11.1906 10.1322 11.3489C10.0961 11.5078 10.0517 11.6767 9.99889 11.8539L9.40611 13.7078C9.35333 13.9022 9.31445 14.0772 9.29056 14.2317C9.26704 14.3818 9.25516 14.5336 9.255 14.6856C9.255 15.0667 9.41389 15.3811 9.73278 15.6289C10.0511 15.8756 10.4978 16 11.0717 16C11.4461 16 11.7744 15.9567 12.0567 15.87C12.3389 15.7833 12.7178 15.6572 13.1922 15.4922ZM13.0867 7.99056C13.3628 7.76444 13.5 7.48944 13.5 7.16778C13.5 6.84667 13.3628 6.57167 13.0872 6.34278C12.8122 6.11444 12.4806 6 12.0928 6C11.7039 6 11.3706 6.11444 11.0933 6.34278C10.8156 6.57167 10.6767 6.84667 10.6767 7.16778C10.6767 7.49 10.8156 7.76444 11.0933 7.99C11.3711 8.21722 11.7039 8.33056 12.0928 8.33056C12.4806 8.33056 12.8122 8.21722 13.0872 7.99L13.0867 7.99056Z" fill="white"/>
</svg>
