<svg width="20" height="14" viewBox="0 0 20 14" fill="none" xmlns="http://www.w3.org/2000/svg">
<g opacity="0.8">
<path fill-rule="evenodd" clip-rule="evenodd" d="M3.58937 10.3365L5.1191 8.81199C4.00929 8.15005 3.10945 7.40788 2.52955 6.87632C3.81933 5.69285 6.70882 3.42621 9.99824 3.42621C10.1582 3.42621 10.3082 3.43624 10.4682 3.44627L12.2978 1.61089C11.558 1.43036 10.7881 1.33007 9.99824 1.33007C4.64918 1.33007 0.439922 5.9837 0.269952 6.17426C-0.0899841 6.57544 -0.0899841 7.1772 0.269952 7.57837C0.359937 7.6887 1.61971 9.07275 3.58937 10.3365Z" fill="#808994"/>
<path fill-rule="evenodd" clip-rule="evenodd" d="M14.881 4.94268C15.9908 5.60462 16.8906 6.35683 17.4605 6.87835C16.1808 8.06182 13.2813 10.3285 10.0018 10.3285C9.84188 10.3285 9.6819 10.3285 9.53193 10.3184L7.70225 12.1538C8.43212 12.3243 9.20199 12.4246 10.0018 12.4246C15.3509 12.4246 19.5502 7.781 19.7301 7.58041C20.0901 7.17924 20.0901 6.57747 19.7301 6.18633C19.6301 6.076 18.3804 4.68192 16.4107 3.41822L14.881 4.94268Z" fill="#808994"/>
<path fill-rule="evenodd" clip-rule="evenodd" d="M6.555 11.8121L8.2447 10.1272L13.9237 4.42045L15.4734 2.8659L16.5532 1.78272C16.9632 1.38155 16.9632 0.709579 16.5532 0.308404C16.1433 -0.102801 15.4834 -0.102801 15.0735 0.308404L11.7541 3.63816L6.07508 9.33485L4.51536 10.8894L3.44555 11.9726C3.03562 12.3838 3.03562 13.0457 3.44555 13.4569C3.64551 13.6575 3.91546 13.7678 4.18542 13.7678C4.44537 13.7678 4.71532 13.6575 4.92528 13.4569L6.555 11.8121Z" fill="#808994"/>
</g>
</svg>
