<svg width="28" height="28" viewBox="0 0 28 28" fill="none" xmlns="http://www.w3.org/2000/svg">
<path d="M0 13.8465C0 17.5188 1.475 21.0407 4.10051 23.6374C6.72601 26.2341 10.287 27.6929 14 27.6929C17.713 27.6929 21.274 26.2341 23.8995 23.6374C26.525 21.0407 28 17.5188 28 13.8465C28 10.1741 26.525 6.65225 23.8995 4.05553C21.274 1.45882 17.713 0 14 0C10.287 0 6.72601 1.45882 4.10051 4.05553C1.475 6.65225 0 10.1741 0 13.8465Z" fill="black"/>
<path d="M9.808 20.7968C9.8547 20.7782 9.90466 20.7689 9.955 20.7696C10.0049 20.7698 10.0543 20.7798 10.1003 20.7989C10.1463 20.8181 10.188 20.846 10.2231 20.881C10.2582 20.9161 10.286 20.9577 10.3048 21.0034C10.3237 21.0491 10.3333 21.098 10.333 21.1474C10.3327 21.1967 10.3226 21.2455 10.3033 21.291C10.284 21.3365 10.2558 21.3778 10.2203 21.4125C10.1848 21.4473 10.1428 21.4747 10.0966 21.4934C10.0504 21.512 10.0009 21.5215 9.951 21.5212C9.88828 21.5211 9.82654 21.5057 9.77128 21.4764C9.71602 21.4471 9.66894 21.4047 9.63421 21.353C9.59949 21.3014 9.5782 21.242 9.57223 21.1803C9.56626 21.1185 9.5758 21.0562 9.6 20.999C9.61954 20.9533 9.64802 20.9119 9.6838 20.8771C9.71958 20.8423 9.76196 20.8148 9.8085 20.7963L9.808 20.7968ZM13.432 21.4337H14.204V23.6704C14.203 23.7658 14.2025 23.8613 14.2065 23.9562C14.2995 23.9666 14.9475 23.9627 14.9855 23.9518L14.987 23.9468C14.9883 23.9433 14.9889 23.9397 14.989 23.9359V21.495L14.9895 21.4792C14.9894 21.4774 14.9894 21.4756 14.9895 21.4738L14.9915 21.4629C14.9924 21.4614 14.9936 21.46 14.995 21.4589L14.9975 21.4559L15.0025 21.4505H15.6275L15.709 21.1968V21.1963C15.755 21.0554 15.8005 20.9149 15.844 20.772H13.425C13.414 20.8793 13.4185 21.3902 13.432 21.4337ZM20.5815 22.6566C20.8827 23.0879 21.184 23.5192 21.4855 23.9503L21.5 23.9701V23.9809L21.3085 23.9805C21.121 23.98 20.9335 23.9795 20.746 23.9814C20.6975 23.9819 20.671 23.9651 20.645 23.927C20.412 23.5971 20.1787 23.2675 19.945 22.938L19.934 22.9232L19.9025 22.9514L19.8535 22.9959C19.8405 23.0068 19.8285 23.0181 19.816 23.03C19.7885 23.0547 19.761 23.0804 19.732 23.1042C19.7201 23.1136 19.7107 23.1257 19.7046 23.1395C19.6986 23.1533 19.6959 23.1683 19.697 23.1833C19.698 23.3638 19.698 23.5443 19.698 23.7248V23.9572H18.94C18.9285 23.9186 18.926 20.8358 18.938 20.7725H19.697C19.698 20.8942 19.698 21.0153 19.698 21.1365V22.2447C19.722 22.2358 19.737 22.22 19.751 22.2051L19.7625 22.1933C19.9825 21.9787 20.2025 21.7626 20.4205 21.5455C20.4338 21.5313 20.4501 21.5201 20.4683 21.5129C20.4864 21.5056 20.506 21.5024 20.5255 21.5034C20.724 21.5044 20.9225 21.5044 21.1205 21.5044H21.392C21.336 21.5618 21.282 21.6132 21.229 21.6641L21.149 21.7408C21.084 21.8051 21.0185 21.8679 20.953 21.9312L20.9075 21.9752L20.8265 22.0523C20.7732 22.1026 20.7205 22.1536 20.6685 22.2051C20.6145 22.259 20.562 22.3139 20.5085 22.3708C20.484 22.3955 20.46 22.4212 20.4355 22.447L20.4625 22.4865L20.5815 22.6566ZM13.0985 21.5059L13.124 21.5074L12.161 22.4371L13.2295 23.9681L13.2225 23.98H12.995C12.82 23.98 12.6445 23.98 12.469 23.9809C12.4522 23.9822 12.4354 23.9788 12.4205 23.9712C12.4055 23.9635 12.3931 23.9518 12.3845 23.9374L11.713 22.9855L11.685 22.9469L11.669 22.9257L11.6585 22.9331C11.6501 22.9389 11.6421 22.9451 11.6345 22.9519L11.5765 23.0043C11.5398 23.0383 11.5025 23.0716 11.4645 23.1042C11.4527 23.1136 11.4434 23.1258 11.4373 23.1395C11.4312 23.1533 11.4285 23.1683 11.4295 23.1833C11.431 23.3613 11.431 23.5393 11.4305 23.7174V23.9572H10.6725C10.6605 23.9196 10.6575 20.8378 10.6695 20.7725H11.4285C11.4315 20.8388 11.431 20.9046 11.4305 20.9703V22.2531L11.452 22.2338L11.4805 22.2076C11.7075 21.9866 11.933 21.764 12.158 21.541C12.1696 21.5287 12.1837 21.519 12.1994 21.5126C12.2151 21.5062 12.232 21.5032 12.249 21.5039C12.461 21.5049 12.6735 21.5049 12.886 21.5049H13.063L13.098 21.5064L13.0985 21.5059ZM7.781 21.4327H7V20.773H9.422L9.2035 21.452H8.5675C8.5645 21.5054 8.565 21.5573 8.565 21.6088V23.9508C8.524 23.9631 7.8785 23.9671 7.7825 23.9557C7.78053 23.8941 7.78003 23.8324 7.781 23.7708V23.6788V21.4327ZM9.5775 23.9572H10.3315V21.7937H9.574C9.563 21.8807 9.567 23.9186 9.5775 23.9572Z" fill="white"/>
<path d="M15.6789 22.554C15.6789 21.8706 16.2214 21.3103 16.9119 21.2569C16.8758 21.2538 16.8396 21.2522 16.8034 21.252C16.0624 21.252 15.4619 21.8355 15.4619 22.554C15.4619 23.2725 16.0624 23.8556 16.8034 23.8556C16.8399 23.8556 16.8759 23.8541 16.9119 23.8511C16.2219 23.7977 15.6789 23.2374 15.6789 22.554Z" fill="#00F7EC"/>
<path d="M17.0217 21.2529C16.2812 21.2529 15.6807 21.836 15.6807 22.5545C15.6807 23.273 16.2807 23.8561 17.0217 23.8561C17.7627 23.8561 18.3632 23.2735 18.3632 22.5545C18.3632 21.8355 17.7627 21.2529 17.0217 21.2529ZM17.0157 23.2142C16.8428 23.2158 16.6764 23.1494 16.553 23.0297C16.4297 22.91 16.3594 22.7467 16.3577 22.5758C16.3577 22.2232 16.6527 21.9373 17.0157 21.9373C17.3792 21.9373 17.6737 22.2232 17.6737 22.5753C17.6737 22.9284 17.3787 23.2142 17.0157 23.2142Z" fill="white"/>
<path d="M18.3639 22.554C18.3639 21.8706 17.8209 21.3103 17.1309 21.2569C17.1664 21.2539 17.2029 21.252 17.2389 21.252C17.9799 21.252 18.5804 21.8355 18.5804 22.554C18.5804 23.2725 17.9799 23.8556 17.2389 23.8556C17.2029 23.8556 17.1664 23.8541 17.1309 23.8511C17.8209 23.7977 18.3639 23.2374 18.3639 22.554Z" fill="#FF004A"/>
<path d="M12.6425 11.8485C12.6435 11.8238 12.6465 11.7897 12.6465 11.7551C12.6525 11.3263 12.6595 10.8981 12.663 10.4693C12.666 10.1004 12.6655 9.73152 12.6665 9.36311C12.6665 9.31266 12.6735 9.26173 12.5995 9.25678C12.3235 9.23898 12.047 9.19744 11.772 9.20733C11.2753 9.22475 10.7855 9.3268 10.324 9.50899C9.93819 9.65789 9.57522 9.85911 9.24547 10.1069C8.7953 10.4437 8.41431 10.8625 8.12297 11.3407C7.89041 11.7295 7.71499 12.1491 7.60197 12.5869C7.48897 13.0112 7.49697 13.4414 7.50297 13.8736C7.50947 14.3538 7.62697 14.8107 7.80597 15.2523C8.02126 15.7796 8.33794 16.2606 8.73847 16.6686C9.16859 17.1127 9.68927 17.4613 10.266 17.6913C10.6828 17.8619 11.1249 17.9645 11.575 17.9949C12.085 18.0275 12.5915 17.9909 13.085 17.8614C13.5094 17.7492 13.9143 17.5744 14.286 17.3426C14.6294 17.1337 14.9412 16.8776 15.212 16.5821C15.5353 16.2284 15.7998 15.8261 15.9955 15.3903C16.2355 14.8503 16.3795 14.2875 16.384 13.7C16.396 12.0805 16.3915 10.4609 16.394 8.8409V8.68463C17.4415 9.41305 18.582 9.75773 19.826 9.80125V7.44537L19.754 7.43647C19.142 7.35735 18.5535 7.20256 18.0105 6.90239C17.5146 6.63341 17.1016 6.2366 16.8155 5.75413C16.5087 5.2344 16.3332 4.64915 16.304 4.04805C16.299 3.97238 16.271 3.95557 16.201 3.95607C15.508 3.96101 14.816 3.96249 14.123 3.96596C13.973 3.96694 13.972 3.96843 13.972 4.11728C13.9695 5.4945 13.969 6.87173 13.964 8.24896C13.957 10.143 13.9485 12.036 13.938 13.9295C13.937 14.1817 13.8915 14.419 13.7675 14.646C13.4795 15.1747 13.0535 15.5376 12.4665 15.6771C11.849 15.823 11.2605 15.7414 10.7475 15.3369C10.3615 15.0317 10.0795 14.6515 9.99747 14.1658C9.91997 13.7079 9.93447 13.2495 10.177 12.8257C10.344 12.5279 10.5797 12.2732 10.865 12.0825C11.2455 11.8293 11.669 11.7412 12.1205 11.7788C12.293 11.7937 12.4625 11.8238 12.6425 11.848V11.8485Z" fill="#00F7EC"/>
<path d="M12.6431 11.8485C12.4636 11.8238 12.2946 11.7936 12.1226 11.7793C11.6711 11.7417 11.2476 11.8302 10.8676 12.0829C10.5776 12.2758 10.3511 12.5255 10.1786 12.8267C9.93658 13.25 9.92208 13.7084 9.99958 14.1668C10.0816 14.6524 10.3636 15.0327 10.7496 15.3373C11.2626 15.7418 11.8516 15.8234 12.4681 15.6776C13.0556 15.5386 13.4816 15.1751 13.7696 14.6465C13.8931 14.419 13.9391 14.1821 13.9401 13.9304L13.9661 8.24943C13.9711 6.8727 13.9711 5.49498 13.9736 4.11775C13.9736 3.96939 13.9746 3.96742 14.1251 3.96692C14.8176 3.96346 15.5101 3.96198 16.2026 3.95703C16.2726 3.95703 16.3016 3.97286 16.3056 4.04901C16.3352 4.65012 16.5108 5.23533 16.8176 5.75509C17.1076 6.24417 17.5111 6.62544 18.0126 6.90286C18.5551 7.20304 19.1436 7.35782 19.7561 7.43694L19.8281 7.44584V9.80221C18.5836 9.7582 17.4431 9.41402 16.3961 8.6856V8.84186C16.3936 10.4614 16.3981 12.0809 16.3861 13.701C16.3816 14.2885 16.2376 14.8512 15.9976 15.3912C15.8022 15.8273 15.5375 16.2297 15.2136 16.583C14.9427 16.878 14.6313 17.1341 14.2886 17.3436C13.9168 17.5752 13.5117 17.7499 13.0871 17.8618C12.5936 17.9919 12.0871 18.0285 11.5771 17.9959C11.1268 17.9655 10.6846 17.8629 10.2676 17.6922C9.69102 17.4621 9.17051 17.1133 8.74058 16.6691C8.34009 16.2612 8.02341 15.7804 7.80808 15.2533C7.62908 14.8112 7.51108 14.3547 7.50458 13.8741C7.49908 13.4419 7.49158 13.0111 7.60408 12.5873C7.71708 12.1496 7.8925 11.73 8.12508 11.3411C8.41602 10.863 8.79689 10.4443 9.24708 10.1078C9.57642 9.8596 9.93906 9.65789 10.3246 9.50847C10.7861 9.32643 11.276 9.22455 11.7726 9.20731C12.0476 9.19791 12.3241 9.23995 12.5996 9.25726C12.6746 9.2622 12.6676 9.31363 12.6671 9.36358C12.6656 9.73249 12.6671 10.1014 12.6636 10.4703C12.6596 10.8986 12.6531 11.3273 12.6471 11.756C12.6481 11.7907 12.6446 11.8238 12.6431 11.848V11.8485Z" fill="#00F7EC"/>
<path d="M13.316 12.7221C13.3175 12.6978 13.32 12.6637 13.3205 12.6291C13.3265 12.2009 13.334 11.7721 13.337 11.3434C13.34 10.9745 13.3395 10.6055 13.3405 10.2371C13.3405 10.1872 13.3475 10.1358 13.2735 10.1308C12.9975 10.113 12.721 10.0715 12.446 10.0809C11.9492 10.0983 11.4592 10.2004 10.9975 10.3825C10.6117 10.5318 10.2487 10.7333 9.91902 10.9814C9.46899 11.3182 9.08817 11.737 8.79702 12.2152C8.56446 12.604 8.38904 13.0236 8.27602 13.4614C8.16302 13.8857 8.17102 14.3159 8.17652 14.7481C8.18352 15.2283 8.30102 15.6852 8.48002 16.1268C8.69533 16.6541 9.01201 17.1351 9.41252 17.5431C9.84248 17.9872 10.363 18.3358 10.9395 18.5658C11.3565 18.7366 11.7987 18.8393 12.249 18.8699C12.759 18.902 13.2655 18.865 13.759 18.7354C14.1835 18.6234 14.5884 18.4487 14.96 18.2171C15.3033 18.0081 15.6149 17.752 15.8855 17.4566C16.2095 17.1032 16.4743 16.7008 16.67 16.2648C16.91 15.7248 17.0535 15.162 17.058 14.5745C17.07 12.955 17.0655 11.3354 17.068 9.71541V9.55915C18.1155 10.2876 19.256 10.6322 20.5 10.6758V8.31939L20.428 8.31049C19.816 8.23137 19.2275 8.07659 18.6845 7.77642C18.1886 7.50745 17.7757 7.11064 17.4895 6.62815C17.1826 6.10846 17.007 5.52321 16.9775 4.92207C16.9735 4.84641 16.945 4.82959 16.875 4.83009C16.1825 4.83503 15.49 4.83701 14.797 4.83998C14.647 4.84097 14.646 4.84295 14.646 4.9913C14.643 6.36853 14.643 7.74576 14.638 9.12298C14.631 11.017 14.6225 12.91 14.612 14.8035C14.611 15.0557 14.5655 15.2931 14.4415 15.52C14.1535 16.0482 13.7275 16.4117 13.14 16.5506C12.523 16.6965 11.935 16.6154 11.4215 16.2104C11.0355 15.9063 10.7535 15.5255 10.6715 15.0399C10.594 14.5819 10.6085 14.1235 10.851 13.6997C11.0179 13.4018 11.2539 13.1473 11.5395 12.957C11.9195 12.7038 12.343 12.6158 12.7945 12.6528C12.967 12.6677 13.1365 12.6973 13.316 12.7221Z" fill="#FF004A"/>
<path d="M13.315 12.7216C13.1355 12.6968 12.9665 12.6672 12.7945 12.6523C12.343 12.6152 11.9195 12.7033 11.5395 12.9565C11.2495 13.1493 11.023 13.3991 10.851 13.6992C10.6085 14.123 10.594 14.5814 10.671 15.0394C10.7535 15.525 11.0355 15.9058 11.421 16.2104C11.9345 16.6149 12.5235 16.6965 13.14 16.5506C13.7275 16.4112 14.1535 16.0482 14.4415 15.5195C14.565 15.2921 14.611 15.0552 14.612 14.803L14.638 9.12248C14.643 7.74525 14.643 6.36802 14.6455 4.99129C14.6455 4.84244 14.6465 4.84046 14.797 4.83997C15.4895 4.83651 16.182 4.83453 16.875 4.83008C16.945 4.83008 16.9735 4.8459 16.9775 4.92206C17.0072 5.52317 17.1828 6.10837 17.4895 6.62814C17.7757 7.11046 18.1887 7.5071 18.6845 7.77591C19.227 8.07608 19.8155 8.23087 20.428 8.30999L20.5 8.31889V10.6758C19.2555 10.6312 18.115 10.2876 17.068 9.55914V9.7154C17.0655 11.3354 17.07 12.9545 17.058 14.5745C17.0535 15.162 16.9095 15.7248 16.67 16.2648C16.4745 16.7009 16.2096 17.1032 15.8855 17.4566C15.6147 17.7516 15.3033 18.0076 14.9605 18.2171C14.5887 18.4488 14.1836 18.6235 13.759 18.7354C13.2655 18.8654 12.759 18.902 12.249 18.8694C11.7988 18.839 11.3565 18.7364 10.9395 18.5658C10.363 18.3356 9.84245 17.9868 9.41252 17.5426C9.01204 17.1346 8.69536 16.6536 8.48002 16.1263C8.30102 15.6852 8.18302 15.2283 8.17652 14.7476C8.17102 14.3154 8.16302 13.8847 8.27552 13.4609C8.38853 13.0231 8.56396 12.6035 8.79652 12.2147C9.08757 11.7364 9.46861 11.3178 9.91902 10.9814C10.2484 10.7332 10.611 10.5315 10.9965 10.382C11.4582 10.1999 11.9483 10.0979 12.445 10.0804C12.72 10.071 12.9965 10.113 13.2725 10.1308C13.347 10.1357 13.3405 10.1867 13.3395 10.2371C13.338 10.6055 13.3395 10.9744 13.336 11.3434C13.3325 11.7721 13.3255 12.2008 13.3195 12.6291C13.3195 12.6632 13.3165 12.6973 13.315 12.7216Z" fill="#FF004A"/>
<path d="M19.82 8.18752C19.4208 8.09897 19.0363 7.95496 18.678 7.75977C18.1273 7.46126 17.6801 7.00587 17.3945 6.45276C17.1642 6.24516 16.9672 6.00423 16.81 5.73818C16.6388 5.44985 16.5082 5.13972 16.422 4.81641C15.8785 4.81937 15.3345 4.82135 14.7905 4.82382C14.6405 4.82481 14.64 4.8263 14.6395 4.97515C14.637 6.35188 14.637 7.7296 14.632 9.10633C14.625 11.0003 14.6165 12.8938 14.606 14.7873C14.6045 15.0395 14.559 15.2764 14.435 15.5034C14.147 16.032 13.7215 16.3955 13.134 16.5345C12.517 16.6803 11.9285 16.5988 11.415 16.1942C11.1125 15.9554 10.8735 15.67 10.745 15.3234L10.741 15.3204C10.355 15.0163 10.073 14.6355 9.99098 14.1499C9.91398 13.692 9.92798 13.2336 10.171 12.8098C10.3378 12.5119 10.5736 12.2574 10.859 12.067C11.2395 11.8138 11.6625 11.7258 12.114 11.7634C12.2855 11.7772 12.4555 11.8079 12.6345 11.8321C12.636 11.8079 12.639 11.7738 12.6395 11.7391C12.645 11.3104 12.6525 10.8821 12.6555 10.4534C12.657 10.3248 12.6575 10.1958 12.6575 10.0667C12.5842 10.0631 12.5108 10.0624 12.4375 10.0647C11.9411 10.082 11.4514 10.1839 10.99 10.3659C10.6042 10.5149 10.2412 10.7163 9.91148 10.9642C9.46131 11.3011 9.08032 11.7199 8.78898 12.1981C8.55641 12.5869 8.38099 13.0065 8.26798 13.4442C8.15498 13.8685 8.16298 14.2988 8.16898 14.731C8.17548 15.2116 8.29298 15.6681 8.47198 16.1097C8.55048 16.3025 8.64298 16.4905 8.74898 16.67C9.17565 17.106 9.69006 17.4487 10.259 17.6758C10.6759 17.8467 11.1182 17.9494 11.5685 17.9799C12.0785 18.0121 12.585 17.9755 13.0785 17.8459C13.5029 17.7338 13.9078 17.5589 14.2795 17.3272C14.6227 17.1181 14.9343 16.8621 15.205 16.5666C15.5288 16.2131 15.7934 15.8108 15.989 15.3748C16.229 14.8353 16.373 14.2721 16.377 13.6846C16.389 12.065 16.385 10.4455 16.387 8.82594V8.66918C17.4355 9.3981 18.5755 9.74228 19.82 9.7858V8.18752Z" fill="white"/>
</svg>
