<svg width="15" height="16" viewBox="0 0 15 16" fill="none" xmlns="http://www.w3.org/2000/svg">
<g clip-path="url(#clip0_1_8686)">
<path d="M12.0571 0.740711C12.0519 0.540768 11.9681 0.350965 11.8239 0.212373C11.6797 0.0737808 11.4866 -0.00243197 11.2867 0.000268545C11.1873 -0.00239107 11.0883 0.0147269 10.9956 0.0506228C10.9029 0.0865186 10.8183 0.140489 10.7466 0.209381C10.6749 0.278272 10.6176 0.360713 10.5781 0.45193C10.5385 0.543146 10.5175 0.641297 10.5162 0.740711V2.23164C10.5175 2.33105 10.5385 2.42921 10.5781 2.52042C10.6176 2.61164 10.6749 2.69408 10.7466 2.76297C10.8183 2.83186 10.9029 2.88583 10.9956 2.92173C11.0883 2.95763 11.1873 2.97474 11.2867 2.97208C11.4866 2.97478 11.6797 2.8986 11.8239 2.76001C11.9681 2.62142 12.0519 2.43158 12.0571 2.23164V0.740711Z" fill="white"/>
<path d="M8.20517 0.740711C8.20388 0.641297 8.18284 0.543146 8.14329 0.45193C8.10374 0.360713 8.04646 0.278272 7.97478 0.209381C7.90309 0.140489 7.81844 0.0865186 7.72572 0.0506228C7.633 0.0147269 7.53408 -0.00239107 7.43469 0.000268545C7.2347 -0.00243197 7.0417 0.0737808 6.89748 0.212373C6.75327 0.350965 6.66947 0.540768 6.66422 0.740711V2.23164C6.66947 2.43158 6.75327 2.62142 6.89748 2.76001C7.0417 2.8986 7.2347 2.97478 7.43469 2.97208C7.53408 2.97474 7.633 2.95763 7.72572 2.92173C7.81844 2.88583 7.90309 2.83186 7.97478 2.76297C8.04646 2.69408 8.10374 2.61164 8.14329 2.52042C8.18284 2.42921 8.20388 2.33105 8.20517 2.23164V0.740711Z" fill="white"/>
<path d="M4.36298 0.740711C4.35773 0.540768 4.27392 0.350965 4.12971 0.212373C3.9855 0.0737808 3.7925 -0.00243197 3.59251 0.000268545C3.49312 -0.00239107 3.3942 0.0147269 3.30148 0.0506228C3.20876 0.0865186 3.12411 0.140489 3.05242 0.209381C2.98074 0.278272 2.92346 0.360713 2.88391 0.45193C2.84436 0.543146 2.82332 0.641297 2.82203 0.740711V2.23164C2.82332 2.33105 2.84436 2.42921 2.88391 2.52042C2.92346 2.61164 2.98074 2.69408 3.05242 2.76297C3.12411 2.83186 3.20876 2.88583 3.30148 2.92173C3.3942 2.95763 3.49312 2.97474 3.59251 2.97208C3.7925 2.97478 3.9855 2.8986 4.12971 2.76001C4.27392 2.62142 4.35773 2.43158 4.36298 2.23164V0.740711Z" fill="white"/>
<path d="M13.4379 15.8698H14.1083C14.3083 15.8725 14.5013 15.7963 14.6455 15.6577C14.7897 15.5191 14.8735 15.3293 14.8788 15.1294V14.3789C14.5135 14.9754 14.0216 15.4844 13.4379 15.8698Z" fill="white"/>
<path d="M6.25382 13.0775H2.77169C2.63597 13.0777 2.50164 13.0503 2.37686 12.9969C2.25208 12.9435 2.13946 12.8653 2.04586 12.767C1.95226 12.6687 1.87963 12.5524 1.83239 12.4252C1.78516 12.2979 1.7643 12.1624 1.77108 12.0269C1.7643 11.8913 1.78516 11.7558 1.83239 11.6286C1.87963 11.5013 1.95226 11.385 2.04586 11.2868C2.13946 11.1885 2.25208 11.1103 2.37686 11.0569C2.50164 11.0035 2.63597 10.9761 2.77169 10.9762H6.20379C6.26467 10.6855 6.35174 10.4008 6.46395 10.1257H2.77169C2.50631 10.1257 2.2518 10.0203 2.06415 9.83265C1.8765 9.645 1.77108 9.39048 1.77108 9.1251C1.77108 8.85972 1.8765 8.60523 2.06415 8.41758C2.2518 8.22993 2.50631 8.12449 2.77169 8.12449H8.13497C8.83814 7.6253 9.66596 7.33088 10.5264 7.27396H2.77169C2.50631 7.27396 2.2518 7.16856 2.06415 6.98091C1.8765 6.79326 1.77108 6.53873 1.77108 6.27335C1.7643 6.1378 1.78516 6.0023 1.83239 5.87507C1.87963 5.74784 1.95226 5.63153 2.04586 5.53325C2.13946 5.43497 2.25208 5.35676 2.37686 5.30337C2.50164 5.24999 2.63597 5.22256 2.77169 5.22272H10.9567C11.0924 5.22256 11.2267 5.24999 11.3515 5.30337C11.4763 5.35676 11.5889 5.43497 11.6825 5.53325C11.7761 5.63153 11.8487 5.74784 11.896 5.87507C11.9432 6.0023 11.9641 6.1378 11.9573 6.27335C11.9573 6.53873 11.8519 6.79326 11.6642 6.98091C11.4766 7.16856 11.2221 7.27396 10.9567 7.27396C11.7367 7.30475 12.4971 7.52717 13.1707 7.92158C13.8443 8.31598 14.4105 8.87023 14.819 9.53535V2.33098C14.8138 2.13103 14.73 1.9412 14.5858 1.80261C14.4416 1.66402 14.2486 1.5878 14.0486 1.5905H12.7678V2.33098C12.7599 2.73261 12.5934 3.11479 12.3047 3.39412C12.016 3.67346 11.6285 3.82724 11.2269 3.82188C11.0271 3.81289 10.831 3.76456 10.6499 3.6797C10.4688 3.59484 10.3062 3.47509 10.1714 3.32731C10.0366 3.17953 9.93235 3.00663 9.86449 2.81849C9.79664 2.63035 9.76655 2.43069 9.77597 2.23091V1.49044H9.0055V2.23091C8.9976 2.63255 8.83113 3.01476 8.54243 3.29409C8.25373 3.57342 7.86624 3.72717 7.46456 3.72181C7.06288 3.72717 6.67539 3.57342 6.38668 3.29409C6.09798 3.01476 5.93151 2.63255 5.92362 2.23091V1.49044H5.15315V2.23091C5.15054 2.42933 5.10886 2.6253 5.03051 2.80762C4.95216 2.98993 4.83866 3.15503 4.69649 3.29348C4.55433 3.43192 4.38629 3.54101 4.20196 3.6145C4.01763 3.688 3.82063 3.72445 3.62221 3.72181C3.22053 3.72717 2.83304 3.57342 2.54434 3.29409C2.25563 3.01476 2.08917 2.63255 2.08127 2.23091V1.49044H0.770471C0.671085 1.48778 0.572161 1.50489 0.479445 1.54079C0.38673 1.57669 0.302072 1.63066 0.230388 1.69955C0.158704 1.76844 0.10142 1.85088 0.0618702 1.9421C0.0223201 2.03331 0.00129004 2.1315 0 2.23091V15.1288C0.00129004 15.2282 0.0223201 15.3264 0.0618702 15.4176C0.10142 15.5088 0.158704 15.5912 0.230388 15.6601C0.302072 15.729 0.38673 15.783 0.479445 15.8189C0.572161 15.8548 0.671085 15.8719 0.770471 15.8692H8.25504C7.26327 15.2207 6.54955 14.225 6.25382 13.0775Z" fill="white"/>
<path d="M14.8795 11.2364C14.7217 10.2862 14.2339 9.42209 13.5018 8.79614C12.7696 8.17019 11.8402 7.82253 10.877 7.81434C10.3382 7.81484 9.80464 7.92019 9.30607 8.12453C8.38045 8.50973 7.62894 9.22206 7.19478 10.1257C7.03829 10.443 6.92392 10.7794 6.85457 11.1264C6.80601 11.3904 6.78256 11.6584 6.78453 11.9269C6.78318 12.2641 6.82351 12.6002 6.9046 12.9275C7.08464 13.6535 7.4593 14.3167 7.98824 14.8457C8.51719 15.3746 9.18038 15.7493 9.90643 15.9293C10.2335 16.013 10.5695 16.0567 10.907 16.0594C11.2446 16.0569 11.5806 16.0132 11.9077 15.9293C12.6708 15.7258 13.3594 15.3073 13.8916 14.7237C14.4237 14.1401 14.777 13.4159 14.9095 12.6373C14.9498 12.4161 14.9699 12.1917 14.9695 11.9669C14.9638 11.721 14.9336 11.4763 14.8795 11.2364ZM10.877 15.359C9.96228 15.3563 9.08576 14.9918 8.43894 14.3449C7.79211 13.6981 7.42756 12.8216 7.42492 11.9068C7.42801 11.2775 7.60459 10.6612 7.93523 10.1257C8.35917 9.43843 9.01066 8.92149 9.77635 8.66487C10.0983 8.55258 10.436 8.4918 10.777 8.48476C11.6908 8.48741 12.5663 8.85228 13.2115 9.49939C13.8567 10.1465 14.2191 11.023 14.2191 11.9369C14.2115 12.8335 13.8554 13.692 13.226 14.3307C12.5966 14.9694 11.7434 15.3382 10.847 15.359H10.877Z" fill="white"/>
<path d="M9.44541 11.1672C9.50818 11.2248 9.59031 11.2568 9.67555 11.2568C9.76078 11.2568 9.84292 11.2248 9.90569 11.1672L10.5961 10.4667V13.9489C10.5961 14.0338 10.6298 14.1152 10.6899 14.1753C10.7499 14.2353 10.8314 14.2691 10.9163 14.2691C11.0012 14.2691 11.0827 14.2353 11.1427 14.1753C11.2028 14.1152 11.2365 14.0338 11.2365 13.9489V10.4667L11.9369 11.1672C11.9981 11.2241 12.0785 11.2558 12.1621 11.2558C12.2456 11.2558 12.3261 11.2241 12.3872 11.1672C12.4181 11.1373 12.4426 11.1015 12.4594 11.062C12.4761 11.0225 12.4848 10.9799 12.4848 10.937C12.4848 10.8941 12.4761 10.8516 12.4594 10.812C12.4426 10.7725 12.4181 10.7367 12.3872 10.7069L11.1464 9.4661C11.0859 9.40376 11.0032 9.36784 10.9163 9.36607C10.8296 9.36888 10.7473 9.40464 10.6862 9.4661L9.44541 10.6668C9.41084 10.6987 9.38326 10.7374 9.36439 10.7804C9.34552 10.8235 9.33578 10.87 9.33578 10.917C9.33578 10.964 9.34552 11.0105 9.36439 11.0536C9.38326 11.0966 9.41084 11.1353 9.44541 11.1672Z" fill="white"/>
</g>
<defs>
<clipPath id="clip0_1_8686">
<rect width="14.93" height="15.99" fill="white" transform="scale(1.00061)"/>
</clipPath>
</defs>
</svg>
