<svg width="18" height="18" viewBox="0 0 18 18" fill="none" xmlns="http://www.w3.org/2000/svg">
<path d="M18 15.234C18.0086 15.7 17.8311 16.1509 17.5054 16.4909C17.3473 16.6526 17.1571 16.7809 16.9465 16.868C16.7272 16.9596 16.4911 17.0066 16.2527 17.0063H1.86298C1.61848 17.0049 1.37648 16.9579 1.14991 16.868C0.92757 16.7816 0.724632 16.6535 0.552484 16.4909C0.38496 16.3269 0.247997 16.1355 0.14777 15.9253C0.0496492 15.7097 -0.000712521 15.4763 1.15128e-05 15.2403V5.56192C-0.000837484 5.32977 0.0452778 5.09975 0.135694 4.88512C0.22611 4.67049 0.35905 4.47548 0.526842 4.31132C0.694634 4.14717 0.893955 4.01712 1.11335 3.92867C1.33274 3.84021 1.56786 3.7951 1.80515 3.79593H16.1949C16.4322 3.7951 16.6673 3.84021 16.8867 3.92867C17.1061 4.01712 17.3054 4.14717 17.4732 4.31132C17.641 4.47548 17.7739 4.67049 17.8643 4.88512C17.9548 5.09975 18.0009 5.32977 18 5.56192V8.20147H13.5032C13.2654 8.19528 13.0287 8.23668 12.8078 8.32314C12.5869 8.40959 12.3863 8.53928 12.2184 8.70425C12.0468 8.86657 11.9118 9.06229 11.8221 9.27878C11.7325 9.49527 11.6903 9.72773 11.6981 9.96118C11.7027 10.2708 11.7773 10.5755 11.9165 10.8536C12.0327 11.1029 12.2117 11.3191 12.4369 11.4821C12.7507 11.6826 13.1228 11.7775 13.4968 11.7523H17.9936L18 15.234ZM15.3019 2.89723H6.30837C7.02143 2.539 7.69594 2.18706 8.33192 1.85397L9.97646 0.999259L11.2613 0.339368C11.6349 0.117114 12.0638 -0.000289254 12.5011 5.35172e-07C12.8155 0.0104288 13.126 0.0720192 13.4197 0.182251C13.704 0.323542 13.9588 0.515343 14.1713 0.747867L15.3019 2.89723ZM12.6103 9.93604C12.6094 9.82192 12.6318 9.70876 12.676 9.60316C12.7203 9.49756 12.7856 9.40162 12.8681 9.32092C12.9505 9.24022 13.0486 9.17636 13.1566 9.13308C13.2645 9.08979 13.3801 9.06792 13.4968 9.06876C13.6159 9.06452 13.7345 9.0847 13.8452 9.12799C13.9558 9.17129 14.056 9.23673 14.1392 9.32014C14.2255 9.40085 14.293 9.49871 14.3373 9.60712C14.3817 9.71553 14.4017 9.83197 14.3962 9.94861C14.3982 10.0648 14.3765 10.1803 14.3324 10.2882C14.2883 10.3961 14.2226 10.4943 14.1392 10.5771C14.0573 10.6626 13.9575 10.7299 13.8467 10.7743C13.7358 10.8188 13.6165 10.8394 13.4968 10.8347C13.377 10.8402 13.2574 10.82 13.1464 10.7755C13.0355 10.731 12.9358 10.6633 12.8544 10.5771C12.771 10.4943 12.7053 10.3961 12.6612 10.2882C12.6171 10.1803 12.5954 10.0648 12.5975 9.94861L12.6103 9.93604Z" fill="#FFC700"/>
</svg>
