<svg width="19" height="16" viewBox="0 0 19 16" fill="none" xmlns="http://www.w3.org/2000/svg">
<g opacity="0.8" clip-path="url(#clip0_1_57006)">
<path fill-rule="evenodd" clip-rule="evenodd" d="M5.75455 14.0764L14.1581 5.67294L10.3241 1.83901L1.92063 10.2425L5.75455 14.0764Z" fill="#808994"/>
<path fill-rule="evenodd" clip-rule="evenodd" d="M1.55057 10.6509L0 15.9928V16.0028H6.12224V15.0925H3.24119L5.39197 14.4823L1.55057 10.6509Z" fill="#808994"/>
<path fill-rule="evenodd" clip-rule="evenodd" d="M14.5658 5.31213L15.7062 4.17171L15.6662 4.12169C15.8863 3.91162 15.9963 3.62151 15.9963 3.35141C15.9963 3.10132 15.9063 2.86123 15.7062 2.66116L13.3354 0.29029C12.9252 -0.11986 12.285 -0.0798456 11.8748 0.330305C11.8448 0.360316 11.8148 0.390327 11.7948 0.420338L10.7344 1.47072L14.5658 5.31213Z" fill="#808994"/>
<path fill-rule="evenodd" clip-rule="evenodd" d="M0 15.9984H18.7336V15.088H0V15.9984Z" fill="#808994"/>
</g>
<defs>
<clipPath id="clip0_1_57006">
<rect width="18.7267" height="15.9942" fill="white" transform="scale(1.00037)"/>
</clipPath>
</defs>
</svg>
