<svg width="40" height="40" viewBox="0 0 40 40" fill="none" xmlns="http://www.w3.org/2000/svg">
<rect width="40" height="40" rx="20" fill="#1E2024"/>
<g clip-path="url(#clip0_1_5136)">
<path d="M27.5248 25.124C25.4988 27.0009 22.8036 28.0489 20 28.0501C17.1938 28.0475 14.4961 26.9998 12.4656 25.124C11.2081 25.9815 10.1141 27.0441 9.23243 28.2644C7.99541 29.9902 7.2276 31.9901 7 34.0793C10.5393 37.2457 15.1816 39.0028 20 38.9997C24.818 39.0009 29.4597 37.2441 33 34.0793C32.774 31.9898 32.0061 29.9895 30.7676 28.2644C29.8799 27.0458 28.7831 25.9837 27.5248 25.124Z" fill="#808994"/>
<path d="M24.9171 11.6961C23.532 10.5934 21.7929 9.99358 20 10.0001C18.207 9.99358 16.4679 10.5934 15.0829 11.6961C14.2061 12.3963 13.5003 13.2759 13.0162 14.2716C12.532 15.2673 12.2816 16.3545 12.2827 17.4551C12.2843 18.4535 12.4929 19.4414 12.8962 20.3603C13.2995 21.2791 13.8893 22.1102 14.6306 22.8041C14.8149 22.9838 15.011 23.1519 15.2176 23.3072C16.5861 24.3575 18.2827 24.926 20.0288 24.9194C21.775 24.926 23.4716 24.3575 24.8401 23.3072C25.0422 23.1488 25.2346 22.9811 25.4174 22.8134C26.1599 22.1184 26.7503 21.2858 27.1537 20.3653C27.5571 19.4448 27.7651 18.455 27.7653 17.4551C27.7606 16.3508 27.5027 15.2613 27.0101 14.2653C26.5175 13.2693 25.8026 12.3918 24.9171 11.6961Z" fill="#808994"/>
</g>
<defs>
<clipPath id="clip0_1_5136">
<rect width="26" height="29" fill="white" transform="translate(7 10)"/>
</clipPath>
</defs>
</svg>
