<svg width="34" height="34" viewBox="0 0 34 34" fill="none" xmlns="http://www.w3.org/2000/svg">
<rect width="34" height="34" rx="8" fill="#3C5A9B"/>
<path fill-rule="evenodd" clip-rule="evenodd" d="M19.3491 9.26194L19.3419 9.262H19.3346C18.7412 9.262 18.2449 9.75649 18.2449 10.3517V28.7797H14.9333V10.3517C14.9333 7.92296 16.9155 5.95375 19.3283 5.95035L19.3373 5.9503L19.3758 5.9502C19.4079 5.95018 19.453 5.9503 19.5079 5.95082C19.6171 5.95186 19.7689 5.95454 19.9389 5.96117C20.2359 5.97275 20.7377 6.00057 21.1455 6.09524L21.1626 6.0992L21.1795 6.10352C21.5255 6.19158 22.1565 6.42625 22.5918 6.59131C22.8337 6.68305 23.0597 6.77064 23.2249 6.83514C23.3077 6.86746 23.3755 6.89412 23.4229 6.9128L23.4979 6.94244L22.2768 10.0207L22.2087 9.99384C22.1641 9.97626 22.0995 9.95086 22.0203 9.91996C21.8617 9.85803 21.6463 9.77455 21.4175 9.68779C21.1875 9.60057 20.9501 9.51233 20.7459 9.43994C20.6437 9.40373 20.5551 9.37335 20.483 9.34986C20.4472 9.33819 20.4183 9.32915 20.396 9.32243C20.3905 9.32078 20.3857 9.31936 20.3816 9.31817" fill="white"/>
<path fill-rule="evenodd" clip-rule="evenodd" d="M21.8958 13.8641H11.0498V17.1706H21.4283L21.8958 13.8641Z" fill="white"/>
</svg>
